<svg width="48" height="48" viewBox="0 0 48 48" fill="none" xmlns="http://www.w3.org/2000/svg">
<circle cx="24" cy="24" r="24" fill="#FFBF5F"/>
<path d="M17 16C17 14.8954 17.8954 14 19 14H30C31.1046 14 32 14.8954 32 16V33.5839C32 33.7516 31.806 33.8448 31.6751 33.74L30.2499 32.6C30.1769 32.5415 30.0731 32.5415 30.0001 32.6L28.3749 33.9C28.3019 33.9585 28.1981 33.9585 28.1251 33.9L26.4999 32.6C26.4269 32.5415 26.3231 32.5415 26.2501 32.6L24.6249 33.9C24.5519 33.9585 24.4481 33.9585 24.3751 33.9L22.7499 32.6C22.6769 32.5415 22.5731 32.5415 22.5001 32.6L20.8749 33.9C20.8019 33.9585 20.6981 33.9585 20.6251 33.9L18.9999 32.6C18.9269 32.5415 18.8231 32.5415 18.7501 32.6L17.3249 33.74C17.194 33.8448 17 33.7516 17 33.5839V16Z" fill="white"/>
<rect x="19" y="18" width="10" height="1" rx="0.5" fill="#C4C4C4"/>
<rect x="19" y="21" width="10" height="1" rx="0.5" fill="#C4C4C4"/>
<rect x="19" y="24" width="7" height="1" rx="0.5" fill="#C4C4C4"/>
</svg>
