<svg width="24" height="24" viewBox="0 0 24 24" fill="none" xmlns="http://www.w3.org/2000/svg">
<path d="M14.25 20.2046V16.1697C14.25 15.9589 14.1638 15.7568 14.0104 15.6078C13.8569 15.4587 13.6488 15.375 13.4318 15.375H10.5682C10.3512 15.375 10.1431 15.4587 9.98964 15.6078C9.8362 15.7568 9.75 15.9589 9.75 16.1697V20.2046C9.75 20.4154 9.66381 20.6175 9.5104 20.7666C9.35698 20.9156 9.1489 20.9993 8.93192 20.9994L3.81828 21C3.71083 21 3.60443 20.9795 3.50515 20.9395C3.40587 20.8996 3.31566 20.8411 3.23968 20.7673C3.16369 20.6935 3.10341 20.6059 3.06229 20.5094C3.02117 20.413 3 20.3096 3 20.2053V11.0202C3 10.9095 3.02382 10.8 3.06993 10.6987C3.11604 10.5975 3.18342 10.5067 3.26776 10.4322L11.449 3.20672C11.5996 3.07371 11.7959 3.00001 11.9994 3C12.203 2.99999 12.3992 3.07369 12.5498 3.20669L20.7322 10.4322C20.8166 10.5067 20.8839 10.5975 20.9301 10.6988C20.9762 10.8 21 10.9095 21 11.0203V20.2053C21 20.3097 20.9788 20.413 20.9377 20.5094C20.8966 20.6059 20.8363 20.6935 20.7603 20.7673C20.6843 20.8411 20.5941 20.8996 20.4949 20.9395C20.3956 20.9795 20.2892 21 20.1817 21L15.0681 20.9994C14.8511 20.9993 14.643 20.9156 14.4896 20.7666C14.3362 20.6175 14.25 20.4154 14.25 20.2046Z" stroke="#333333" stroke-linecap="round" stroke-linejoin="round"/>
</svg>
