<svg width="25" height="24" viewBox="0 0 25 24" fill="none" xmlns="http://www.w3.org/2000/svg">
<path d="M14.75 20.2046V16.1697C14.75 15.9589 14.6638 15.7568 14.5104 15.6078C14.3569 15.4587 14.1488 15.375 13.9318 15.375H11.0682C10.8512 15.375 10.6431 15.4587 10.4896 15.6078C10.3362 15.7568 10.25 15.9589 10.25 16.1697V20.2046C10.25 20.4154 10.1638 20.6175 10.0104 20.7666C9.85698 20.9156 9.6489 20.9993 9.43192 20.9994L4.31828 21C4.21083 21 4.10443 20.9795 4.00515 20.9395C3.90587 20.8996 3.81566 20.8411 3.73968 20.7673C3.66369 20.6935 3.60341 20.6059 3.56229 20.5094C3.52117 20.413 3.5 20.3096 3.5 20.2053V11.0202C3.5 10.9095 3.52382 10.8 3.56993 10.6987C3.61604 10.5975 3.68342 10.5067 3.76776 10.4322L11.949 3.20672C12.0996 3.07371 12.2959 3.00001 12.4994 3C12.703 2.99999 12.8992 3.07369 13.0498 3.20669L21.2322 10.4322C21.3166 10.5067 21.3839 10.5975 21.4301 10.6988C21.4762 10.8 21.5 10.9095 21.5 11.0203V20.2053C21.5 20.3097 21.4788 20.413 21.4377 20.5094C21.3966 20.6059 21.3363 20.6935 21.2603 20.7673C21.1843 20.8411 21.0941 20.8996 20.9949 20.9395C20.8956 20.9795 20.7892 21 20.6817 21L15.5681 20.9994C15.3511 20.9993 15.143 20.9156 14.9896 20.7666C14.8362 20.6175 14.75 20.4154 14.75 20.2046Z" fill="#333333"/>
</svg>
