<svg width="25" height="24" viewBox="0 0 25 24" fill="none" xmlns="http://www.w3.org/2000/svg">
<path d="M9.5 4H5.5C4.94772 4 4.5 4.44772 4.5 5V9C4.5 9.55228 4.94772 10 5.5 10H9.5C10.0523 10 10.5 9.55228 10.5 9V5C10.5 4.44772 10.0523 4 9.5 4Z" stroke="#333333" stroke-linecap="round" stroke-linejoin="round"/>
<path d="M9.5 14H5.5C4.94772 14 4.5 14.4477 4.5 15V19C4.5 19.5523 4.94772 20 5.5 20H9.5C10.0523 20 10.5 19.5523 10.5 19V15C10.5 14.4477 10.0523 14 9.5 14Z" stroke="#333333" stroke-linecap="round" stroke-linejoin="round"/>
<path d="M19.5 14H15.5C14.9477 14 14.5 14.4477 14.5 15V19C14.5 19.5523 14.9477 20 15.5 20H19.5C20.0523 20 20.5 19.5523 20.5 19V15C20.5 14.4477 20.0523 14 19.5 14Z" stroke="#333333" stroke-linecap="round" stroke-linejoin="round"/>
<path d="M14.5 7H20.5" stroke="#333333" stroke-linecap="round" stroke-linejoin="round"/>
<path d="M17.5 4V10" stroke="#333333" stroke-linecap="round" stroke-linejoin="round"/>
</svg>
