<svg width="320" height="159" viewBox="0 0 320 159" fill="none" xmlns="http://www.w3.org/2000/svg">
<path d="M0 4C0 1.79086 1.79086 0 4 0H316C318.209 0 320 1.79086 320 4V155C320 157.209 318.209 159 316 159H4C1.79086 159 0 157.209 0 155V4Z" fill="#F3F3F3"/>
<path d="M129.936 35.392C132.516 35.392 134.088 35.344 135.528 35.152C135.876 35.104 135.996 34.78 135.96 34.432C135.924 34.096 135.708 33.844 135.336 33.892C135.144 33.916 134.952 33.952 134.76 33.964V29.728H135.24C135.612 29.728 135.78 29.428 135.78 29.092C135.78 28.756 135.612 28.456 135.24 28.456H130.008C129.636 28.456 129.468 28.756 129.468 29.092C129.468 29.428 129.636 29.728 130.008 29.728H130.572V34.12H129.936C129.564 34.12 129.396 34.42 129.396 34.756C129.396 35.092 129.564 35.392 129.936 35.392ZM132.036 34.108V29.728H133.296V34.072C132.888 34.096 132.468 34.108 132.036 34.108ZM138.06 31.144V28.252C138.06 27.808 137.688 27.604 137.292 27.604C136.896 27.604 136.524 27.808 136.524 28.252V37.444C136.524 37.888 136.896 38.092 137.292 38.092C137.688 38.092 138.06 37.888 138.06 37.444V32.476H139.188C139.572 32.476 139.74 32.176 139.74 31.804C139.74 31.444 139.572 31.144 139.188 31.144H138.06ZM144.254 29.728C144.458 29.728 144.53 29.8 144.53 30.004V30.7C144.53 32.128 144.326 32.488 141.038 34.48C140.69 34.696 140.726 35.152 140.918 35.44C141.11 35.728 141.518 35.908 141.854 35.704C145.502 33.472 146.054 32.776 146.054 30.748V29.416C146.054 28.66 145.802 28.42 145.034 28.42H141.422C141.05 28.42 140.882 28.72 140.882 29.08C140.882 29.428 141.05 29.728 141.422 29.728H144.254ZM149.498 28.252C149.498 27.808 149.126 27.604 148.718 27.604C148.322 27.604 147.95 27.808 147.95 28.252V37.444C147.95 37.888 148.322 38.092 148.718 38.092C149.126 38.092 149.498 37.888 149.498 37.444V28.252ZM153.088 28.732C153.088 28.3 152.716 28.096 152.332 28.096C151.948 28.096 151.576 28.3 151.576 28.732V32.548C151.576 33.304 151.828 33.544 152.596 33.544H155.86C156.628 33.544 156.88 33.304 156.88 32.548V28.732C156.88 28.3 156.508 28.096 156.124 28.096C155.74 28.096 155.368 28.3 155.368 28.732V29.86H153.088V28.732ZM153.364 32.296C153.16 32.296 153.088 32.224 153.088 32.02V31.108H155.368V32.02C155.368 32.224 155.296 32.296 155.092 32.296H153.364ZM159.904 30.22V28.252C159.904 27.808 159.532 27.604 159.136 27.604C158.74 27.604 158.368 27.808 158.368 28.252V33.64C158.368 34.084 158.74 34.288 159.136 34.288C159.532 34.288 159.904 34.084 159.904 33.64V31.552H161.032C161.416 31.552 161.584 31.252 161.584 30.88C161.584 30.52 161.416 30.22 161.032 30.22H159.904ZM152.86 36.652C152.86 38.188 154.192 38.944 156.4 38.944C158.608 38.944 159.94 38.188 159.94 36.652C159.94 35.116 158.608 34.36 156.4 34.36C154.192 34.36 152.86 35.116 152.86 36.652ZM154.384 36.652C154.384 36.016 154.936 35.584 156.4 35.584C157.864 35.584 158.416 36.016 158.416 36.652C158.416 37.288 157.864 37.72 156.4 37.72C154.936 37.72 154.384 37.288 154.384 36.652ZM171.414 28.252C171.414 27.808 171.042 27.604 170.658 27.604C170.262 27.604 169.89 27.808 169.89 28.252V30.076H167.922V28.708C167.922 28.276 167.55 28.072 167.166 28.072C166.782 28.072 166.41 28.276 166.41 28.708V29.776H164.178V28.708C164.178 28.276 163.806 28.072 163.422 28.072C163.038 28.072 162.666 28.276 162.666 28.708V32.38C162.666 33.136 162.918 33.376 163.686 33.376H166.902C167.67 33.376 167.922 33.136 167.922 32.38V31.372H169.89V33.04C169.89 33.484 170.262 33.688 170.658 33.688C171.042 33.688 171.414 33.484 171.414 33.04V28.252ZM171.414 34.756C171.414 34.336 171.042 34.132 170.658 34.132C170.286 34.132 169.914 34.336 169.914 34.756V35.5H165.642V34.756C165.642 34.336 165.27 34.132 164.886 34.132C164.514 34.132 164.142 34.336 164.142 34.756V37.732C164.142 38.488 164.394 38.728 165.162 38.728H170.394C171.162 38.728 171.414 38.488 171.414 37.732V34.756ZM165.918 37.492C165.714 37.492 165.642 37.42 165.642 37.216V36.712H169.914V37.216C169.914 37.42 169.842 37.492 169.638 37.492H165.918ZM164.454 32.14C164.25 32.14 164.178 32.068 164.178 31.864V31.012H166.41V31.864C166.41 32.068 166.338 32.14 166.134 32.14H164.454Z" fill="black"/>
<path d="M138 61.712C137.772 61.712 137.568 61.82 137.568 62.072V65.48H134.784C134.82 65.24 134.832 64.988 134.832 64.7V63.368C134.832 62.756 134.628 62.564 134.004 62.564H130.392C130.176 62.564 130.08 62.744 130.08 62.948C130.08 63.152 130.176 63.332 130.392 63.332H133.74C133.908 63.332 133.968 63.392 133.968 63.548V64.664C133.968 66.356 133.596 66.764 130.116 68.888C129.924 69.008 129.924 69.272 130.044 69.452C130.164 69.632 130.392 69.704 130.572 69.596C133.152 68 134.196 67.244 134.604 66.236H137.568V71.624C137.568 71.876 137.772 71.984 138 71.984C138.216 71.984 138.432 71.876 138.432 71.624V62.072C138.432 61.82 138.216 61.712 138 61.712ZM143.99 62.552H141.062C140.858 62.552 140.762 62.72 140.762 62.924C140.762 63.14 140.858 63.308 141.062 63.308H143.738C143.894 63.308 143.966 63.368 143.966 63.524V65.336C143.966 65.504 143.894 65.564 143.738 65.564H141.59C140.966 65.564 140.762 65.756 140.762 66.368V68.576C140.762 69.188 140.966 69.38 141.59 69.38C143.294 69.38 144.674 69.284 145.394 69.164C145.586 69.14 145.67 68.936 145.646 68.72C145.61 68.516 145.478 68.384 145.298 68.408C144.386 68.54 143.042 68.624 141.842 68.624C141.674 68.624 141.614 68.564 141.614 68.408V66.512C141.614 66.356 141.674 66.296 141.842 66.296H143.99C144.614 66.296 144.818 66.104 144.818 65.492V63.356C144.818 62.744 144.614 62.552 143.99 62.552ZM149.21 61.712C149.006 61.712 148.802 61.82 148.802 62.06V65.48H147.206V62.18C147.206 61.94 147.002 61.832 146.786 61.832C146.582 61.832 146.378 61.94 146.378 62.18V71.132C146.378 71.372 146.582 71.48 146.786 71.48C147.002 71.48 147.206 71.372 147.206 71.132V66.236H148.802V71.636C148.802 71.876 149.006 71.984 149.21 71.984C149.426 71.984 149.63 71.876 149.63 71.636V62.06C149.63 61.82 149.426 61.712 149.21 61.712ZM155.992 62.552H152.308C152.092 62.552 151.996 62.732 151.996 62.936C151.996 63.14 152.092 63.32 152.308 63.32H155.728C155.896 63.32 155.956 63.38 155.956 63.536V64.676C155.956 66.332 155.524 66.776 152.032 68.9C151.84 69.02 151.84 69.284 151.96 69.464C152.08 69.644 152.308 69.716 152.488 69.608C156.208 67.316 156.82 66.716 156.82 64.712V63.356C156.82 62.744 156.616 62.552 155.992 62.552ZM159.76 61.712C159.544 61.712 159.328 61.82 159.328 62.072V71.624C159.328 71.876 159.544 71.984 159.76 71.984C159.988 71.984 160.204 71.876 160.204 71.624V62.072C160.204 61.82 159.988 61.712 159.76 61.712ZM169.902 62.06H163.974C163.782 62.06 163.686 62.216 163.686 62.408C163.686 62.6 163.782 62.768 163.974 62.768H169.686C169.818 62.768 169.878 62.816 169.878 62.96V63.764C169.878 63.896 169.818 63.944 169.686 63.944H164.538C163.914 63.944 163.71 64.136 163.71 64.748V65.732C163.71 66.344 163.914 66.536 164.538 66.536H166.794V67.736H162.522C162.318 67.736 162.222 67.904 162.222 68.096C162.222 68.3 162.318 68.468 162.522 68.468H171.93C172.134 68.468 172.23 68.3 172.23 68.096C172.23 67.904 172.134 67.736 171.93 67.736H167.658V66.536H170.73C170.922 66.536 171.018 66.38 171.018 66.176C171.018 65.996 170.922 65.828 170.73 65.828H164.754C164.622 65.828 164.562 65.78 164.562 65.636V64.82C164.562 64.688 164.622 64.64 164.754 64.64H169.902C170.526 64.64 170.73 64.448 170.73 63.836V62.864C170.73 62.252 170.526 62.06 169.902 62.06ZM169.974 69.452H163.794C163.602 69.452 163.506 69.62 163.506 69.812C163.506 70.028 163.602 70.184 163.794 70.184H169.71C169.878 70.184 169.938 70.244 169.938 70.412V72.464C169.938 72.716 170.154 72.824 170.37 72.824C170.598 72.824 170.802 72.716 170.802 72.464V70.256C170.802 69.644 170.598 69.452 169.974 69.452ZM178.004 62.24C177.788 62.24 177.572 62.348 177.572 62.6V66.908C177.572 67.52 177.776 67.712 178.4 67.712H180.716V70.112H176.456C176.24 70.112 176.144 70.28 176.144 70.496C176.144 70.7 176.24 70.868 176.456 70.868H185.84C186.056 70.868 186.152 70.7 186.152 70.496C186.152 70.28 186.056 70.112 185.84 70.112H181.592V67.712H183.896C184.52 67.712 184.724 67.52 184.724 66.908V62.6C184.724 62.348 184.508 62.24 184.292 62.24C184.076 62.24 183.86 62.348 183.86 62.6V64.268H178.436V62.6C178.436 62.348 178.22 62.24 178.004 62.24ZM178.436 66.74V65.024H183.86V66.74C183.86 66.896 183.788 66.956 183.632 66.956H178.664C178.508 66.956 178.436 66.896 178.436 66.74ZM195.501 62.204H188.637C188.433 62.204 188.337 62.372 188.337 62.576C188.337 62.78 188.433 62.948 188.637 62.948H191.625V63.26C191.625 63.884 191.313 64.328 190.461 64.724C189.657 65.072 188.901 65.396 188.193 65.672C187.977 65.756 187.953 65.996 188.025 66.176C188.097 66.38 188.265 66.5 188.505 66.416C189.201 66.14 189.885 65.852 190.689 65.492C191.661 65.06 191.985 64.712 192.069 64.376H192.081C192.165 64.7 192.477 65.048 193.461 65.48C194.253 65.84 194.949 66.128 195.633 66.404C195.873 66.488 196.041 66.368 196.113 66.176C196.185 65.996 196.149 65.756 195.945 65.672C195.237 65.396 194.481 65.072 193.677 64.724C192.825 64.328 192.513 63.884 192.513 63.26V62.948H195.501C195.705 62.948 195.801 62.78 195.801 62.576C195.801 62.372 195.705 62.204 195.501 62.204ZM192.069 65.936C191.853 65.936 191.637 66.044 191.637 66.296V67.64H187.365C187.161 67.64 187.065 67.808 187.065 68.012C187.065 68.216 187.161 68.384 187.365 68.384H196.773C196.977 68.384 197.073 68.216 197.073 68.012C197.073 67.808 196.977 67.64 196.773 67.64H192.501V66.296C192.501 66.044 192.297 65.936 192.069 65.936ZM188.937 69.272C188.697 69.272 188.493 69.38 188.493 69.632V71.756C188.493 72.368 188.697 72.56 189.321 72.56H195.549C195.753 72.56 195.849 72.392 195.849 72.188C195.849 71.984 195.753 71.816 195.549 71.816H189.597C189.441 71.816 189.369 71.756 189.369 71.588V69.632C189.369 69.38 189.165 69.272 188.937 69.272ZM202.679 62.552H198.995C198.779 62.552 198.683 62.732 198.683 62.936C198.683 63.14 198.779 63.32 198.995 63.32H202.415C202.583 63.32 202.643 63.38 202.643 63.536V64.676C202.643 66.332 202.211 66.776 198.719 68.9C198.527 69.02 198.527 69.284 198.647 69.464C198.767 69.644 198.995 69.716 199.175 69.608C202.895 67.316 203.507 66.716 203.507 64.712V63.356C203.507 62.744 203.303 62.552 202.679 62.552ZM206.447 61.712C206.231 61.712 206.015 61.82 206.015 62.072V71.624C206.015 71.876 206.231 71.984 206.447 71.984C206.675 71.984 206.891 71.876 206.891 71.624V62.072C206.891 61.82 206.675 61.712 206.447 61.712ZM213.337 62.444H209.677C209.461 62.444 209.365 62.624 209.365 62.828C209.365 63.032 209.461 63.212 209.677 63.212H213.073C213.241 63.212 213.301 63.272 213.301 63.428V64.172C213.301 65.468 212.893 65.816 209.425 67.52C209.209 67.616 209.209 67.88 209.305 68.06C209.401 68.264 209.641 68.348 209.821 68.252C213.517 66.392 214.165 65.924 214.165 64.22V63.248C214.165 62.636 213.961 62.444 213.337 62.444ZM216.853 61.712C216.637 61.712 216.421 61.82 216.421 62.072V69.392C216.421 69.644 216.637 69.752 216.853 69.752C217.081 69.752 217.297 69.644 217.297 69.392V65.636H218.821C219.037 65.636 219.133 65.456 219.133 65.252C219.133 65.036 219.037 64.856 218.821 64.856H217.297V62.072C217.297 61.82 217.081 61.712 216.853 61.712ZM211.057 68.816C210.829 68.816 210.613 68.924 210.613 69.176V71.708C210.613 72.32 210.817 72.512 211.441 72.512H217.297C217.513 72.512 217.609 72.332 217.609 72.128C217.609 71.924 217.513 71.744 217.297 71.744H211.729C211.561 71.744 211.501 71.684 211.501 71.528V69.176C211.501 68.924 211.285 68.816 211.057 68.816ZM225.003 62.564H223.599C223.383 62.564 223.287 62.744 223.287 62.948C223.287 63.152 223.383 63.332 223.599 63.332H224.763C224.919 63.332 224.991 63.392 224.991 63.548V64.808C224.991 66.536 224.823 67.268 222.879 69.368C222.735 69.536 222.771 69.74 222.927 69.896C223.107 70.052 223.335 70.076 223.503 69.896C225.651 67.604 225.831 66.788 225.831 64.844V63.368C225.831 62.756 225.627 62.564 225.003 62.564ZM221.955 62.564H220.443C220.227 62.564 220.131 62.744 220.131 62.948C220.131 63.152 220.227 63.332 220.443 63.332H221.715C221.871 63.332 221.943 63.392 221.943 63.548V64.496C221.943 66.164 221.871 66.584 219.963 68.444C219.795 68.6 219.831 68.816 219.999 68.972C220.167 69.14 220.383 69.164 220.551 68.996C222.687 66.932 222.783 66.428 222.783 64.544V63.368C222.783 62.732 222.603 62.564 221.955 62.564ZM227.931 61.712C227.715 61.712 227.511 61.82 227.511 62.072V71.624C227.511 71.876 227.715 71.984 227.931 71.984C228.159 71.984 228.363 71.876 228.363 71.624V66.188H229.743C229.959 66.188 230.055 66.008 230.055 65.804C230.055 65.6 229.959 65.42 229.743 65.42H228.363V62.072C228.363 61.82 228.159 61.712 227.931 61.712ZM236.969 62.564H231.569C231.365 62.564 231.269 62.732 231.269 62.948C231.269 63.152 231.365 63.332 231.569 63.332H233.849V64.712C233.849 65.78 233.633 66.32 232.877 67.1C232.337 67.64 231.797 68.156 231.197 68.684C231.017 68.828 231.053 69.068 231.197 69.236C231.329 69.38 231.557 69.452 231.749 69.284C232.301 68.804 232.781 68.348 233.321 67.808C234.065 67.052 234.233 66.74 234.293 66.464H234.305C234.365 66.728 234.521 67.04 235.277 67.796C235.817 68.336 236.285 68.792 236.681 69.128C236.861 69.296 237.077 69.236 237.233 69.092C237.365 68.948 237.413 68.696 237.233 68.54C236.801 68.168 236.249 67.64 235.709 67.1C234.953 66.32 234.737 65.78 234.737 64.712V63.332H236.969C237.173 63.332 237.269 63.152 237.269 62.948C237.269 62.732 237.173 62.564 236.969 62.564ZM239.213 61.712C238.997 61.712 238.781 61.82 238.781 62.072V71.624C238.781 71.876 238.997 71.984 239.213 71.984C239.441 71.984 239.657 71.876 239.657 71.624V62.072C239.657 61.82 239.441 61.712 239.213 61.712ZM252.331 62.552H246.295C246.079 62.552 245.983 62.72 245.983 62.936C245.983 63.152 246.079 63.332 246.295 63.332H252.067C252.223 63.332 252.295 63.38 252.295 63.548V64.58C252.295 65.876 252.163 67.22 251.887 68.636C251.839 68.84 251.995 69.008 252.223 69.044C252.475 69.092 252.703 68.984 252.739 68.768C253.039 67.4 253.159 66.032 253.159 64.424V63.356C253.159 62.744 252.955 62.552 252.331 62.552ZM254.371 70.1H244.987C244.771 70.1 244.675 70.28 244.675 70.496C244.675 70.7 244.771 70.868 244.987 70.868H254.371C254.587 70.868 254.683 70.7 254.683 70.496C254.683 70.28 254.587 70.1 254.371 70.1ZM262.221 69.128C261.237 69.224 260.313 69.272 259.413 69.296V67.268C260.961 67.112 261.729 66.08 261.729 64.796C261.729 63.392 260.817 62.3 258.969 62.3C257.121 62.3 256.209 63.392 256.209 64.796C256.209 66.092 256.977 67.124 258.549 67.28V69.332C257.649 69.344 256.773 69.344 255.897 69.344C255.681 69.344 255.585 69.524 255.585 69.728C255.585 69.932 255.681 70.1 255.897 70.1C258.105 70.1 260.169 70.04 262.281 69.86C262.473 69.848 262.557 69.668 262.545 69.452C262.533 69.248 262.401 69.104 262.221 69.128ZM258.969 63.056C260.289 63.056 260.889 63.836 260.889 64.796C260.889 65.756 260.289 66.536 258.969 66.536C257.649 66.536 257.049 65.756 257.049 64.796C257.049 63.836 257.649 63.056 258.969 63.056ZM263.757 61.712C263.529 61.712 263.325 61.82 263.325 62.072V71.624C263.325 71.876 263.529 71.984 263.757 71.984C263.985 71.984 264.189 71.876 264.189 71.624V66.56H265.557C265.773 66.56 265.869 66.38 265.869 66.164C265.869 65.96 265.773 65.78 265.557 65.78H264.189V62.072C264.189 61.82 263.985 61.712 263.757 61.712ZM274.739 62.372H270.575C270.359 62.372 270.263 62.54 270.263 62.756C270.263 62.96 270.359 63.14 270.575 63.14H274.475C274.631 63.14 274.703 63.188 274.703 63.356V63.908C274.703 64.58 274.631 65.132 274.487 65.744C274.427 65.972 274.559 66.14 274.787 66.2C275.039 66.248 275.255 66.152 275.315 65.936C275.495 65.348 275.567 64.676 275.567 63.944V63.176C275.567 62.564 275.363 62.372 274.739 62.372ZM277.679 61.712C277.451 61.712 277.247 61.82 277.247 62.072V69.56C277.247 69.812 277.451 69.92 277.679 69.92C277.907 69.92 278.111 69.812 278.111 69.56V65.924H279.479C279.695 65.924 279.791 65.744 279.791 65.528C279.791 65.324 279.695 65.144 279.479 65.144H278.111V62.072C278.111 61.82 277.907 61.712 277.679 61.712ZM272.171 64.808C271.955 64.808 271.751 64.916 271.751 65.168V67.328C271.103 67.34 270.455 67.34 269.819 67.34C269.603 67.34 269.507 67.508 269.507 67.712C269.507 67.916 269.603 68.084 269.819 68.084C272.027 68.084 274.091 68.036 276.203 67.856C276.395 67.832 276.479 67.652 276.467 67.448C276.455 67.232 276.323 67.1 276.143 67.112C274.895 67.22 273.731 67.28 272.615 67.316V65.168C272.615 64.916 272.399 64.808 272.171 64.808ZM271.619 69.188C271.391 69.188 271.175 69.296 271.175 69.56V71.732C271.175 72.344 271.379 72.536 272.003 72.536H278.123C278.327 72.536 278.423 72.368 278.423 72.164C278.423 71.96 278.327 71.792 278.123 71.792H272.291C272.123 71.792 272.062 71.732 272.062 71.564V69.56C272.062 69.296 271.847 69.188 271.619 69.188ZM284.796 62.372H281.412C281.208 62.372 281.112 62.54 281.112 62.744C281.112 62.948 281.208 63.128 281.412 63.128H284.544C284.7 63.128 284.772 63.176 284.772 63.344V64.676C284.772 64.844 284.7 64.892 284.544 64.892H281.94C281.316 64.892 281.112 65.084 281.112 65.696V67.376C281.112 67.988 281.316 68.18 281.94 68.18C284.028 68.18 285.588 68.12 286.74 67.988C286.932 67.964 287.028 67.772 287.004 67.544C286.968 67.34 286.836 67.208 286.656 67.232C285.336 67.376 283.788 67.424 282.204 67.424C282.036 67.424 281.976 67.364 281.976 67.208V65.84C281.976 65.672 282.036 65.624 282.204 65.624H284.796C285.42 65.624 285.624 65.432 285.624 64.82V63.176C285.624 62.564 285.42 62.372 284.796 62.372ZM288.984 61.712C288.768 61.712 288.552 61.82 288.552 62.072V63.512H286.728C286.512 63.512 286.428 63.68 286.428 63.884C286.428 64.088 286.512 64.256 286.728 64.256H288.552V65.612H286.728C286.512 65.612 286.428 65.78 286.428 65.984C286.428 66.188 286.512 66.356 286.728 66.356H288.552V69.392C288.552 69.644 288.768 69.752 288.984 69.752C289.2 69.752 289.416 69.644 289.416 69.392V62.072C289.416 61.82 289.2 61.712 288.984 61.712ZM283.008 69.176C282.78 69.176 282.564 69.284 282.564 69.536V71.708C282.564 72.32 282.768 72.512 283.392 72.512H289.416C289.632 72.512 289.728 72.332 289.728 72.128C289.728 71.924 289.632 71.744 289.416 71.744H283.68C283.512 71.744 283.452 71.684 283.452 71.528V69.536C283.452 69.284 283.236 69.176 283.008 69.176ZM136.596 85.424C135.54 85.52 134.568 85.568 133.62 85.604V83.984H135.648C135.852 83.984 135.948 83.816 135.948 83.612C135.948 83.408 135.852 83.24 135.648 83.24H131.592C131.436 83.24 131.364 83.18 131.364 83.012V81.248C131.364 81.08 131.436 81.02 131.592 81.02H135.528C135.732 81.02 135.828 80.852 135.828 80.648C135.828 80.444 135.732 80.276 135.528 80.276H131.328C130.704 80.276 130.5 80.468 130.5 81.08V83.18C130.5 83.792 130.704 83.984 131.328 83.984H132.756V85.64C131.808 85.664 130.872 85.664 129.924 85.664C129.708 85.664 129.612 85.832 129.612 86.036C129.612 86.24 129.708 86.408 129.924 86.408C132.324 86.408 134.436 86.348 136.668 86.156C136.848 86.132 136.944 85.952 136.932 85.748C136.908 85.532 136.788 85.4 136.596 85.424ZM131.916 87.272C131.688 87.272 131.472 87.38 131.472 87.632V89.732C131.472 90.344 131.676 90.536 132.3 90.536H138.588C138.792 90.536 138.888 90.368 138.888 90.164C138.888 89.96 138.792 89.792 138.588 89.792H132.588C132.42 89.792 132.36 89.732 132.36 89.564V87.632C132.36 87.38 132.144 87.272 131.916 87.272ZM138.144 79.712C137.916 79.712 137.712 79.82 137.712 80.072V87.632C137.712 87.884 137.916 87.992 138.144 87.992C138.36 87.992 138.576 87.884 138.576 87.632V80.072C138.576 79.82 138.36 79.712 138.144 79.712ZM147.014 80.636H144.026C143.81 80.636 143.714 80.816 143.714 81.02C143.714 81.224 143.81 81.404 144.026 81.404H146.762C146.918 81.404 146.99 81.464 146.99 81.62V82.664C146.99 84.524 146.738 84.752 143.738 86.828C143.558 86.948 143.558 87.212 143.69 87.392C143.81 87.572 144.062 87.632 144.23 87.512C147.47 85.22 147.842 84.896 147.842 82.7V81.44C147.842 80.828 147.638 80.636 147.014 80.636ZM152.21 79.712C152.006 79.712 151.802 79.82 151.802 80.06V83.48H150.134V80.18C150.134 79.94 149.93 79.832 149.714 79.832C149.51 79.832 149.306 79.94 149.306 80.18V89.132C149.306 89.372 149.51 89.48 149.714 89.48C149.93 89.48 150.134 89.372 150.134 89.132V84.236H151.802V89.636C151.802 89.876 152.006 89.984 152.21 89.984C152.426 89.984 152.63 89.876 152.63 89.636V80.06C152.63 79.82 152.426 79.712 152.21 79.712ZM157.492 80.264C155.656 80.264 154.78 81.464 154.78 82.988C154.78 84.5 155.656 85.7 157.492 85.7C159.328 85.7 160.204 84.5 160.204 82.988C160.204 81.464 159.328 80.264 157.492 80.264ZM157.492 81.02C158.824 81.02 159.352 81.932 159.352 82.988C159.352 84.032 158.824 84.944 157.492 84.944C156.16 84.944 155.632 84.032 155.632 82.988C155.632 81.932 156.16 81.02 157.492 81.02ZM162.772 79.712C162.544 79.712 162.328 79.82 162.328 80.072V87.392C162.328 87.644 162.544 87.752 162.772 87.752C162.988 87.752 163.204 87.644 163.204 87.392V80.072C163.204 79.82 162.988 79.712 162.772 79.712ZM156.844 86.816C156.616 86.816 156.4 86.924 156.4 87.176V89.708C156.4 90.32 156.604 90.512 157.228 90.512H163.204C163.42 90.512 163.516 90.332 163.516 90.128C163.516 89.924 163.42 89.744 163.204 89.744H157.516C157.348 89.744 157.288 89.684 157.288 89.528V87.176C157.288 86.924 157.072 86.816 156.844 86.816ZM171.27 80.36H165.966C165.762 80.36 165.666 80.528 165.666 80.732C165.666 80.948 165.762 81.116 165.966 81.116H168.21V81.992C168.21 82.808 167.982 83.312 167.37 83.804C166.77 84.284 166.218 84.692 165.642 85.1C165.426 85.244 165.438 85.484 165.558 85.652C165.678 85.808 165.894 85.904 166.098 85.76C166.566 85.436 167.142 85.016 167.694 84.572C168.33 84.068 168.594 83.72 168.654 83.456H168.666C168.726 83.708 168.99 84.044 169.614 84.548C170.178 84.98 170.73 85.4 171.018 85.592C171.234 85.748 171.45 85.652 171.558 85.496C171.69 85.328 171.678 85.1 171.474 84.944C171.102 84.68 170.538 84.26 169.938 83.792C169.326 83.3 169.098 82.796 169.098 81.968V81.116H171.27C171.474 81.116 171.57 80.948 171.57 80.732C171.57 80.528 171.474 80.36 171.27 80.36ZM173.766 79.712C173.538 79.712 173.334 79.82 173.334 80.072V82.532H171.282C171.078 82.532 170.982 82.712 170.982 82.916C170.982 83.132 171.078 83.3 171.282 83.3H173.334V85.916C173.334 86.168 173.538 86.276 173.766 86.276C173.982 86.276 174.198 86.168 174.198 85.916V80.072C174.198 79.82 173.982 79.712 173.766 79.712ZM170.862 86.42C168.678 86.42 167.454 87.188 167.454 88.616C167.454 90.044 168.678 90.812 170.862 90.812C173.046 90.812 174.282 90.044 174.282 88.616C174.282 87.188 173.046 86.42 170.862 86.42ZM170.862 87.14C172.602 87.14 173.418 87.704 173.418 88.616C173.418 89.528 172.602 90.092 170.862 90.092C169.134 90.092 168.318 89.528 168.318 88.616C168.318 87.704 169.134 87.14 170.862 87.14ZM178.004 80.24C177.788 80.24 177.572 80.348 177.572 80.6V84.908C177.572 85.52 177.776 85.712 178.4 85.712H180.716V88.112H176.456C176.24 88.112 176.144 88.28 176.144 88.496C176.144 88.7 176.24 88.868 176.456 88.868H185.84C186.056 88.868 186.152 88.7 186.152 88.496C186.152 88.28 186.056 88.112 185.84 88.112H181.592V85.712H183.896C184.52 85.712 184.724 85.52 184.724 84.908V80.6C184.724 80.348 184.508 80.24 184.292 80.24C184.076 80.24 183.86 80.348 183.86 80.6V82.268H178.436V80.6C178.436 80.348 178.22 80.24 178.004 80.24ZM178.436 84.74V83.024H183.86V84.74C183.86 84.896 183.788 84.956 183.632 84.956H178.664C178.508 84.956 178.436 84.896 178.436 84.74ZM191.925 80.24C191.709 80.24 191.493 80.348 191.493 80.6V84.908C191.493 85.52 191.697 85.712 192.321 85.712H194.637V88.112H190.377C190.161 88.112 190.065 88.28 190.065 88.496C190.065 88.7 190.161 88.868 190.377 88.868H199.761C199.977 88.868 200.073 88.7 200.073 88.496C200.073 88.28 199.977 88.112 199.761 88.112H195.513V85.712H197.817C198.441 85.712 198.645 85.52 198.645 84.908V80.6C198.645 80.348 198.429 80.24 198.213 80.24C197.997 80.24 197.781 80.348 197.781 80.6V82.268H192.357V80.6C192.357 80.348 192.141 80.24 191.925 80.24ZM192.357 84.74V83.024H197.781V84.74C197.781 84.896 197.709 84.956 197.553 84.956H192.585C192.429 84.956 192.357 84.896 192.357 84.74ZM209.423 80.204H202.559C202.355 80.204 202.259 80.372 202.259 80.576C202.259 80.78 202.355 80.948 202.559 80.948H205.547V81.26C205.547 81.884 205.235 82.328 204.383 82.724C203.579 83.072 202.823 83.396 202.115 83.672C201.899 83.756 201.875 83.996 201.947 84.176C202.019 84.38 202.187 84.5 202.427 84.416C203.123 84.14 203.807 83.852 204.611 83.492C205.583 83.06 205.907 82.712 205.991 82.376H206.003C206.087 82.7 206.399 83.048 207.383 83.48C208.175 83.84 208.871 84.128 209.555 84.404C209.795 84.488 209.963 84.368 210.035 84.176C210.107 83.996 210.071 83.756 209.867 83.672C209.159 83.396 208.403 83.072 207.599 82.724C206.747 82.328 206.435 81.884 206.435 81.26V80.948H209.423C209.627 80.948 209.723 80.78 209.723 80.576C209.723 80.372 209.627 80.204 209.423 80.204ZM205.991 83.936C205.775 83.936 205.559 84.044 205.559 84.296V85.64H201.287C201.083 85.64 200.987 85.808 200.987 86.012C200.987 86.216 201.083 86.384 201.287 86.384H210.695C210.899 86.384 210.995 86.216 210.995 86.012C210.995 85.808 210.899 85.64 210.695 85.64H206.423V84.296C206.423 84.044 206.219 83.936 205.991 83.936ZM202.859 87.272C202.619 87.272 202.415 87.38 202.415 87.632V89.756C202.415 90.368 202.619 90.56 203.243 90.56H209.471C209.675 90.56 209.771 90.392 209.771 90.188C209.771 89.984 209.675 89.816 209.471 89.816H203.519C203.363 89.816 203.291 89.756 203.291 89.588V87.632C203.291 87.38 203.087 87.272 202.859 87.272ZM219.913 82.208C217.909 82.208 216.733 82.784 216.733 83.936C216.733 85.1 217.909 85.664 219.913 85.664C221.917 85.664 223.093 85.1 223.093 83.936C223.093 82.784 221.917 82.208 219.913 82.208ZM219.913 79.46C219.685 79.46 219.469 79.568 219.469 79.796V80.636H216.073C215.857 80.636 215.761 80.816 215.761 81.02C215.761 81.224 215.857 81.392 216.073 81.392H223.753C223.969 81.392 224.065 81.224 224.065 81.02C224.065 80.816 223.969 80.636 223.753 80.636H220.357V79.796C220.357 79.568 220.141 79.46 219.913 79.46ZM219.913 82.916C221.473 82.916 222.241 83.276 222.241 83.936C222.241 84.608 221.473 84.968 219.913 84.968C218.353 84.968 217.585 84.608 217.585 83.936C217.585 83.276 218.353 82.916 219.913 82.916ZM224.605 86.552H215.221C215.005 86.552 214.909 86.732 214.909 86.936C214.909 87.14 215.005 87.308 215.221 87.308H219.481V90.464C219.481 90.716 219.697 90.824 219.913 90.824C220.141 90.824 220.357 90.716 220.357 90.464V87.308H224.605C224.821 87.308 224.917 87.14 224.917 86.936C224.917 86.732 224.821 86.552 224.605 86.552ZM231.879 80.168C230.091 80.168 229.239 81.308 229.239 82.772C229.239 84.224 230.091 85.364 231.879 85.364C233.667 85.364 234.519 84.224 234.519 82.772C234.519 81.308 233.667 80.168 231.879 80.168ZM231.879 80.924C233.163 80.924 233.667 81.764 233.667 82.772C233.667 83.768 233.163 84.62 231.879 84.62C230.595 84.62 230.091 83.768 230.091 82.772C230.091 81.764 230.595 80.924 231.879 80.924ZM237.375 79.712C237.159 79.712 236.943 79.82 236.943 80.072V81.356H235.227C235.023 81.356 234.927 81.524 234.927 81.728C234.927 81.932 235.023 82.112 235.227 82.112H236.943V83.48H235.227C235.023 83.48 234.927 83.648 234.927 83.852C234.927 84.068 235.023 84.236 235.227 84.236H236.943V85.916C236.943 86.168 237.159 86.276 237.375 86.276C237.591 86.276 237.807 86.168 237.807 85.916V80.072C237.807 79.82 237.591 79.712 237.375 79.712ZM234.471 86.42C232.287 86.42 231.063 87.188 231.063 88.616C231.063 90.044 232.287 90.812 234.471 90.812C236.655 90.812 237.891 90.044 237.891 88.616C237.891 87.188 236.655 86.42 234.471 86.42ZM234.471 87.14C236.211 87.14 237.027 87.704 237.027 88.616C237.027 89.528 236.211 90.092 234.471 90.092C232.743 90.092 231.927 89.528 231.927 88.616C231.927 87.704 232.743 87.14 234.471 87.14ZM249.449 85.256H247.841C248.105 84.248 248.225 83.06 248.225 81.8V81.104C248.225 80.492 248.021 80.3 247.397 80.3H241.373C241.169 80.3 241.073 80.468 241.073 80.684C241.073 80.888 241.169 81.068 241.373 81.068H247.133C247.301 81.068 247.361 81.116 247.361 81.284V81.848C247.361 83.06 247.241 84.152 246.977 85.256H240.065C239.849 85.256 239.753 85.424 239.753 85.64C239.753 85.844 239.849 86.012 240.065 86.012H244.325V90.464C244.325 90.716 244.541 90.824 244.757 90.824C244.985 90.824 245.201 90.716 245.201 90.464V86.012H249.449C249.665 86.012 249.761 85.844 249.761 85.64C249.761 85.424 249.665 85.256 249.449 85.256ZM259.903 86.24C259.531 86.3 259.171 86.336 258.811 86.372V81.356H259.735C259.939 81.356 260.035 81.188 260.035 80.984C260.035 80.792 259.939 80.612 259.735 80.612H254.119C253.915 80.612 253.819 80.792 253.819 80.984C253.819 81.188 253.915 81.356 254.119 81.356H255.067V86.516H254.035C253.819 86.516 253.723 86.696 253.723 86.888C253.723 87.092 253.819 87.26 254.035 87.26C256.579 87.26 258.367 87.212 260.011 86.984C260.203 86.96 260.287 86.768 260.263 86.552C260.227 86.348 260.083 86.216 259.903 86.24ZM255.907 86.516V81.356H257.971V86.444C257.311 86.48 256.627 86.504 255.907 86.516ZM261.619 79.712C261.403 79.712 261.187 79.82 261.187 80.072V89.624C261.187 89.876 261.403 89.984 261.619 89.984C261.847 89.984 262.063 89.876 262.063 89.624V84.2H263.587C263.803 84.2 263.899 84.02 263.899 83.804C263.899 83.6 263.803 83.42 263.587 83.42H262.063V80.072C262.063 79.82 261.847 79.712 261.619 79.712ZM269.289 80.552H265.605C265.389 80.552 265.293 80.732 265.293 80.936C265.293 81.14 265.389 81.32 265.605 81.32H269.025C269.193 81.32 269.253 81.38 269.253 81.536V82.676C269.253 84.332 268.821 84.776 265.329 86.9C265.137 87.02 265.137 87.284 265.257 87.464C265.377 87.644 265.605 87.716 265.785 87.608C269.505 85.316 270.117 84.716 270.117 82.712V81.356C270.117 80.744 269.913 80.552 269.289 80.552ZM273.057 79.712C272.841 79.712 272.625 79.82 272.625 80.072V89.624C272.625 89.876 272.841 89.984 273.057 89.984C273.285 89.984 273.501 89.876 273.501 89.624V80.072C273.501 79.82 273.285 79.712 273.057 79.712Z" fill="black"/>
<path d="M133.736 122.156H129.788C129.164 122.156 128.96 122.348 128.96 122.96V126.236C128.96 126.848 129.164 127.04 129.788 127.04C132.056 127.04 133.544 126.932 134.792 126.764C134.984 126.74 135.068 126.536 135.044 126.332C135.008 126.128 134.876 125.996 134.684 126.02C133.256 126.224 131.828 126.308 130.052 126.308C129.884 126.308 129.824 126.248 129.824 126.092V124.952H133.616C133.82 124.952 133.916 124.784 133.916 124.58C133.916 124.4 133.82 124.232 133.616 124.232H129.824V123.104C129.824 122.948 129.884 122.888 130.052 122.888H133.736C133.94 122.888 134.036 122.72 134.036 122.516C134.036 122.324 133.94 122.156 133.736 122.156ZM136.4 121.712C136.184 121.712 135.968 121.82 135.968 122.072V127.208C135.968 127.46 136.184 127.568 136.4 127.568C136.628 127.568 136.844 127.46 136.844 127.208V124.952H138.368C138.584 124.952 138.68 124.772 138.68 124.568C138.68 124.352 138.584 124.172 138.368 124.172H136.844V122.072C136.844 121.82 136.628 121.712 136.4 121.712ZM136.016 128.168H130.448C130.256 128.168 130.16 128.336 130.16 128.516C130.16 128.708 130.256 128.876 130.448 128.876H135.8C135.932 128.876 135.992 128.936 135.992 129.068V129.872C135.992 130.004 135.932 130.064 135.8 130.064H131.012C130.388 130.064 130.184 130.256 130.184 130.868V131.852C130.184 132.464 130.388 132.656 131.012 132.656H136.844C137.036 132.656 137.132 132.488 137.132 132.296C137.132 132.104 137.036 131.936 136.844 131.936H131.228C131.096 131.936 131.036 131.888 131.036 131.756V130.94C131.036 130.796 131.096 130.748 131.228 130.748H136.016C136.64 130.748 136.844 130.556 136.844 129.944V128.972C136.844 128.36 136.64 128.168 136.016 128.168ZM146.518 129.152C145.45 129.248 144.466 129.308 143.506 129.344V127.532H145.594C145.798 127.532 145.882 127.364 145.882 127.172C145.882 126.98 145.798 126.812 145.594 126.812H141.394C141.238 126.812 141.178 126.752 141.178 126.596V125.348H145.246C145.438 125.348 145.534 125.18 145.534 125C145.534 124.82 145.438 124.652 145.246 124.652H141.178V123.428C141.178 123.272 141.238 123.212 141.394 123.212H145.366C145.558 123.212 145.654 123.044 145.654 122.852C145.654 122.66 145.558 122.48 145.366 122.48H141.166C140.542 122.48 140.338 122.672 140.338 123.284V126.728C140.338 127.34 140.542 127.532 141.166 127.532H142.642V129.368C141.706 129.392 140.794 129.392 139.846 129.392C139.63 129.392 139.534 129.572 139.534 129.776C139.534 129.98 139.63 130.148 139.846 130.148C142.246 130.148 144.358 130.076 146.59 129.884C146.77 129.872 146.866 129.692 146.854 129.476C146.83 129.272 146.71 129.128 146.518 129.152ZM148.066 121.712C147.838 121.712 147.634 121.82 147.634 122.072V131.624C147.634 131.876 147.838 131.984 148.066 131.984C148.282 131.984 148.498 131.876 148.498 131.624V122.072C148.498 121.82 148.282 121.712 148.066 121.712ZM158.304 124.208C156.3 124.208 155.124 124.784 155.124 125.936C155.124 127.1 156.3 127.664 158.304 127.664C160.308 127.664 161.484 127.1 161.484 125.936C161.484 124.784 160.308 124.208 158.304 124.208ZM158.304 121.46C158.076 121.46 157.86 121.568 157.86 121.796V122.636H154.464C154.248 122.636 154.152 122.816 154.152 123.02C154.152 123.224 154.248 123.392 154.464 123.392H162.144C162.36 123.392 162.456 123.224 162.456 123.02C162.456 122.816 162.36 122.636 162.144 122.636H158.748V121.796C158.748 121.568 158.532 121.46 158.304 121.46ZM158.304 124.916C159.864 124.916 160.632 125.276 160.632 125.936C160.632 126.608 159.864 126.968 158.304 126.968C156.744 126.968 155.976 126.608 155.976 125.936C155.976 125.276 156.744 124.916 158.304 124.916ZM162.996 128.552H153.612C153.396 128.552 153.3 128.732 153.3 128.936C153.3 129.14 153.396 129.308 153.612 129.308H157.872V132.464C157.872 132.716 158.088 132.824 158.304 132.824C158.532 132.824 158.748 132.716 158.748 132.464V129.308H162.996C163.212 129.308 163.308 129.14 163.308 128.936C163.308 128.732 163.212 128.552 162.996 128.552ZM170.858 122.636H167.87C167.654 122.636 167.558 122.816 167.558 123.02C167.558 123.224 167.654 123.404 167.87 123.404H170.606C170.762 123.404 170.834 123.464 170.834 123.62V124.664C170.834 126.524 170.582 126.752 167.582 128.828C167.402 128.948 167.402 129.212 167.534 129.392C167.654 129.572 167.906 129.632 168.074 129.512C171.314 127.22 171.686 126.896 171.686 124.7V123.44C171.686 122.828 171.482 122.636 170.858 122.636ZM176.054 121.712C175.85 121.712 175.646 121.82 175.646 122.06V125.48H173.978V122.18C173.978 121.94 173.774 121.832 173.558 121.832C173.354 121.832 173.15 121.94 173.15 122.18V131.132C173.15 131.372 173.354 131.48 173.558 131.48C173.774 131.48 173.978 131.372 173.978 131.132V126.236H175.646V131.636C175.646 131.876 175.85 131.984 176.054 131.984C176.27 131.984 176.474 131.876 176.474 131.636V122.06C176.474 121.82 176.27 121.712 176.054 121.712ZM181.336 122.264C179.5 122.264 178.624 123.464 178.624 124.988C178.624 126.5 179.5 127.7 181.336 127.7C183.172 127.7 184.048 126.5 184.048 124.988C184.048 123.464 183.172 122.264 181.336 122.264ZM181.336 123.02C182.668 123.02 183.196 123.932 183.196 124.988C183.196 126.032 182.668 126.944 181.336 126.944C180.004 126.944 179.476 126.032 179.476 124.988C179.476 123.932 180.004 123.02 181.336 123.02ZM186.616 121.712C186.388 121.712 186.172 121.82 186.172 122.072V129.392C186.172 129.644 186.388 129.752 186.616 129.752C186.832 129.752 187.048 129.644 187.048 129.392V122.072C187.048 121.82 186.832 121.712 186.616 121.712ZM180.688 128.816C180.46 128.816 180.244 128.924 180.244 129.176V131.708C180.244 132.32 180.448 132.512 181.072 132.512H187.048C187.264 132.512 187.36 132.332 187.36 132.128C187.36 131.924 187.264 131.744 187.048 131.744H181.36C181.192 131.744 181.132 131.684 181.132 131.528V129.176C181.132 128.924 180.916 128.816 180.688 128.816ZM195.113 122.36H189.809C189.605 122.36 189.509 122.528 189.509 122.732C189.509 122.948 189.605 123.116 189.809 123.116H192.053V123.992C192.053 124.808 191.825 125.312 191.213 125.804C190.613 126.284 190.061 126.692 189.485 127.1C189.269 127.244 189.281 127.484 189.401 127.652C189.521 127.808 189.737 127.904 189.941 127.76C190.409 127.436 190.985 127.016 191.537 126.572C192.173 126.068 192.437 125.72 192.497 125.456H192.509C192.569 125.708 192.833 126.044 193.457 126.548C194.021 126.98 194.573 127.4 194.861 127.592C195.077 127.748 195.293 127.652 195.401 127.496C195.533 127.328 195.521 127.1 195.317 126.944C194.945 126.68 194.381 126.26 193.781 125.792C193.169 125.3 192.941 124.796 192.941 123.968V123.116H195.113C195.317 123.116 195.413 122.948 195.413 122.732C195.413 122.528 195.317 122.36 195.113 122.36ZM197.609 121.712C197.381 121.712 197.177 121.82 197.177 122.072V124.532H195.125C194.921 124.532 194.825 124.712 194.825 124.916C194.825 125.132 194.921 125.3 195.125 125.3H197.177V127.916C197.177 128.168 197.381 128.276 197.609 128.276C197.825 128.276 198.041 128.168 198.041 127.916V122.072C198.041 121.82 197.825 121.712 197.609 121.712ZM194.705 128.42C192.521 128.42 191.297 129.188 191.297 130.616C191.297 132.044 192.521 132.812 194.705 132.812C196.889 132.812 198.125 132.044 198.125 130.616C198.125 129.188 196.889 128.42 194.705 128.42ZM194.705 129.14C196.445 129.14 197.261 129.704 197.261 130.616C197.261 131.528 196.445 132.092 194.705 132.092C192.977 132.092 192.161 131.528 192.161 130.616C192.161 129.704 192.977 129.14 194.705 129.14ZM201.847 122.24C201.631 122.24 201.415 122.348 201.415 122.6V126.908C201.415 127.52 201.619 127.712 202.243 127.712H204.559V130.112H200.299C200.083 130.112 199.987 130.28 199.987 130.496C199.987 130.7 200.083 130.868 200.299 130.868H209.683C209.899 130.868 209.995 130.7 209.995 130.496C209.995 130.28 209.899 130.112 209.683 130.112H205.435V127.712H207.739C208.363 127.712 208.567 127.52 208.567 126.908V122.6C208.567 122.348 208.351 122.24 208.135 122.24C207.919 122.24 207.703 122.348 207.703 122.6V124.268H202.279V122.6C202.279 122.348 202.063 122.24 201.847 122.24ZM202.279 126.74V125.024H207.703V126.74C207.703 126.896 207.631 126.956 207.475 126.956H202.507C202.351 126.956 202.279 126.896 202.279 126.74ZM212.805 122.012C212.565 122.012 212.361 122.12 212.361 122.372V125.156C212.361 125.768 212.565 125.96 213.189 125.96H219.369C219.573 125.96 219.669 125.78 219.669 125.576C219.669 125.372 219.573 125.204 219.369 125.204H213.465C213.309 125.204 213.237 125.144 213.237 124.988V122.372C213.237 122.12 213.033 122.012 212.805 122.012ZM220.605 127.424H211.221C211.005 127.424 210.909 127.592 210.909 127.808C210.909 128.012 211.005 128.18 211.221 128.18H220.605C220.821 128.18 220.917 128.012 220.917 127.808C220.917 127.592 220.821 127.424 220.605 127.424ZM212.781 129.272C212.541 129.272 212.337 129.38 212.337 129.632V131.756C212.337 132.368 212.541 132.56 213.165 132.56H219.393C219.597 132.56 219.693 132.392 219.693 132.188C219.693 131.984 219.597 131.816 219.393 131.816H213.441C213.285 131.816 213.213 131.756 213.213 131.588V129.632C213.213 129.38 213.009 129.272 212.781 129.272ZM233.279 122.156H226.391C226.199 122.156 226.103 122.324 226.103 122.528C226.103 122.732 226.199 122.9 226.391 122.9H229.391V123.2C229.391 123.788 229.127 124.208 228.239 124.592C227.423 124.952 226.679 125.24 225.995 125.504C225.767 125.588 225.719 125.828 225.791 126.008C225.863 126.212 226.043 126.344 226.295 126.248C226.931 125.996 227.663 125.708 228.455 125.372C229.451 124.94 229.751 124.592 229.835 124.28H229.847C229.943 124.592 230.231 124.94 231.227 125.36C232.019 125.696 232.739 125.984 233.387 126.236C233.627 126.32 233.807 126.212 233.879 126.008C233.951 125.816 233.903 125.588 233.675 125.504C232.991 125.24 232.247 124.952 231.431 124.592C230.543 124.208 230.279 123.788 230.279 123.2V122.9H233.279C233.471 122.9 233.567 122.732 233.567 122.528C233.567 122.324 233.471 122.156 233.279 122.156ZM234.527 127.172H225.143C224.927 127.172 224.831 127.34 224.831 127.544C224.831 127.748 224.927 127.928 225.143 127.928H234.527C234.743 127.928 234.839 127.748 234.839 127.544C234.839 127.34 234.743 127.172 234.527 127.172ZM232.583 129.2H226.403C226.211 129.2 226.115 129.368 226.115 129.572C226.115 129.776 226.211 129.944 226.403 129.944H232.319C232.475 129.944 232.547 129.992 232.547 130.16V132.464C232.547 132.716 232.751 132.824 232.979 132.824C233.207 132.824 233.411 132.716 233.411 132.464V130.004C233.411 129.392 233.207 129.2 232.583 129.2ZM239.269 122.264C239.041 122.264 238.825 122.372 238.825 122.636V124.568C238.825 125.636 238.573 126.188 237.817 126.992C237.289 127.544 236.749 128.072 236.161 128.612C235.993 128.768 236.005 128.996 236.149 129.164C236.293 129.308 236.521 129.38 236.713 129.212C237.277 128.708 237.733 128.252 238.249 127.712C239.005 126.932 239.209 126.596 239.269 126.308H239.281C239.341 126.584 239.533 126.92 240.289 127.7C240.817 128.24 241.249 128.672 241.681 129.056C241.849 129.224 242.089 129.164 242.221 129.032C242.365 128.876 242.413 128.624 242.245 128.48C241.765 128.048 241.249 127.544 240.721 126.992C239.965 126.188 239.713 125.636 239.713 124.568V122.636C239.713 122.372 239.497 122.264 239.269 122.264ZM244.213 121.712C243.997 121.712 243.781 121.82 243.781 122.072V131.624C243.781 131.876 243.997 131.984 244.213 131.984C244.441 131.984 244.657 131.876 244.657 131.624V122.072C244.657 121.82 244.441 121.712 244.213 121.712ZM252.723 122.168C250.935 122.168 250.083 123.308 250.083 124.772C250.083 126.224 250.935 127.364 252.723 127.364C254.511 127.364 255.363 126.224 255.363 124.772C255.363 123.308 254.511 122.168 252.723 122.168ZM252.723 122.924C254.007 122.924 254.511 123.764 254.511 124.772C254.511 125.768 254.007 126.62 252.723 126.62C251.439 126.62 250.935 125.768 250.935 124.772C250.935 123.764 251.439 122.924 252.723 122.924ZM258.219 121.712C258.003 121.712 257.787 121.82 257.787 122.072V123.356H256.071C255.867 123.356 255.771 123.524 255.771 123.728C255.771 123.932 255.867 124.112 256.071 124.112H257.787V125.48H256.071C255.867 125.48 255.771 125.648 255.771 125.852C255.771 126.068 255.867 126.236 256.071 126.236H257.787V127.916C257.787 128.168 258.003 128.276 258.219 128.276C258.435 128.276 258.651 128.168 258.651 127.916V122.072C258.651 121.82 258.435 121.712 258.219 121.712ZM255.315 128.42C253.131 128.42 251.907 129.188 251.907 130.616C251.907 132.044 253.131 132.812 255.315 132.812C257.499 132.812 258.735 132.044 258.735 130.616C258.735 129.188 257.499 128.42 255.315 128.42ZM255.315 129.14C257.055 129.14 257.871 129.704 257.871 130.616C257.871 131.528 257.055 132.092 255.315 132.092C253.587 132.092 252.771 131.528 252.771 130.616C252.771 129.704 253.587 129.14 255.315 129.14ZM270.293 127.256H268.685C268.949 126.248 269.069 125.06 269.069 123.8V123.104C269.069 122.492 268.865 122.3 268.241 122.3H262.217C262.013 122.3 261.917 122.468 261.917 122.684C261.917 122.888 262.013 123.068 262.217 123.068H267.977C268.145 123.068 268.205 123.116 268.205 123.284V123.848C268.205 125.06 268.085 126.152 267.821 127.256H260.909C260.693 127.256 260.597 127.424 260.597 127.64C260.597 127.844 260.693 128.012 260.909 128.012H265.169V132.464C265.169 132.716 265.385 132.824 265.601 132.824C265.829 132.824 266.045 132.716 266.045 132.464V128.012H270.293C270.509 128.012 270.605 127.844 270.605 127.64C270.605 127.424 270.509 127.256 270.293 127.256ZM280.747 128.24C280.375 128.3 280.015 128.336 279.655 128.372V123.356H280.579C280.783 123.356 280.879 123.188 280.879 122.984C280.879 122.792 280.783 122.612 280.579 122.612H274.963C274.759 122.612 274.663 122.792 274.663 122.984C274.663 123.188 274.759 123.356 274.963 123.356H275.911V128.516H274.879C274.663 128.516 274.567 128.696 274.567 128.888C274.567 129.092 274.663 129.26 274.879 129.26C277.423 129.26 279.211 129.212 280.855 128.984C281.047 128.96 281.131 128.768 281.107 128.552C281.071 128.348 280.927 128.216 280.747 128.24ZM276.751 128.516V123.356H278.815V128.444C278.155 128.48 277.471 128.504 276.751 128.516ZM282.463 121.712C282.247 121.712 282.031 121.82 282.031 122.072V131.624C282.031 131.876 282.247 131.984 282.463 131.984C282.691 131.984 282.907 131.876 282.907 131.624V126.2H284.431C284.647 126.2 284.743 126.02 284.743 125.804C284.743 125.6 284.647 125.42 284.431 125.42H282.907V122.072C282.907 121.82 282.691 121.712 282.463 121.712ZM290.132 122.552H286.448C286.232 122.552 286.136 122.732 286.136 122.936C286.136 123.14 286.232 123.32 286.448 123.32H289.868C290.036 123.32 290.096 123.38 290.096 123.536V124.676C290.096 126.332 289.664 126.776 286.172 128.9C285.98 129.02 285.98 129.284 286.1 129.464C286.22 129.644 286.448 129.716 286.628 129.608C290.348 127.316 290.96 126.716 290.96 124.712V123.356C290.96 122.744 290.756 122.552 290.132 122.552ZM293.9 121.712C293.684 121.712 293.468 121.82 293.468 122.072V131.624C293.468 131.876 293.684 131.984 293.9 131.984C294.128 131.984 294.344 131.876 294.344 131.624V122.072C294.344 121.82 294.128 121.712 293.9 121.712Z" fill="black"/>
<circle cx="52" cy="74" r="10" stroke="#34C759" stroke-width="4"/>
<path fill-rule="evenodd" clip-rule="evenodd" d="M51.8995 128.728L58.9703 135.799L61.7987 132.971L54.7279 125.9L61.7992 118.828L58.9708 116L51.8995 123.071L44.8282 116L41.9998 118.828L49.071 125.9L42.0002 132.971L44.8286 135.799L51.8995 128.728Z" fill="#FF3B30"/>
<path d="M38.124 37.444C38.124 37.888 38.496 38.092 38.892 38.092C39.276 38.092 39.648 37.888 39.648 37.444V28.252C39.648 27.808 39.276 27.604 38.892 27.604C38.496 27.604 38.124 27.808 38.124 28.252V31.216H35.976C35.976 31.072 35.988 30.904 35.988 30.736V29.428C35.988 28.672 35.736 28.432 34.968 28.432H31.428C31.056 28.432 30.888 28.732 30.888 29.092C30.888 29.44 31.056 29.74 31.428 29.74H34.188C34.392 29.74 34.464 29.812 34.464 30.016V30.688C34.464 32.152 34.308 32.476 31.044 34.468C30.696 34.684 30.732 35.14 30.924 35.428C31.116 35.716 31.524 35.896 31.86 35.692C34.212 34.24 35.244 33.46 35.688 32.512H38.124V37.444ZM42.5899 35.512C44.4499 35.512 45.6139 35.428 46.1299 35.344C46.4779 35.284 46.5979 34.972 46.5619 34.612C46.5259 34.264 46.3099 34.012 45.9499 34.06C45.1819 34.168 44.1739 34.216 43.3219 34.216C43.1179 34.216 43.0459 34.144 43.0459 33.94V32.836C43.0459 32.632 43.1179 32.56 43.3219 32.56H44.9299C45.6979 32.56 45.9499 32.32 45.9499 31.564V29.416C45.9499 28.66 45.6979 28.42 44.9299 28.42H42.0979C41.7259 28.42 41.5579 28.72 41.5579 29.068C41.5579 29.416 41.7259 29.716 42.0979 29.716H44.1979C44.4019 29.716 44.4739 29.788 44.4739 29.992V31.036C44.4739 31.24 44.4019 31.312 44.1979 31.312H42.5899C41.8219 31.312 41.5699 31.552 41.5699 32.308V34.516C41.5699 35.272 41.8219 35.512 42.5899 35.512ZM48.4699 28.324C48.4699 27.916 48.1219 27.724 47.7619 27.724C47.4139 27.724 47.0659 27.916 47.0659 28.324V36.988C47.0659 37.396 47.4139 37.588 47.7619 37.588C48.1219 37.588 48.4699 37.396 48.4699 36.988V32.512H49.4299V37.492C49.4299 37.9 49.7779 38.092 50.1379 38.092C50.4979 38.092 50.8459 37.9 50.8459 37.492V28.204C50.8459 27.796 50.4979 27.604 50.1379 27.604C49.7779 27.604 49.4299 27.796 49.4299 28.204V31.216H48.4699V28.324ZM56.1758 29.728C56.3798 29.728 56.4518 29.8 56.4518 30.004V30.7C56.4518 32.128 56.2478 32.488 52.9598 34.48C52.6118 34.696 52.6478 35.152 52.8398 35.44C53.0318 35.728 53.4398 35.908 53.7758 35.704C57.4238 33.472 57.9758 32.776 57.9758 30.748V29.416C57.9758 28.66 57.7238 28.42 56.9558 28.42H53.3438C52.9718 28.42 52.8038 28.72 52.8038 29.08C52.8038 29.428 52.9718 29.728 53.3438 29.728H56.1758ZM61.4198 28.252C61.4198 27.808 61.0478 27.604 60.6398 27.604C60.2438 27.604 59.8718 27.808 59.8718 28.252V37.444C59.8718 37.888 60.2438 38.092 60.6398 38.092C61.0478 38.092 61.4198 37.888 61.4198 37.444V28.252ZM72.7736 34.708C73.1336 34.708 73.3016 34.432 73.3016 34.084C73.3016 33.748 73.1336 33.472 72.7736 33.472H68.9816V32.716H71.6696C72.0056 32.716 72.1616 32.44 72.1616 32.116C72.1616 31.792 72.0056 31.516 71.6696 31.516H66.1736C66.0536 31.516 65.9936 31.456 65.9936 31.336V31.072C65.9936 30.952 66.0536 30.892 66.1736 30.892H70.9016C71.6696 30.892 71.9216 30.652 71.9216 29.896V28.924C71.9216 28.168 71.6696 27.928 70.9016 27.928H64.9736C64.6376 27.928 64.4816 28.204 64.4816 28.528C64.4816 28.852 64.6376 29.128 64.9736 29.128H70.2536C70.3736 29.128 70.4336 29.188 70.4336 29.308V29.56C70.4336 29.68 70.3736 29.74 70.2536 29.74H65.5256C64.7576 29.74 64.5056 29.98 64.5056 30.736V31.72C64.5056 32.476 64.7576 32.716 65.5256 32.716H67.4696V33.472H63.6776C63.3176 33.472 63.1496 33.748 63.1496 34.084C63.1496 34.432 63.3176 34.708 63.6776 34.708H72.7736ZM72.0056 36.304C72.0056 35.548 71.7536 35.308 70.9856 35.308H64.8296C64.4696 35.308 64.3016 35.584 64.3016 35.92C64.3016 36.28 64.4696 36.556 64.8296 36.556H70.2056C70.4096 36.556 70.4816 36.628 70.4816 36.832V38.284C70.4816 38.728 70.8536 38.932 71.2496 38.932C71.6336 38.932 72.0056 38.728 72.0056 38.284V36.304Z" fill="black"/>
<line x1="94.5" y1="62" x2="94.5" y2="86" stroke="#D8D8D8"/>
<line x1="94.5" y1="114" x2="94.5" y2="138" stroke="#D8D8D8"/>
</svg>
