<svg width="98" height="59" viewBox="0 0 98 59" fill="none" xmlns="http://www.w3.org/2000/svg">
<path fill-rule="evenodd" clip-rule="evenodd" d="M18 11H92V13.2644C91.9803 13.2632 91.9604 13.2625 91.9404 13.2625C91.3679 13.2625 90.9038 13.769 90.9038 14.3939C90.9038 15.0187 91.3679 15.5252 91.9404 15.5252C91.9604 15.5252 91.9803 15.5245 92 15.5233V17.4126C91.9803 17.4113 91.9604 17.4107 91.9404 17.4107C91.3679 17.4107 90.9038 17.9172 90.9038 18.542C90.9038 19.1668 91.3679 19.6733 91.9404 19.6733C91.9604 19.6733 91.9803 19.6727 92 19.6715V21.5608C91.9885 21.56 91.9769 21.5595 91.9652 21.5592L91.9542 21.559L91.9404 21.5589C91.3679 21.5589 90.9038 22.0654 90.9038 22.6902C90.9038 23.315 91.3679 23.8215 91.9404 23.8215L91.9551 23.8214L91.9726 23.821C91.9818 23.8207 91.9909 23.8202 92 23.8197V25.7089C91.9803 25.7077 91.9604 25.7071 91.9404 25.7071C91.3679 25.7071 90.9038 26.2136 90.9038 26.8384C90.9038 27.4632 91.3679 27.9697 91.9404 27.9697C91.9604 27.9697 91.9803 27.9691 92 27.9679L92 29.5348C89.2386 29.5348 87 31.9755 87 34.9862C87 37.9969 89.2386 40.4376 92 40.4376V42.3017C91.9803 42.3004 91.9604 42.2998 91.9404 42.2998C91.3679 42.2998 90.9038 42.8063 90.9038 43.4311C90.9038 44.0559 91.3679 44.5624 91.9404 44.5624C91.9604 44.5624 91.9803 44.5618 92 44.5606V46.4498C91.9803 46.4486 91.9604 46.448 91.9404 46.448C91.3679 46.448 90.9038 46.9545 90.9038 47.5793C90.9038 48.2041 91.3679 48.7106 91.9404 48.7106C91.9604 48.7106 91.9803 48.71 92 48.7088V50.647C91.9803 50.6458 91.9604 50.6452 91.9404 50.6452C91.3679 50.6452 90.9038 51.1517 90.9038 51.7765C90.9038 52.4013 91.3679 52.9078 91.9404 52.9078C91.9604 52.9078 91.9803 52.9071 92 52.9059V54.8442C91.9803 54.8429 91.9604 54.8423 91.9404 54.8423C91.3679 54.8423 90.9038 55.3488 90.9038 55.9736C90.9038 56.5984 91.3679 57.1049 91.9404 57.1049C91.9604 57.1049 91.9803 57.1043 92 57.1031V59H18V57.1144C18.5659 57.1061 19.0223 56.6028 19.0223 55.9832C19.0223 55.3636 18.5659 54.8603 18 54.852V52.9077C18.5659 52.8993 19.0223 52.3961 19.0223 51.7765C19.0223 51.1568 18.5659 50.6536 18 50.6453V48.7009C18.5659 48.6926 19.0223 48.1893 19.0223 47.5697C19.0223 46.9501 18.5659 46.4468 18 46.4385V44.5527C18.5659 44.5444 19.0223 44.0412 19.0223 43.4215C19.0223 42.8019 18.5659 42.2987 18 42.2903V40.7013C18.3396 40.7765 18.691 40.816 19.0509 40.816C21.9524 40.816 24.3045 38.2489 24.3045 35.0823C24.3045 31.9156 21.9524 29.3485 19.0509 29.3485C18.691 29.3485 18.3396 29.388 18 29.4632V27.9697C18.5724 27.9697 19.0365 27.4632 19.0365 26.8384C19.0365 26.2136 18.5724 25.7071 18 25.7071V23.8215C18.5724 23.8215 19.0365 23.315 19.0365 22.6902C19.0365 22.0654 18.5724 21.559 18 21.5589V19.6733C18.5724 19.6733 19.0365 19.1668 19.0365 18.542C19.0365 17.9173 18.5724 17.4108 18 17.4107V15.5252C18.5724 15.5251 19.0365 15.0186 19.0365 14.3939C19.0365 13.7691 18.5724 13.2626 18 13.2625V11Z" fill="#3882F6"/>
<path d="M38.95 22.85H34.84C34.65 22.85 34.57 22.99 34.57 23.17C34.57 23.35 34.65 23.49 34.84 23.49H38.7L35.94 29.52C35.84 29.73 35.95 29.89 36.11 29.96C36.28 30.03 36.49 30.01 36.58 29.81L39.27 23.89C39.44 23.51 39.48 23.39 39.48 23.24C39.48 22.97 39.34 22.85 38.95 22.85ZM42.9961 22.74C41.2361 22.74 40.5361 23.91 40.5361 26.13V26.68C40.5361 28.9 41.2361 30.07 42.9961 30.07C44.7561 30.07 45.4561 28.9 45.4561 26.68V26.13C45.4561 23.91 44.7561 22.74 42.9961 22.74ZM42.9961 23.42C44.3061 23.42 44.7261 24.3 44.7261 26.2V26.61C44.7261 28.51 44.3061 29.39 42.9961 29.39C41.6861 29.39 41.2661 28.51 41.2661 26.61V26.2C41.2661 24.3 41.6861 23.42 42.9961 23.42ZM47.2822 29.14C47.0322 29.1 46.8022 29.2 46.7622 29.48L46.4922 31.17C46.4622 31.36 46.5322 31.48 46.7222 31.51C46.8922 31.54 47.0422 31.47 47.1022 31.27L47.5922 29.64C47.6822 29.37 47.5422 29.18 47.2822 29.14ZM51.3066 22.74C49.5466 22.74 48.8466 23.91 48.8466 26.13V26.68C48.8466 28.9 49.5466 30.07 51.3066 30.07C53.0666 30.07 53.7666 28.9 53.7666 26.68V26.13C53.7666 23.91 53.0666 22.74 51.3066 22.74ZM51.3066 23.42C52.6166 23.42 53.0366 24.3 53.0366 26.2V26.61C53.0366 28.51 52.6166 29.39 51.3066 29.39C49.9966 29.39 49.5766 28.51 49.5766 26.61V26.2C49.5766 24.3 49.9966 23.42 51.3066 23.42ZM57.3027 22.74C55.5427 22.74 54.8427 23.91 54.8427 26.13V26.68C54.8427 28.9 55.5427 30.07 57.3027 30.07C59.0627 30.07 59.7627 28.9 59.7627 26.68V26.13C59.7627 23.91 59.0627 22.74 57.3027 22.74ZM57.3027 23.42C58.6127 23.42 59.0327 24.3 59.0327 26.2V26.61C59.0327 28.51 58.6127 29.39 57.3027 29.39C55.9927 29.39 55.5727 28.51 55.5727 26.61V26.2C55.5727 24.3 55.9927 23.42 57.3027 23.42ZM63.2988 22.74C61.5388 22.74 60.8388 23.91 60.8388 26.13V26.68C60.8388 28.9 61.5388 30.07 63.2988 30.07C65.0588 30.07 65.7588 28.9 65.7588 26.68V26.13C65.7588 23.91 65.0588 22.74 63.2988 22.74ZM63.2988 23.42C64.6088 23.42 65.0288 24.3 65.0288 26.2V26.61C65.0288 28.51 64.6088 29.39 63.2988 29.39C61.9888 29.39 61.5688 28.51 61.5688 26.61V26.2C61.5688 24.3 61.9888 23.42 63.2988 23.42ZM69.7949 22.45C68.2449 22.45 67.4949 23.13 67.4949 24.07C67.4949 25.01 68.2449 25.69 69.7949 25.69C71.3349 25.69 72.0949 25.01 72.0949 24.07C72.0949 23.13 71.3349 22.45 69.7949 22.45ZM69.7949 23.05C70.8949 23.05 71.3949 23.49 71.3949 24.07C71.3949 24.65 70.8949 25.09 69.7949 25.09C68.6849 25.09 68.1949 24.65 68.1949 24.07C68.1949 23.49 68.6849 23.05 69.7949 23.05ZM73.9149 22.26C73.7249 22.26 73.5549 22.35 73.5549 22.56V27.66H71.7149C71.5549 27.66 71.4749 27.8 71.4749 27.96C71.4749 28.13 71.5549 28.27 71.7149 28.27H73.5549V28.96C73.5549 29.17 73.7249 29.26 73.9149 29.26C74.0949 29.26 74.2749 29.17 74.2749 28.96V22.56C74.2749 22.35 74.0949 22.26 73.9149 22.26ZM72.6149 26.24C70.7449 26.46 68.7949 26.49 67.0549 26.49C66.8849 26.49 66.8049 26.63 66.8049 26.8C66.8049 26.97 66.8849 27.11 67.0549 27.11C67.7949 27.11 68.5749 27.1 69.3349 27.08V28.44C69.3349 28.64 69.5049 28.72 69.6949 28.72C69.8949 28.72 70.0649 28.64 70.0649 28.44V27.05C70.9949 27.01 71.8949 26.95 72.6849 26.85C72.8449 26.83 72.9149 26.69 72.9049 26.51C72.8849 26.34 72.7749 26.22 72.6149 26.24ZM68.6849 28.92C68.4949 28.92 68.3149 29.01 68.3149 29.22V30.61C68.3149 31.12 68.4849 31.28 69.0049 31.28H74.2849C74.4549 31.28 74.5349 31.14 74.5349 30.97C74.5349 30.8 74.4549 30.66 74.2849 30.66H69.2449C69.1049 30.66 69.0549 30.61 69.0549 30.47V29.22C69.0549 29.01 68.8749 28.92 68.6849 28.92Z" fill="white"/>
<path d="M34 26.6H75.3949V27.1H34V26.6Z" fill="white"/>
<path d="M31.6581 37.42C30.8781 37.42 30.6861 37.624 30.6381 38.464L30.4461 41.92C30.4341 42.244 30.6741 42.436 31.0461 42.436C31.3101 42.436 31.4421 42.364 31.6821 42.172C32.0421 41.872 32.5461 41.68 33.0981 41.68C34.0581 41.68 34.6221 42.196 34.6221 43.12V43.192C34.6221 44.08 34.1181 44.692 33.0621 44.692C32.2341 44.692 31.7061 44.524 31.2021 44.224C30.8421 44.008 30.4941 44.092 30.2781 44.452C30.0741 44.788 30.1101 45.208 30.4821 45.448C31.1301 45.868 31.9461 46.084 33.0741 46.084C35.2701 46.084 36.1701 44.584 36.1701 43.204V43.084C36.1701 41.692 35.2581 40.444 33.5901 40.444C32.8701 40.444 32.3781 40.648 31.9821 40.888L32.0781 38.716H35.1261C35.4981 38.716 35.6661 38.428 35.6661 38.068C35.6661 37.72 35.4981 37.42 35.1261 37.42H31.6581ZM40.4915 37.288C38.2715 37.288 37.2995 38.788 37.2995 41.428V41.944C37.2995 44.584 38.2715 46.084 40.4915 46.084C42.7115 46.084 43.6835 44.584 43.6835 41.944V41.428C43.6835 38.788 42.7115 37.288 40.4915 37.288ZM40.4915 38.74C41.7395 38.74 42.1355 39.556 42.1355 41.536V41.836C42.1355 43.816 41.7395 44.632 40.4915 44.632C39.2435 44.632 38.8475 43.816 38.8475 41.836V41.536C38.8475 39.556 39.2435 38.74 40.4915 38.74ZM46.0609 44.68C45.6289 44.596 45.1609 44.752 45.0769 45.232L44.7769 47.056C44.7169 47.392 44.9209 47.608 45.2449 47.668C45.5689 47.728 45.8689 47.62 46.0129 47.236L46.6249 45.58C46.7929 45.124 46.5049 44.764 46.0609 44.68ZM51.1438 37.288C48.9238 37.288 47.9518 38.788 47.9518 41.428V41.944C47.9518 44.584 48.9238 46.084 51.1438 46.084C53.3638 46.084 54.3358 44.584 54.3358 41.944V41.428C54.3358 38.788 53.3638 37.288 51.1438 37.288ZM51.1438 38.74C52.3918 38.74 52.7878 39.556 52.7878 41.536V41.836C52.7878 43.816 52.3918 44.632 51.1438 44.632C49.8958 44.632 49.4998 43.816 49.4998 41.836V41.536C49.4998 39.556 49.8958 38.74 51.1438 38.74ZM58.5852 37.288C56.3652 37.288 55.3932 38.788 55.3932 41.428V41.944C55.3932 44.584 56.3652 46.084 58.5852 46.084C60.8052 46.084 61.7772 44.584 61.7772 41.944V41.428C61.7772 38.788 60.8052 37.288 58.5852 37.288ZM58.5852 38.74C59.8332 38.74 60.2292 39.556 60.2292 41.536V41.836C60.2292 43.816 59.8332 44.632 58.5852 44.632C57.3372 44.632 56.9412 43.816 56.9412 41.836V41.536C56.9412 39.556 57.3372 38.74 58.5852 38.74ZM66.0266 37.288C63.8066 37.288 62.8346 38.788 62.8346 41.428V41.944C62.8346 44.584 63.8066 46.084 66.0266 46.084C68.2466 46.084 69.2186 44.584 69.2186 41.944V41.428C69.2186 38.788 68.2466 37.288 66.0266 37.288ZM66.0266 38.74C67.2746 38.74 67.6706 39.556 67.6706 41.536V41.836C67.6706 43.816 67.2746 44.632 66.0266 44.632C64.7786 44.632 64.3826 43.816 64.3826 41.836V41.536C64.3826 39.556 64.7786 38.74 66.0266 38.74ZM73.912 40.936C75.856 40.936 76.84 40.12 76.84 38.86C76.84 37.6 75.856 36.784 73.912 36.784C71.968 36.784 70.984 37.6 70.984 38.86C70.984 40.12 71.968 40.936 73.912 40.936ZM73.912 39.736C72.892 39.736 72.424 39.4 72.424 38.86C72.424 38.32 72.892 37.984 73.912 37.984C74.932 37.984 75.4 38.32 75.4 38.86C75.4 39.4 74.932 39.736 73.912 39.736ZM78.016 44.5C78.016 44.944 78.388 45.148 78.784 45.148C79.168 45.148 79.54 44.944 79.54 44.5V37.252C79.54 36.808 79.168 36.604 78.784 36.604C78.388 36.604 78.016 36.808 78.016 37.252V43.024H76.396C76.048 43.024 75.88 43.3 75.88 43.636C75.88 43.972 76.048 44.248 76.396 44.248H78.016V44.5ZM70.792 42.784C71.524 42.784 72.292 42.784 73.048 42.76V43.864C73.048 44.272 73.384 44.452 73.804 44.452C74.236 44.452 74.572 44.272 74.572 43.864V42.7C75.508 42.652 76.384 42.58 77.08 42.484C77.44 42.436 77.572 42.136 77.548 41.8C77.524 41.452 77.332 41.188 76.96 41.236C74.944 41.476 72.724 41.512 70.792 41.512C70.432 41.512 70.264 41.8 70.264 42.148C70.264 42.496 70.432 42.784 70.792 42.784ZM73.792 46.372C73.588 46.372 73.516 46.3 73.516 46.096V45.268C73.516 44.824 73.144 44.62 72.748 44.62C72.34 44.62 71.968 44.824 71.968 45.268V46.672C71.968 47.428 72.22 47.668 72.988 47.668H79.264C79.636 47.668 79.804 47.368 79.804 47.02C79.804 46.672 79.636 46.372 79.264 46.372H73.792Z" fill="white"/>
<rect x="54" width="44" height="20" rx="10" fill="#FF334B"/>
<path d="M67.23 8.78C67.23 7.84 66.39 7.3 65.03 7.3C63.67 7.3 62.83 7.84 62.83 8.78C62.83 9.72 63.67 10.26 65.03 10.26C66.39 10.26 67.23 9.72 67.23 8.78ZM62.71 5.92C62.41 5.92 62.27 6.16 62.27 6.44C62.27 6.72 62.41 6.96 62.71 6.96H67.25C67.55 6.96 67.69 6.72 67.69 6.44C67.69 6.16 67.55 5.92 67.25 5.92H65.67V5.49C65.67 5.14 65.37 4.97 65.03 4.97C64.69 4.97 64.39 5.14 64.39 5.49V5.92H62.71ZM66.08 8.78C66.08 9.12 65.74 9.35 65.03 9.35C64.32 9.35 63.98 9.12 63.98 8.78C63.98 8.44 64.32 8.21 65.03 8.21C65.74 8.21 66.08 8.44 66.08 8.78ZM69.55 5.71C69.55 5.34 69.24 5.17 68.92 5.17C68.59 5.17 68.28 5.34 68.28 5.71V9.78C68.28 10.15 68.59 10.32 68.92 10.32C69.24 10.32 69.55 10.15 69.55 9.78V8.3H70.5C70.81 8.3 70.95 8.05 70.95 7.75C70.95 7.45 70.81 7.2 70.5 7.2H69.55V5.71ZM64.04 10.69C63.76 10.69 63.63 10.93 63.63 11.17C63.63 11.43 63.76 11.66 64.04 11.66H68.17C68.27 11.66 68.32 11.71 68.32 11.81V11.98C68.32 12.08 68.27 12.13 68.17 12.13H64.5C63.86 12.13 63.65 12.33 63.65 12.96V13.67C63.65 14.3 63.86 14.5 64.5 14.5H69.34C69.62 14.5 69.75 14.27 69.75 14.01C69.75 13.77 69.62 13.53 69.34 13.53H65.03C64.93 13.53 64.88 13.48 64.88 13.38V13.21C64.88 13.11 64.93 13.06 65.03 13.06H68.7C69.34 13.06 69.55 12.86 69.55 12.23V11.52C69.55 10.89 69.34 10.69 68.7 10.69H64.04ZM71.7216 8C71.7216 9.37 72.5316 10.38 74.1216 10.38C75.7116 10.38 76.5216 9.37 76.5216 8C76.5216 6.63 75.7116 5.62 74.1216 5.62C72.5316 5.62 71.7216 6.63 71.7216 8ZM75.3016 8C75.3016 8.72 74.9816 9.31 74.1216 9.31C73.2616 9.31 72.9416 8.72 72.9416 8C72.9416 7.28 73.2616 6.69 74.1216 6.69C74.9816 6.69 75.3016 7.28 75.3016 8ZM79.0816 5.71C79.0816 5.34 78.7716 5.17 78.4416 5.17C78.1116 5.17 77.8016 5.34 77.8016 5.71V11.45C77.8016 11.82 78.1116 11.99 78.4416 11.99C78.7716 11.99 79.0816 11.82 79.0816 11.45V5.71ZM78.8516 14.37C79.1616 14.37 79.3016 14.12 79.3016 13.83C79.3016 13.53 79.1616 13.28 78.8516 13.28H74.5816C74.4116 13.28 74.3516 13.22 74.3516 13.05V11.65C74.3516 11.28 74.0416 11.11 73.7116 11.11C73.3716 11.11 73.0616 11.28 73.0616 11.65V13.54C73.0616 14.17 73.2716 14.37 73.9116 14.37H78.8516ZM81.6031 12.89C81.6031 14.12 82.7931 14.66 84.7531 14.66C86.7131 14.66 87.9031 14.12 87.9031 12.89C87.9031 11.8 86.9631 11.25 85.3831 11.14V10.46H88.5431C88.8431 10.46 88.9831 10.22 88.9831 9.93C88.9831 9.64 88.8431 9.4 88.5431 9.4H80.9631C80.6631 9.4 80.5231 9.64 80.5231 9.93C80.5231 10.22 80.6631 10.46 80.9631 10.46H84.1231V11.14C82.5331 11.25 81.6031 11.8 81.6031 12.89ZM84.1031 6.54V6.61C84.1031 6.93 83.8831 7.15 83.2931 7.37C82.6531 7.61 82.1031 7.8 81.5831 7.96C81.2931 8.05 81.2131 8.4 81.3131 8.66C81.4231 8.95 81.6831 9.09 82.0031 9C82.4431 8.87 83.0131 8.67 83.5331 8.48C84.4431 8.15 84.6731 7.9 84.7531 7.65H84.7631C84.8531 7.89 85.0631 8.12 85.9731 8.45C86.4931 8.64 87.0631 8.84 87.5031 8.97C87.8231 9.06 88.0831 8.92 88.1931 8.64C88.2931 8.38 88.2031 8.05 87.9231 7.96C87.4031 7.8 86.8531 7.61 86.2131 7.37C85.6231 7.15 85.4031 6.93 85.4031 6.61V6.54H87.5331C87.8331 6.54 87.9731 6.3 87.9731 6.01C87.9731 5.72 87.8331 5.48 87.5331 5.48H81.9731C81.6731 5.48 81.5331 5.72 81.5331 6.01C81.5331 6.3 81.6731 6.54 81.9731 6.54H84.1031ZM86.6331 12.89C86.6331 13.37 86.0931 13.65 84.7531 13.65C83.4131 13.65 82.8731 13.37 82.8731 12.89C82.8731 12.41 83.4131 12.13 84.7531 12.13C86.0931 12.13 86.6331 12.41 86.6331 12.89Z" fill="white"/>
</svg>
