<svg width="106" height="63" viewBox="0 0 106 63" fill="none" xmlns="http://www.w3.org/2000/svg">
<path fill-rule="evenodd" clip-rule="evenodd" d="M28 10H100V11.7925C99.9807 11.7915 99.9613 11.791 99.9418 11.791C99.3848 11.791 98.9333 12.192 98.9333 12.6866C98.9333 13.1813 99.3848 13.5822 99.9418 13.5822C99.9613 13.5822 99.9807 13.5818 100 13.5808V15.0767C99.9807 15.0757 99.9613 15.0752 99.9418 15.0752C99.3848 15.0752 98.9333 15.4762 98.9333 15.9708C98.9333 16.4654 99.3848 16.8664 99.9418 16.8664C99.9613 16.8664 99.9807 16.8659 100 16.865V18.3608L99.9861 18.3602L99.9716 18.3598C99.9617 18.3595 99.9518 18.3594 99.9418 18.3594C99.3848 18.3594 98.9333 18.7604 98.9333 19.255C98.9333 19.7496 99.3848 20.1506 99.9418 20.1506C99.9613 20.1506 99.9807 20.1501 100 20.1491V21.644C99.9807 21.6431 99.9613 21.6426 99.9418 21.6426C99.3848 21.6426 98.9333 22.0436 98.9333 22.5382C98.9333 23.0328 99.3848 23.4338 99.9418 23.4338C99.9613 23.4338 99.9807 23.4333 100 23.4323V24.9282C99.9807 24.9273 99.9613 24.9268 99.9418 24.9268C99.3848 24.9268 98.9333 25.3277 98.9333 25.8224C98.9333 26.317 99.3848 26.718 99.9418 26.718C99.9613 26.718 99.9807 26.7175 100 26.7165V28.2124C99.9807 28.2114 99.9613 28.2109 99.9418 28.2109C99.3848 28.2109 98.9333 28.6119 98.9333 29.1066C98.9333 29.6012 99.3848 30.0022 99.9418 30.0022C99.9613 30.0022 99.9807 30.0017 100 30.0007V31.4966C99.9807 31.4956 99.9613 31.4951 99.9418 31.4951C99.3848 31.4951 98.9333 31.8961 98.9333 32.3907C98.9333 32.8854 99.3848 33.2863 99.9418 33.2863C99.9613 33.2863 99.9807 33.2859 100 33.2849V34.7798C99.9807 34.7788 99.9613 34.7783 99.9418 34.7783C99.3848 34.7783 98.9333 35.1793 98.9333 35.6739C98.9333 36.1686 99.3848 36.5695 99.9418 36.5695C99.9613 36.5695 99.9807 36.5691 100 36.5681V38.0649C99.9807 38.064 99.9613 38.0635 99.9418 38.0635C99.3848 38.0635 98.9333 38.4645 98.9333 38.9591C98.9333 39.4537 99.3848 39.8547 99.9418 39.8547C99.9613 39.8547 99.9807 39.8542 100 39.8532V41.3872C99.9807 41.3862 99.9613 41.3857 99.9418 41.3857C99.3848 41.3857 98.9333 41.7867 98.9333 42.2814C98.9333 42.776 99.3848 43.177 99.9418 43.177C99.9613 43.177 99.9807 43.1765 100 43.1755V44.7105C99.9807 44.7095 99.9613 44.709 99.9418 44.709C99.3848 44.709 98.9333 45.11 98.9333 45.6046C98.9333 46.0992 99.3848 46.5002 99.9418 46.5002C99.9613 46.5002 99.9807 46.4997 100 46.4987V48H28V46.507C28.5507 46.5004 28.9948 46.102 28.9948 45.6114C28.9948 45.1209 28.5507 44.7224 28 44.7159L28 43.1769C28.5507 43.1704 28.9948 42.7719 28.9948 42.2814C28.9948 41.7908 28.5507 41.3924 28 41.3858L28 39.8468C28.5507 39.8403 28.9948 39.4418 28.9948 38.9513C28.9948 38.4607 28.5507 38.0623 28 38.0557L28 36.5626C28.5507 36.5561 28.9948 36.1577 28.9948 35.6671C28.9948 35.1765 28.5507 34.7781 28 34.7716L28 33.2863C28.557 33.2863 29.0085 32.8854 29.0085 32.3907C29.0085 31.8961 28.557 31.4951 28 31.4951V30.0022C28.557 30.0022 29.0085 29.6012 29.0085 29.1066C29.0085 28.6119 28.557 28.2109 28 28.2109V26.718C28.557 26.718 29.0085 26.317 29.0085 25.8224C29.0085 25.3277 28.557 24.9268 28 24.9268V23.4338C28.557 23.4338 29.0085 23.0328 29.0085 22.5382C29.0085 22.0436 28.557 21.6426 28 21.6426V20.1506C28.557 20.1506 29.0085 19.7496 29.0085 19.255C29.0085 18.7604 28.557 18.3594 28 18.3594V16.8664C28.557 16.8664 29.0085 16.4654 29.0085 15.9708C29.0085 15.4762 28.557 15.0752 28 15.0752V13.5822C28.557 13.5822 29.0085 13.1813 29.0085 12.6866C29.0085 12.192 28.557 11.791 28 11.791V10Z" fill="#147152"/>
<path d="M49.47 20.69H41.63C41.46 20.69 41.38 20.83 41.38 21C41.38 21.17 41.46 21.31 41.63 21.31H45.19V22.3C43.51 22.37 42.57 22.88 42.57 23.92C42.57 25.03 43.65 25.55 45.55 25.55C47.45 25.55 48.53 25.03 48.53 23.92C48.53 22.88 47.58 22.37 45.91 22.3V21.31H49.47C49.64 21.31 49.72 21.17 49.72 21C49.72 20.83 49.64 20.69 49.47 20.69ZM45.55 16.08C45.36 16.08 45.18 16.18 45.18 16.39V17.09H42.6C42.44 17.09 42.36 17.23 42.36 17.39C42.36 17.56 42.44 17.7 42.6 17.7H45.18V17.86C45.18 18.33 44.94 18.63 44.21 18.9C43.51 19.15 42.92 19.36 42.34 19.54C42.16 19.6 42.12 19.79 42.17 19.95C42.23 20.12 42.38 20.21 42.58 20.15C43.14 19.96 43.7 19.77 44.37 19.53C45.17 19.24 45.48 18.95 45.55 18.69H45.56C45.62 18.94 45.94 19.23 46.74 19.52C47.41 19.76 47.97 19.95 48.53 20.14C48.73 20.2 48.87 20.11 48.93 19.95C48.98 19.79 48.94 19.6 48.76 19.54C48.18 19.36 47.59 19.15 46.89 18.9C46.16 18.63 45.92 18.33 45.92 17.86V17.7H48.5C48.66 17.7 48.74 17.56 48.74 17.39C48.74 17.23 48.66 17.09 48.5 17.09H45.92V16.39C45.92 16.18 45.74 16.08 45.55 16.08ZM45.55 22.89C47.08 22.89 47.8 23.25 47.8 23.92C47.8 24.6 47.08 24.96 45.55 24.96C44.02 24.96 43.3 24.6 43.3 23.92C43.3 23.25 44.02 22.89 45.55 22.89ZM55.5216 16.88H51.1016C50.9316 16.88 50.8516 17.02 50.8516 17.2C50.8516 17.37 50.9316 17.52 51.1016 17.52H52.9716V18.31C52.9716 19.02 52.7416 19.5 52.2216 19.94C51.7716 20.32 51.2616 20.71 50.8216 21.03C50.6516 21.16 50.6616 21.36 50.7716 21.5C50.8716 21.63 51.0516 21.7 51.2216 21.58C51.6316 21.28 52.0816 20.94 52.5316 20.56C53.0616 20.13 53.2916 19.8 53.3416 19.56H53.3516C53.4016 19.79 53.6216 20.11 54.1516 20.54C54.6116 20.91 54.9916 21.2 55.3016 21.44C55.4716 21.56 55.6616 21.51 55.7616 21.37C55.8716 21.21 55.8616 21.03 55.7016 20.91C55.3816 20.66 54.9116 20.3 54.4616 19.93C53.9416 19.48 53.7116 19.01 53.7116 18.3V17.52H55.5216C55.6916 17.52 55.7716 17.37 55.7716 17.2C55.7716 17.02 55.6916 16.88 55.5216 16.88ZM57.6016 16.26C57.4116 16.26 57.2416 16.35 57.2416 16.56V18.78H55.5316C55.3616 18.78 55.2816 18.93 55.2816 19.1C55.2816 19.28 55.3616 19.42 55.5316 19.42H57.2416V22.66C57.2416 22.87 57.4116 22.96 57.6016 22.96C57.7816 22.96 57.9616 22.87 57.9616 22.66V16.56C57.9616 16.35 57.7816 16.26 57.6016 16.26ZM52.6216 22.18C52.4316 22.18 52.2516 22.27 52.2516 22.48V24.59C52.2516 25.1 52.4216 25.26 52.9416 25.26H57.9616C58.1416 25.26 58.2216 25.11 58.2216 24.94C58.2216 24.77 58.1416 24.62 57.9616 24.62H53.1816C53.0416 24.62 52.9916 24.57 52.9916 24.44V22.48C52.9916 22.27 52.8116 22.18 52.6216 22.18ZM62.2931 18.29C60.9931 18.29 60.2231 18.83 60.2231 19.7C60.2231 20.57 60.9931 21.11 62.2931 21.11C63.5931 21.11 64.3631 20.57 64.3631 19.7C64.3631 18.83 63.5931 18.29 62.2931 18.29ZM62.2931 16.06C62.1031 16.06 61.9231 16.15 61.9231 16.36V17.07H59.8231C59.6531 17.07 59.5731 17.21 59.5731 17.37C59.5731 17.55 59.6531 17.69 59.8231 17.69H64.6631C64.8331 17.69 64.9131 17.55 64.9131 17.37C64.9131 17.21 64.8331 17.07 64.6631 17.07H62.6631V16.36C62.6631 16.15 62.4831 16.06 62.2931 16.06ZM62.2931 18.85C63.1931 18.85 63.6931 19.18 63.6931 19.7C63.6931 20.22 63.1931 20.55 62.2931 20.55C61.3931 20.55 60.8931 20.22 60.8931 19.7C60.8931 19.18 61.3931 18.85 62.2931 18.85ZM66.2131 16.26C66.0231 16.26 65.8531 16.35 65.8531 16.56V21.02C65.8531 21.23 66.0231 21.32 66.2131 21.32C66.3931 21.32 66.5731 21.23 66.5731 21.02V19.05H67.8431C68.0231 19.05 68.1031 18.9 68.1031 18.72C68.1031 18.55 68.0231 18.4 67.8431 18.4H66.5731V16.56C66.5731 16.35 66.3931 16.26 66.2131 16.26ZM65.8831 21.82H61.2431C61.0831 21.82 61.0031 21.96 61.0031 22.1C61.0031 22.26 61.0831 22.4 61.2431 22.4H65.7031C65.8231 22.4 65.8731 22.44 65.8731 22.56V23.16C65.8731 23.27 65.8231 23.32 65.7031 23.32H61.7131C61.1931 23.32 61.0231 23.48 61.0231 23.99V24.71C61.0231 25.22 61.1931 25.38 61.7131 25.38H66.5731C66.7331 25.38 66.8131 25.24 66.8131 25.08C66.8131 24.94 66.7331 24.8 66.5731 24.8H61.8931C61.7831 24.8 61.7331 24.75 61.7331 24.64V24.04C61.7331 23.92 61.7831 23.88 61.8931 23.88H65.8831C66.4031 23.88 66.5731 23.72 66.5731 23.21V22.49C66.5731 21.98 66.4031 21.82 65.8831 21.82ZM71.3447 16.72C69.8147 16.72 69.0847 17.72 69.0847 18.99C69.0847 20.25 69.8147 21.25 71.3447 21.25C72.8747 21.25 73.6047 20.25 73.6047 18.99C73.6047 17.72 72.8747 16.72 71.3447 16.72ZM71.3447 17.35C72.4547 17.35 72.8947 18.11 72.8947 18.99C72.8947 19.86 72.4547 20.62 71.3447 20.62C70.2347 20.62 69.7947 19.86 69.7947 18.99C69.7947 18.11 70.2347 17.35 71.3447 17.35ZM75.7447 16.26C75.5547 16.26 75.3747 16.35 75.3747 16.56V22.66C75.3747 22.87 75.5547 22.96 75.7447 22.96C75.9247 22.96 76.1047 22.87 76.1047 22.66V16.56C76.1047 16.35 75.9247 16.26 75.7447 16.26ZM70.8047 22.18C70.6147 22.18 70.4347 22.27 70.4347 22.48V24.59C70.4347 25.1 70.6047 25.26 71.1247 25.26H76.1047C76.2847 25.26 76.3647 25.11 76.3647 24.94C76.3647 24.77 76.2847 24.62 76.1047 24.62H71.3647C71.2247 24.62 71.1747 24.57 71.1747 24.44V22.48C71.1747 22.27 70.9947 22.18 70.8047 22.18ZM83.7263 19.6C83.4263 19.64 83.1163 19.67 82.8163 19.69C82.9563 19.18 83.0463 18.53 83.0463 17.87V17.34C83.0463 16.83 82.8763 16.67 82.3563 16.67H78.8762C78.6963 16.67 78.6163 16.81 78.6163 16.99C78.6163 17.16 78.6963 17.31 78.8762 17.31H82.1363C82.2663 17.31 82.3263 17.35 82.3263 17.49V17.9C82.3263 18.57 82.2463 19.18 82.0863 19.74C80.7563 19.82 79.4163 19.83 78.1663 19.83C77.9963 19.83 77.9163 19.98 77.9163 20.14C77.9163 20.31 77.9963 20.46 78.1663 20.46C78.9163 20.46 79.6863 20.45 80.4463 20.43V22.23C80.4463 22.44 80.6263 22.53 80.8063 22.53C80.9963 22.53 81.1663 22.44 81.1663 22.23V20.4C82.0963 20.36 82.9963 20.3 83.7963 20.21C83.9563 20.2 84.0263 20.05 84.0163 19.87C83.9963 19.7 83.8863 19.59 83.7263 19.6ZM85.0263 16.26C84.8363 16.26 84.6663 16.35 84.6663 16.56V21.4H82.8263C82.6663 21.4 82.5863 21.53 82.5863 21.7C82.5863 21.87 82.6663 22 82.8263 22H84.6663V22.96C84.6663 23.17 84.8363 23.26 85.0263 23.26C85.2063 23.26 85.3863 23.17 85.3863 22.96V16.56C85.3863 16.35 85.2063 16.26 85.0263 16.26ZM79.7963 22.75C79.6063 22.75 79.4263 22.84 79.4263 23.06V24.61C79.4263 25.12 79.5963 25.28 80.1163 25.28H85.3963C85.5663 25.28 85.6463 25.13 85.6463 24.96C85.6463 24.79 85.5663 24.65 85.3963 24.65H80.3563C80.2163 24.65 80.1663 24.6 80.1663 24.47V23.06C80.1663 22.84 79.9863 22.75 79.7963 22.75Z" fill="white"/>
<path d="M43.8061 31.348C43.5181 31.348 43.2421 31.432 42.8221 31.66L40.7941 32.788C40.4221 32.992 40.3741 33.412 40.5541 33.736C40.7461 34.084 41.1301 34.264 41.5261 34.036L43.0741 33.148V39.364C43.0741 39.82 43.4341 40.024 43.8421 40.024C44.2501 40.024 44.6101 39.82 44.6101 39.364V32.008C44.6101 31.552 44.2621 31.348 43.8061 31.348ZM49.9515 31.288C47.7315 31.288 46.7595 32.788 46.7595 35.428V35.944C46.7595 38.584 47.7315 40.084 49.9515 40.084C52.1715 40.084 53.1435 38.584 53.1435 35.944V35.428C53.1435 32.788 52.1715 31.288 49.9515 31.288ZM49.9515 32.74C51.1995 32.74 51.5955 33.556 51.5955 35.536V35.836C51.5955 37.816 51.1995 38.632 49.9515 38.632C48.7035 38.632 48.3075 37.816 48.3075 35.836V35.536C48.3075 33.556 48.7035 32.74 49.9515 32.74ZM55.0409 38.68C54.6089 38.596 54.1409 38.752 54.0569 39.232L53.7569 41.056C53.6969 41.392 53.9009 41.608 54.2249 41.668C54.5489 41.728 54.8489 41.62 54.9929 41.236L55.6049 39.58C55.7729 39.124 55.4849 38.764 55.0409 38.68ZM59.6438 31.288C57.4238 31.288 56.4518 32.788 56.4518 35.428V35.944C56.4518 38.584 57.4238 40.084 59.6438 40.084C61.8638 40.084 62.8358 38.584 62.8358 35.944V35.428C62.8358 32.788 61.8638 31.288 59.6438 31.288ZM59.6438 32.74C60.8918 32.74 61.2878 33.556 61.2878 35.536V35.836C61.2878 37.816 60.8918 38.632 59.6438 38.632C58.3958 38.632 57.9998 37.816 57.9998 35.836V35.536C57.9998 33.556 58.3958 32.74 59.6438 32.74ZM66.6052 31.288C64.3852 31.288 63.4132 32.788 63.4132 35.428V35.944C63.4132 38.584 64.3852 40.084 66.6052 40.084C68.8252 40.084 69.7972 38.584 69.7972 35.944V35.428C69.7972 32.788 68.8252 31.288 66.6052 31.288ZM66.6052 32.74C67.8532 32.74 68.2492 33.556 68.2492 35.536V35.836C68.2492 37.816 67.8532 38.632 66.6052 38.632C65.3572 38.632 64.9612 37.816 64.9612 35.836V35.536C64.9612 33.556 65.3572 32.74 66.6052 32.74ZM73.5666 31.288C71.3466 31.288 70.3746 32.788 70.3746 35.428V35.944C70.3746 38.584 71.3466 40.084 73.5666 40.084C75.7866 40.084 76.7586 38.584 76.7586 35.944V35.428C76.7586 32.788 75.7866 31.288 73.5666 31.288ZM73.5666 32.74C74.8146 32.74 75.2106 33.556 75.2106 35.536V35.836C75.2106 37.816 74.8146 38.632 73.5666 38.632C72.3186 38.632 71.9226 37.816 71.9226 35.836V35.536C71.9226 33.556 72.3186 32.74 73.5666 32.74ZM80.972 34.936C82.916 34.936 83.9 34.12 83.9 32.86C83.9 31.6 82.916 30.784 80.972 30.784C79.028 30.784 78.044 31.6 78.044 32.86C78.044 34.12 79.028 34.936 80.972 34.936ZM80.972 33.736C79.952 33.736 79.484 33.4 79.484 32.86C79.484 32.32 79.952 31.984 80.972 31.984C81.992 31.984 82.46 32.32 82.46 32.86C82.46 33.4 81.992 33.736 80.972 33.736ZM85.076 38.5C85.076 38.944 85.448 39.148 85.844 39.148C86.228 39.148 86.6 38.944 86.6 38.5V31.252C86.6 30.808 86.228 30.604 85.844 30.604C85.448 30.604 85.076 30.808 85.076 31.252V37.024H83.456C83.108 37.024 82.94 37.3 82.94 37.636C82.94 37.972 83.108 38.248 83.456 38.248H85.076V38.5ZM77.852 36.784C78.584 36.784 79.352 36.784 80.108 36.76V37.864C80.108 38.272 80.444 38.452 80.864 38.452C81.296 38.452 81.632 38.272 81.632 37.864V36.7C82.568 36.652 83.444 36.58 84.14 36.484C84.5 36.436 84.632 36.136 84.608 35.8C84.584 35.452 84.392 35.188 84.02 35.236C82.004 35.476 79.784 35.512 77.852 35.512C77.492 35.512 77.324 35.8 77.324 36.148C77.324 36.496 77.492 36.784 77.852 36.784ZM80.852 40.372C80.648 40.372 80.576 40.3 80.576 40.096V39.268C80.576 38.824 80.204 38.62 79.808 38.62C79.4 38.62 79.028 38.824 79.028 39.268V40.672C79.028 41.428 79.28 41.668 80.048 41.668H86.324C86.696 41.668 86.864 41.368 86.864 41.02C86.864 40.672 86.696 40.372 86.324 40.372H80.852Z" fill="white"/>
<g filter="url(#filter0_d_2693_16188)">
<path fill-rule="evenodd" clip-rule="evenodd" d="M11 17H83V18.7925C82.9807 18.7915 82.9613 18.791 82.9418 18.791C82.3848 18.791 81.9333 19.192 81.9333 19.6866C81.9333 20.1813 82.3848 20.5822 82.9418 20.5822C82.9613 20.5822 82.9807 20.5818 83 20.5808V22.0767C82.9807 22.0757 82.9613 22.0752 82.9418 22.0752C82.3848 22.0752 81.9333 22.4762 81.9333 22.9708C81.9333 23.4654 82.3848 23.8664 82.9418 23.8664C82.9613 23.8664 82.9807 23.8659 83 23.865V25.3608L82.9861 25.3602L82.9716 25.3598C82.9617 25.3595 82.9518 25.3594 82.9418 25.3594C82.3848 25.3594 81.9333 25.7604 81.9333 26.255C81.9333 26.7496 82.3848 27.1506 82.9418 27.1506C82.9613 27.1506 82.9807 27.1501 83 27.1491V28.644C82.9807 28.6431 82.9613 28.6426 82.9418 28.6426C82.3848 28.6426 81.9333 29.0436 81.9333 29.5382C81.9333 30.0328 82.3848 30.4338 82.9418 30.4338C82.9613 30.4338 82.9807 30.4333 83 30.4323V31.9282C82.9807 31.9273 82.9613 31.9268 82.9418 31.9268C82.3848 31.9268 81.9333 32.3277 81.9333 32.8224C81.9333 33.317 82.3848 33.718 82.9418 33.718C82.9613 33.718 82.9807 33.7175 83 33.7165V35.2124C82.9807 35.2114 82.9613 35.2109 82.9418 35.2109C82.3848 35.2109 81.9333 35.6119 81.9333 36.1066C81.9333 36.6012 82.3848 37.0022 82.9418 37.0022C82.9613 37.0022 82.9807 37.0017 83 37.0007V38.4966C82.9807 38.4956 82.9613 38.4951 82.9418 38.4951C82.3848 38.4951 81.9333 38.8961 81.9333 39.3907C81.9333 39.8854 82.3848 40.2863 82.9418 40.2863C82.9613 40.2863 82.9807 40.2859 83 40.2849V41.7798C82.9807 41.7788 82.9613 41.7783 82.9418 41.7783C82.3848 41.7783 81.9333 42.1793 81.9333 42.6739C81.9333 43.1686 82.3848 43.5695 82.9418 43.5695C82.9613 43.5695 82.9807 43.5691 83 43.5681V45.0649C82.9807 45.064 82.9613 45.0635 82.9418 45.0635C82.3848 45.0635 81.9333 45.4645 81.9333 45.9591C81.9333 46.4537 82.3848 46.8547 82.9418 46.8547C82.9613 46.8547 82.9807 46.8542 83 46.8532V48.3872C82.9807 48.3862 82.9613 48.3857 82.9418 48.3857C82.3848 48.3857 81.9333 48.7867 81.9333 49.2814C81.9333 49.776 82.3848 50.177 82.9418 50.177C82.9613 50.177 82.9807 50.1765 83 50.1755V51.7105C82.9807 51.7095 82.9613 51.709 82.9418 51.709C82.3848 51.709 81.9333 52.11 81.9333 52.6046C81.9333 53.0992 82.3848 53.5002 82.9418 53.5002C82.9613 53.5002 82.9807 53.4997 83 53.4987V55H11V53.507C11.5507 53.5004 11.9948 53.102 11.9948 52.6114C11.9948 52.1209 11.5507 51.7224 11 51.7159L11 50.1769C11.5507 50.1704 11.9948 49.7719 11.9948 49.2814C11.9948 48.7908 11.5507 48.3924 11 48.3858L11 46.8468C11.5507 46.8403 11.9948 46.4418 11.9948 45.9513C11.9948 45.4607 11.5507 45.0623 11 45.0557L11 43.5626C11.5507 43.5561 11.9948 43.1577 11.9948 42.6671C11.9948 42.1765 11.5507 41.7781 11 41.7716L11 40.2863C11.557 40.2863 12.0085 39.8854 12.0085 39.3907C12.0085 38.8961 11.557 38.4951 11 38.4951V37.0022C11.557 37.0022 12.0085 36.6012 12.0085 36.1066C12.0085 35.6119 11.557 35.2109 11 35.2109V33.718C11.557 33.718 12.0085 33.317 12.0085 32.8224C12.0085 32.3277 11.557 31.9268 11 31.9268V30.4338C11.557 30.4338 12.0085 30.0328 12.0085 29.5382C12.0085 29.0436 11.557 28.6426 11 28.6426V27.1506C11.557 27.1506 12.0085 26.7496 12.0085 26.255C12.0085 25.7604 11.557 25.3594 11 25.3594V23.8664C11.557 23.8664 12.0085 23.4654 12.0085 22.9708C12.0085 22.4762 11.557 22.0752 11 22.0752V20.5822C11.557 20.5822 12.0085 20.1813 12.0085 19.6866C12.0085 19.192 11.557 18.791 11 18.791V17Z" fill="#147152"/>
<path d="M32.47 27.69H24.63C24.46 27.69 24.38 27.83 24.38 28C24.38 28.17 24.46 28.31 24.63 28.31H28.19V29.3C26.51 29.37 25.57 29.88 25.57 30.92C25.57 32.03 26.65 32.55 28.55 32.55C30.45 32.55 31.53 32.03 31.53 30.92C31.53 29.88 30.58 29.37 28.91 29.3V28.31H32.47C32.64 28.31 32.72 28.17 32.72 28C32.72 27.83 32.64 27.69 32.47 27.69ZM28.55 23.08C28.36 23.08 28.18 23.18 28.18 23.39V24.09H25.6C25.44 24.09 25.36 24.23 25.36 24.39C25.36 24.56 25.44 24.7 25.6 24.7H28.18V24.86C28.18 25.33 27.94 25.63 27.21 25.9C26.51 26.15 25.92 26.36 25.34 26.54C25.16 26.6 25.12 26.79 25.17 26.95C25.23 27.12 25.38 27.21 25.58 27.15C26.14 26.96 26.7 26.77 27.37 26.53C28.17 26.24 28.48 25.95 28.55 25.69H28.56C28.62 25.94 28.94 26.23 29.74 26.52C30.41 26.76 30.97 26.95 31.53 27.14C31.73 27.2 31.87 27.11 31.93 26.95C31.98 26.79 31.94 26.6 31.76 26.54C31.18 26.36 30.59 26.15 29.89 25.9C29.16 25.63 28.92 25.33 28.92 24.86V24.7H31.5C31.66 24.7 31.74 24.56 31.74 24.39C31.74 24.23 31.66 24.09 31.5 24.09H28.92V23.39C28.92 23.18 28.74 23.08 28.55 23.08ZM28.55 29.89C30.08 29.89 30.8 30.25 30.8 30.92C30.8 31.6 30.08 31.96 28.55 31.96C27.02 31.96 26.3 31.6 26.3 30.92C26.3 30.25 27.02 29.89 28.55 29.89ZM38.5216 23.88H34.1016C33.9316 23.88 33.8516 24.02 33.8516 24.2C33.8516 24.37 33.9316 24.52 34.1016 24.52H35.9716V25.31C35.9716 26.02 35.7416 26.5 35.2216 26.94C34.7716 27.32 34.2616 27.71 33.8216 28.03C33.6516 28.16 33.6616 28.36 33.7716 28.5C33.8716 28.63 34.0516 28.7 34.2216 28.58C34.6316 28.28 35.0816 27.94 35.5316 27.56C36.0616 27.13 36.2916 26.8 36.3416 26.56H36.3516C36.4016 26.79 36.6216 27.11 37.1516 27.54C37.6116 27.91 37.9916 28.2 38.3016 28.44C38.4716 28.56 38.6616 28.51 38.7616 28.37C38.8716 28.21 38.8616 28.03 38.7016 27.91C38.3816 27.66 37.9116 27.3 37.4616 26.93C36.9416 26.48 36.7116 26.01 36.7116 25.3V24.52H38.5216C38.6916 24.52 38.7716 24.37 38.7716 24.2C38.7716 24.02 38.6916 23.88 38.5216 23.88ZM40.6016 23.26C40.4116 23.26 40.2416 23.35 40.2416 23.56V25.78H38.5316C38.3616 25.78 38.2816 25.93 38.2816 26.1C38.2816 26.28 38.3616 26.42 38.5316 26.42H40.2416V29.66C40.2416 29.87 40.4116 29.96 40.6016 29.96C40.7816 29.96 40.9616 29.87 40.9616 29.66V23.56C40.9616 23.35 40.7816 23.26 40.6016 23.26ZM35.6216 29.18C35.4316 29.18 35.2516 29.27 35.2516 29.48V31.59C35.2516 32.1 35.4216 32.26 35.9416 32.26H40.9616C41.1416 32.26 41.2216 32.11 41.2216 31.94C41.2216 31.77 41.1416 31.62 40.9616 31.62H36.1816C36.0416 31.62 35.9916 31.57 35.9916 31.44V29.48C35.9916 29.27 35.8116 29.18 35.6216 29.18ZM45.2931 25.29C43.9931 25.29 43.2231 25.83 43.2231 26.7C43.2231 27.57 43.9931 28.11 45.2931 28.11C46.5931 28.11 47.3631 27.57 47.3631 26.7C47.3631 25.83 46.5931 25.29 45.2931 25.29ZM45.2931 23.06C45.1031 23.06 44.9231 23.15 44.9231 23.36V24.07H42.8231C42.6531 24.07 42.5731 24.21 42.5731 24.37C42.5731 24.55 42.6531 24.69 42.8231 24.69H47.6631C47.8331 24.69 47.9131 24.55 47.9131 24.37C47.9131 24.21 47.8331 24.07 47.6631 24.07H45.6631V23.36C45.6631 23.15 45.4831 23.06 45.2931 23.06ZM45.2931 25.85C46.1931 25.85 46.6931 26.18 46.6931 26.7C46.6931 27.22 46.1931 27.55 45.2931 27.55C44.3931 27.55 43.8931 27.22 43.8931 26.7C43.8931 26.18 44.3931 25.85 45.2931 25.85ZM49.2131 23.26C49.0231 23.26 48.8531 23.35 48.8531 23.56V28.02C48.8531 28.23 49.0231 28.32 49.2131 28.32C49.3931 28.32 49.5731 28.23 49.5731 28.02V26.05H50.8431C51.0231 26.05 51.1031 25.9 51.1031 25.72C51.1031 25.55 51.0231 25.4 50.8431 25.4H49.5731V23.56C49.5731 23.35 49.3931 23.26 49.2131 23.26ZM48.8831 28.82H44.2431C44.0831 28.82 44.0031 28.96 44.0031 29.1C44.0031 29.26 44.0831 29.4 44.2431 29.4H48.7031C48.8231 29.4 48.8731 29.44 48.8731 29.56V30.16C48.8731 30.27 48.8231 30.32 48.7031 30.32H44.7131C44.1931 30.32 44.0231 30.48 44.0231 30.99V31.71C44.0231 32.22 44.1931 32.38 44.7131 32.38H49.5731C49.7331 32.38 49.8131 32.24 49.8131 32.08C49.8131 31.94 49.7331 31.8 49.5731 31.8H44.8931C44.7831 31.8 44.7331 31.75 44.7331 31.64V31.04C44.7331 30.92 44.7831 30.88 44.8931 30.88H48.8831C49.4031 30.88 49.5731 30.72 49.5731 30.21V29.49C49.5731 28.98 49.4031 28.82 48.8831 28.82ZM54.3447 23.72C52.8147 23.72 52.0847 24.72 52.0847 25.99C52.0847 27.25 52.8147 28.25 54.3447 28.25C55.8747 28.25 56.6047 27.25 56.6047 25.99C56.6047 24.72 55.8747 23.72 54.3447 23.72ZM54.3447 24.35C55.4547 24.35 55.8947 25.11 55.8947 25.99C55.8947 26.86 55.4547 27.62 54.3447 27.62C53.2347 27.62 52.7947 26.86 52.7947 25.99C52.7947 25.11 53.2347 24.35 54.3447 24.35ZM58.7447 23.26C58.5547 23.26 58.3747 23.35 58.3747 23.56V29.66C58.3747 29.87 58.5547 29.96 58.7447 29.96C58.9247 29.96 59.1047 29.87 59.1047 29.66V23.56C59.1047 23.35 58.9247 23.26 58.7447 23.26ZM53.8047 29.18C53.6147 29.18 53.4347 29.27 53.4347 29.48V31.59C53.4347 32.1 53.6047 32.26 54.1247 32.26H59.1047C59.2847 32.26 59.3647 32.11 59.3647 31.94C59.3647 31.77 59.2847 31.62 59.1047 31.62H54.3647C54.2247 31.62 54.1747 31.57 54.1747 31.44V29.48C54.1747 29.27 53.9947 29.18 53.8047 29.18ZM66.7263 26.6C66.4263 26.64 66.1163 26.67 65.8163 26.69C65.9563 26.18 66.0463 25.53 66.0463 24.87V24.34C66.0463 23.83 65.8763 23.67 65.3563 23.67H61.8762C61.6963 23.67 61.6163 23.81 61.6163 23.99C61.6163 24.16 61.6963 24.31 61.8762 24.31H65.1363C65.2663 24.31 65.3263 24.35 65.3263 24.49V24.9C65.3263 25.57 65.2463 26.18 65.0863 26.74C63.7563 26.82 62.4163 26.83 61.1663 26.83C60.9963 26.83 60.9163 26.98 60.9163 27.14C60.9163 27.31 60.9963 27.46 61.1663 27.46C61.9163 27.46 62.6863 27.45 63.4463 27.43V29.23C63.4463 29.44 63.6263 29.53 63.8063 29.53C63.9963 29.53 64.1663 29.44 64.1663 29.23V27.4C65.0963 27.36 65.9963 27.3 66.7963 27.21C66.9563 27.2 67.0263 27.05 67.0163 26.87C66.9963 26.7 66.8863 26.59 66.7263 26.6ZM68.0263 23.26C67.8363 23.26 67.6663 23.35 67.6663 23.56V28.4H65.8263C65.6663 28.4 65.5863 28.53 65.5863 28.7C65.5863 28.87 65.6663 29 65.8263 29H67.6663V29.96C67.6663 30.17 67.8363 30.26 68.0263 30.26C68.2063 30.26 68.3863 30.17 68.3863 29.96V23.56C68.3863 23.35 68.2063 23.26 68.0263 23.26ZM62.7963 29.75C62.6063 29.75 62.4263 29.84 62.4263 30.06V31.61C62.4263 32.12 62.5963 32.28 63.1163 32.28H68.3963C68.5663 32.28 68.6463 32.13 68.6463 31.96C68.6463 31.79 68.5663 31.65 68.3963 31.65H63.3563C63.2163 31.65 63.1663 31.6 63.1663 31.47V30.06C63.1663 29.84 62.9863 29.75 62.7963 29.75Z" fill="white"/>
<path d="M26.8061 38.348C26.5181 38.348 26.2421 38.432 25.8221 38.66L23.7941 39.788C23.4221 39.992 23.3741 40.412 23.5541 40.736C23.7461 41.084 24.1301 41.264 24.5261 41.036L26.0741 40.148V46.364C26.0741 46.82 26.4341 47.024 26.8421 47.024C27.2501 47.024 27.6101 46.82 27.6101 46.364V39.008C27.6101 38.552 27.2621 38.348 26.8061 38.348ZM32.9515 38.288C30.7315 38.288 29.7595 39.788 29.7595 42.428V42.944C29.7595 45.584 30.7315 47.084 32.9515 47.084C35.1715 47.084 36.1435 45.584 36.1435 42.944V42.428C36.1435 39.788 35.1715 38.288 32.9515 38.288ZM32.9515 39.74C34.1995 39.74 34.5955 40.556 34.5955 42.536V42.836C34.5955 44.816 34.1995 45.632 32.9515 45.632C31.7035 45.632 31.3075 44.816 31.3075 42.836V42.536C31.3075 40.556 31.7035 39.74 32.9515 39.74ZM38.0409 45.68C37.6089 45.596 37.1409 45.752 37.0569 46.232L36.7569 48.056C36.6969 48.392 36.9009 48.608 37.2249 48.668C37.5489 48.728 37.8489 48.62 37.9929 48.236L38.6049 46.58C38.7729 46.124 38.4849 45.764 38.0409 45.68ZM42.6438 38.288C40.4238 38.288 39.4518 39.788 39.4518 42.428V42.944C39.4518 45.584 40.4238 47.084 42.6438 47.084C44.8638 47.084 45.8358 45.584 45.8358 42.944V42.428C45.8358 39.788 44.8638 38.288 42.6438 38.288ZM42.6438 39.74C43.8918 39.74 44.2878 40.556 44.2878 42.536V42.836C44.2878 44.816 43.8918 45.632 42.6438 45.632C41.3958 45.632 40.9998 44.816 40.9998 42.836V42.536C40.9998 40.556 41.3958 39.74 42.6438 39.74ZM49.6052 38.288C47.3852 38.288 46.4132 39.788 46.4132 42.428V42.944C46.4132 45.584 47.3852 47.084 49.6052 47.084C51.8252 47.084 52.7972 45.584 52.7972 42.944V42.428C52.7972 39.788 51.8252 38.288 49.6052 38.288ZM49.6052 39.74C50.8532 39.74 51.2492 40.556 51.2492 42.536V42.836C51.2492 44.816 50.8532 45.632 49.6052 45.632C48.3572 45.632 47.9612 44.816 47.9612 42.836V42.536C47.9612 40.556 48.3572 39.74 49.6052 39.74ZM56.5666 38.288C54.3466 38.288 53.3746 39.788 53.3746 42.428V42.944C53.3746 45.584 54.3466 47.084 56.5666 47.084C58.7866 47.084 59.7586 45.584 59.7586 42.944V42.428C59.7586 39.788 58.7866 38.288 56.5666 38.288ZM56.5666 39.74C57.8146 39.74 58.2106 40.556 58.2106 42.536V42.836C58.2106 44.816 57.8146 45.632 56.5666 45.632C55.3186 45.632 54.9226 44.816 54.9226 42.836V42.536C54.9226 40.556 55.3186 39.74 56.5666 39.74ZM63.972 41.936C65.916 41.936 66.9 41.12 66.9 39.86C66.9 38.6 65.916 37.784 63.972 37.784C62.028 37.784 61.044 38.6 61.044 39.86C61.044 41.12 62.028 41.936 63.972 41.936ZM63.972 40.736C62.952 40.736 62.484 40.4 62.484 39.86C62.484 39.32 62.952 38.984 63.972 38.984C64.992 38.984 65.46 39.32 65.46 39.86C65.46 40.4 64.992 40.736 63.972 40.736ZM68.076 45.5C68.076 45.944 68.448 46.148 68.844 46.148C69.228 46.148 69.6 45.944 69.6 45.5V38.252C69.6 37.808 69.228 37.604 68.844 37.604C68.448 37.604 68.076 37.808 68.076 38.252V44.024H66.456C66.108 44.024 65.94 44.3 65.94 44.636C65.94 44.972 66.108 45.248 66.456 45.248H68.076V45.5ZM60.852 43.784C61.584 43.784 62.352 43.784 63.108 43.76V44.864C63.108 45.272 63.444 45.452 63.864 45.452C64.296 45.452 64.632 45.272 64.632 44.864V43.7C65.568 43.652 66.444 43.58 67.14 43.484C67.5 43.436 67.632 43.136 67.608 42.8C67.584 42.452 67.392 42.188 67.02 42.236C65.004 42.476 62.784 42.512 60.852 42.512C60.492 42.512 60.324 42.8 60.324 43.148C60.324 43.496 60.492 43.784 60.852 43.784ZM63.852 47.372C63.648 47.372 63.576 47.3 63.576 47.096V46.268C63.576 45.824 63.204 45.62 62.808 45.62C62.4 45.62 62.028 45.824 62.028 46.268V47.672C62.028 48.428 62.28 48.668 63.048 48.668H69.324C69.696 48.668 69.864 48.368 69.864 48.02C69.864 47.672 69.696 47.372 69.324 47.372H63.852Z" fill="white"/>
</g>
<rect x="41" width="65" height="20" rx="10" fill="#FF334B"/>
<path d="M52.39 6.95C52.56 6.95 52.62 7.01 52.62 7.18V7.74C52.62 8.93 52.45 9.23 49.73 10.89C49.44 11.07 49.47 11.45 49.63 11.69C49.79 11.93 50.13 12.08 50.41 11.91C53.43 10.05 53.89 9.47 53.89 7.78V6.69C53.89 6.06 53.68 5.86 53.04 5.86H50.05C49.74 5.86 49.6 6.11 49.6 6.41C49.6 6.7 49.74 6.95 50.05 6.95H52.39ZM56.55 8.12V5.71C56.55 5.34 56.24 5.17 55.91 5.17C55.58 5.17 55.27 5.34 55.27 5.71V13.37C55.27 13.74 55.58 13.91 55.91 13.91C56.24 13.91 56.55 13.74 56.55 13.37V9.23H57.49C57.81 9.23 57.95 8.98 57.95 8.67C57.95 8.37 57.81 8.12 57.49 8.12H56.55ZM58.7216 7.74C58.7216 9.03 59.5316 9.96 61.1216 9.96C62.7116 9.96 63.5216 9.03 63.5216 7.74C63.5216 6.45 62.7116 5.52 61.1216 5.52C59.5316 5.52 58.7216 6.45 58.7216 7.74ZM62.3016 7.74C62.3016 8.38 61.9816 8.91 61.1216 8.91C60.2616 8.91 59.9416 8.38 59.9416 7.74C59.9416 7.1 60.2616 6.57 61.1216 6.57C61.9816 6.57 62.3016 7.1 62.3016 7.74ZM66.0816 5.71C66.0816 5.34 65.7716 5.17 65.4416 5.17C65.1116 5.17 64.8016 5.34 64.8016 5.71V9.64C64.8016 10.01 65.1116 10.18 65.4416 10.18C65.7716 10.18 66.0816 10.01 66.0816 9.64V5.71ZM66.0816 11.07C66.0816 10.72 65.7716 10.55 65.4516 10.55C65.1416 10.55 64.8316 10.72 64.8316 11.07V11.73H61.3116V11.07C61.3116 10.72 61.0016 10.55 60.6816 10.55C60.3716 10.55 60.0616 10.72 60.0616 11.07V13.61C60.0616 14.24 60.2716 14.44 60.9116 14.44H65.2316C65.8716 14.44 66.0816 14.24 66.0816 13.61V11.07ZM61.5416 13.41C61.3716 13.41 61.3116 13.35 61.3116 13.18V12.74H64.8316V13.18C64.8316 13.35 64.7716 13.41 64.6016 13.41H61.5416ZM71.1231 6.18C71.1231 5.8 70.8131 5.63 70.4731 5.63C70.1331 5.63 69.8231 5.8 69.8231 6.18V7.58C69.8231 8.38 69.6031 8.89 69.0531 9.5C68.6931 9.89 68.3031 10.28 67.8931 10.66C67.6531 10.89 67.6831 11.23 67.8831 11.46C68.0631 11.66 68.4331 11.8 68.6831 11.57C69.0831 11.2 69.4131 10.87 69.7331 10.53C70.2631 9.97 70.4231 9.74 70.4731 9.5H70.4831C70.5231 9.7 70.6831 9.94 71.2131 10.5C71.5331 10.84 71.8631 11.17 72.1231 11.41C72.3531 11.63 72.7131 11.54 72.9031 11.35C73.1031 11.14 73.1931 10.77 72.9431 10.55C72.6431 10.28 72.2531 9.89 71.8931 9.5C71.3431 8.89 71.1231 8.38 71.1231 7.58V6.18ZM75.1831 5.71C75.1831 5.34 74.8731 5.17 74.5331 5.17C74.2031 5.17 73.8931 5.34 73.8931 5.71V13.37C73.8931 13.74 74.2031 13.91 74.5331 13.91C74.8731 13.91 75.1831 13.74 75.1831 13.37V5.71ZM83.1347 7.01C83.4447 7.01 83.5847 6.76 83.5847 6.47C83.5847 6.17 83.4447 5.92 83.1347 5.92H79.6547C79.3447 5.92 79.2047 6.17 79.2047 6.47C79.2047 6.76 79.3447 7.01 79.6547 7.01H80.8147V7.82C80.8147 8.6 80.6747 9.09 80.2547 9.6C79.9347 9.98 79.5947 10.33 79.2247 10.71C78.9847 10.96 79.0447 11.31 79.2647 11.54C79.4647 11.74 79.8347 11.8 80.0647 11.57C80.3647 11.27 80.6247 10.99 80.8947 10.69C81.3047 10.23 81.4147 9.97 81.4447 9.75H81.4547C81.4947 9.95 81.5847 10.18 81.9947 10.64C82.2647 10.94 82.5347 11.23 82.6747 11.37C82.9047 11.6 83.2447 11.57 83.4647 11.35C83.6747 11.14 83.7147 10.78 83.4947 10.54C83.2847 10.32 82.9547 9.98 82.6347 9.6C82.2147 9.09 82.0747 8.6 82.0747 7.82V7.01H83.1347ZM84.0747 12.99C84.0747 13.33 84.3647 13.49 84.6647 13.49C84.9547 13.49 85.2447 13.33 85.2447 12.99V5.77C85.2447 5.43 84.9547 5.27 84.6647 5.27C84.3647 5.27 84.0747 5.43 84.0747 5.77V8.01H83.3547C83.0447 8.01 82.9047 8.26 82.9047 8.56C82.9047 8.86 83.0447 9.11 83.3547 9.11H84.0747V12.99ZM85.8947 13.41C85.8947 13.75 86.1847 13.91 86.4847 13.91C86.7847 13.91 87.0747 13.75 87.0747 13.41V5.67C87.0747 5.33 86.7847 5.17 86.4847 5.17C86.1847 5.17 85.8947 5.33 85.8947 5.67V13.41ZM94.0763 6.64C94.2463 6.64 94.3063 6.7 94.3063 6.87V7.07C94.3063 7.45 94.2663 7.79 94.1863 8.14C94.1063 8.5 94.3163 8.72 94.6363 8.79C94.9863 8.87 95.3163 8.75 95.4263 8.4C95.5363 8.05 95.5863 7.59 95.5863 7.1V6.37C95.5863 5.74 95.3763 5.54 94.7363 5.54H89.6563C89.3463 5.54 89.2063 5.79 89.2063 6.09C89.2063 6.39 89.3463 6.64 89.6563 6.64H94.0763ZM96.2363 10.35C96.5463 10.35 96.6863 10.1 96.6863 9.81C96.6863 9.53 96.5463 9.28 96.2363 9.28H92.4563V8.16C92.4563 7.8 92.1463 7.63 91.8163 7.63C91.4863 7.63 91.1763 7.8 91.1763 8.16V9.28H88.6763C88.3663 9.28 88.2263 9.53 88.2263 9.81C88.2263 10.1 88.3663 10.35 88.6763 10.35H96.2363ZM89.3063 12.82C89.3063 14.08 90.4963 14.64 92.4563 14.64C94.4163 14.64 95.6063 14.08 95.6063 12.82C95.6063 11.56 94.4163 11 92.4563 11C90.4963 11 89.3063 11.56 89.3063 12.82ZM94.3363 12.82C94.3363 13.33 93.7963 13.63 92.4563 13.63C91.1163 13.63 90.5763 13.33 90.5763 12.82C90.5763 12.31 91.1163 12.01 92.4563 12.01C93.7963 12.01 94.3363 12.31 94.3363 12.82Z" fill="white"/>
<defs>
<filter id="filter0_d_2693_16188" x="11" y="17" width="80" height="46" filterUnits="userSpaceOnUse" color-interpolation-filters="sRGB">
<feFlood flood-opacity="0" result="BackgroundImageFix"/>
<feColorMatrix in="SourceAlpha" type="matrix" values="0 0 0 0 0 0 0 0 0 0 0 0 0 0 0 0 0 0 127 0" result="hardAlpha"/>
<feOffset dx="4" dy="4"/>
<feGaussianBlur stdDeviation="2"/>
<feComposite in2="hardAlpha" operator="out"/>
<feColorMatrix type="matrix" values="0 0 0 0 0 0 0 0 0 0 0 0 0 0 0 0 0 0 0.1 0"/>
<feBlend mode="normal" in2="BackgroundImageFix" result="effect1_dropShadow_2693_16188"/>
<feBlend mode="normal" in="SourceGraphic" in2="effect1_dropShadow_2693_16188" result="shape"/>
</filter>
</defs>
</svg>
