<svg width="48" height="48" viewBox="0 0 48 48" fill="none" xmlns="http://www.w3.org/2000/svg">
<circle cx="24" cy="24" r="24" fill="#BBE1D0"/>
<path d="M13.8375 13.6191C13.8375 13.6191 12.3461 14.1689 12.1284 14.256C11.6349 14.4574 10.9599 14.706 10.236 14.9001C9.76063 15.0108 8.5831 15.1632 7.8501 14.2197C7.8501 14.2197 7.87731 14.3231 7.94626 14.481C8.02972 14.6769 8.17124 14.9527 8.38352 15.214C8.47061 15.3301 8.62121 15.4952 8.85345 15.644C8.85889 15.6476 8.86433 15.6512 8.86977 15.6549C8.88066 15.6621 8.88973 15.6676 8.90062 15.673C8.96594 15.7129 9.03488 15.751 9.10746 15.7837C9.20543 15.8291 9.3143 15.8708 9.43404 15.9053C9.47578 15.9143 9.51751 15.9234 9.56105 15.9325C9.91122 16.025 10.3249 16.0522 10.8184 15.9706C11.6004 15.8871 12.5838 15.6077 13.8067 14.9908C13.8067 14.9908 18.5204 12.7609 21.1912 18.2567L21.877 18.1732C21.877 18.1732 20.8102 11.7122 13.8393 13.6191H13.8375Z" fill="#F99B1D"/>
<path d="M21.1914 18.3441C21.1569 18.3441 21.1242 18.3259 21.1097 18.2933C20.5092 17.0559 19.7526 16.116 18.8635 15.501C18.1541 15.0111 17.3576 14.7244 16.4976 14.65C15.0243 14.5212 13.8559 15.0637 13.845 15.0692C12.74 15.628 11.7258 15.96 10.8313 16.0562C10.365 16.1324 9.93138 16.1197 9.54129 16.0163C9.49775 16.0072 9.45602 15.9981 9.41429 15.989C9.29635 15.9546 9.18568 15.9146 9.07863 15.8657H9.07319C9.00061 15.8312 8.92985 15.7931 8.85546 15.7477C8.84458 15.7423 8.83369 15.735 8.8228 15.7278L8.80466 15.7169C8.55972 15.559 8.40187 15.3849 8.31296 15.2669C8.09161 14.9984 7.94646 14.7099 7.86481 14.5158C7.79405 14.3543 7.76502 14.2472 7.76321 14.2418C7.75232 14.2001 7.77228 14.1583 7.81038 14.1384C7.84848 14.1202 7.89384 14.1293 7.92106 14.1638C8.62504 15.0673 9.76083 14.9186 10.2162 14.8115C10.9601 14.6119 11.6478 14.3525 12.0959 14.171C12.3046 14.0876 13.6508 13.5904 13.8051 13.5342C13.8069 13.5342 13.8141 13.5306 13.816 13.5306C16.0168 12.9282 17.862 13.0915 19.3026 14.015C21.4908 15.4175 21.9607 18.1282 21.9661 18.1554C21.9697 18.179 21.9643 18.2044 21.9498 18.2225C21.9353 18.2425 21.9135 18.2552 21.8899 18.257L21.2041 18.3405C21.2041 18.3405 21.1986 18.3405 21.195 18.3405L21.1914 18.3441ZM15.9297 14.4541C16.1148 14.4505 16.3053 14.4559 16.503 14.474C17.3975 14.5502 18.2231 14.846 18.9597 15.354C19.8633 15.9763 20.6307 16.9198 21.2404 18.159L21.7683 18.0937C21.6667 17.6147 21.0988 15.3794 19.201 14.1638C17.8058 13.2711 16.0095 13.1151 13.8631 13.7011C13.7107 13.7574 12.3645 14.2545 12.1594 14.3361C11.7077 14.5194 11.0127 14.7807 10.2562 14.9839C9.82796 15.0837 8.85002 15.2161 8.09705 14.6029C8.1787 14.768 8.29301 14.9657 8.44904 15.1562C8.5325 15.2651 8.67402 15.423 8.89901 15.5681L8.91352 15.5772C8.92441 15.5844 8.93348 15.5899 8.94255 15.5953C9.00787 15.6352 9.07137 15.6697 9.13306 15.6969C9.13487 15.6969 9.1385 15.6987 9.14032 15.7006C9.24192 15.7477 9.34716 15.7858 9.4542 15.8167C9.49049 15.8257 9.53041 15.8348 9.57395 15.8421H9.5794C9.94408 15.9401 10.3559 15.9528 10.7987 15.8802H10.8041C11.6786 15.7858 12.6729 15.4592 13.7615 14.9077C13.8069 14.8859 14.6959 14.4722 15.9261 14.4505L15.9297 14.4541Z" fill="#704254"/>
<path d="M8.3838 15.2155C8.3838 15.2155 6.39888 12.9239 9.14584 11.0896L9.31457 12.5012L10.3959 12.4812C10.3959 12.4812 7.62721 14.1559 9.10592 15.7852C9.10592 15.7852 8.58338 15.4949 8.38199 15.2155H8.3838Z" fill="#F4791F"/>
<path d="M9.10965 15.8738C9.09513 15.8738 9.07881 15.8702 9.06429 15.8629C9.04252 15.8502 8.52542 15.5617 8.31314 15.2696C8.25145 15.197 7.4622 14.2463 7.62186 13.0669C7.7271 12.2886 8.22424 11.5973 9.09695 11.0149C9.12235 10.9986 9.15501 10.9949 9.18404 11.0076C9.21307 11.0203 9.23121 11.0476 9.23484 11.0784L9.39451 12.4101L10.396 12.392C10.436 12.392 10.4722 12.4174 10.4831 12.4555C10.494 12.4936 10.4777 12.5353 10.4432 12.5571C10.4287 12.5662 8.93547 13.4824 8.77581 14.5783C8.71775 14.9829 8.85019 15.3694 9.17315 15.725C9.20218 15.7577 9.204 15.8067 9.17678 15.8411C9.16045 15.8629 9.13505 15.8738 9.10784 15.8756L9.10965 15.8738ZM9.07518 11.2453C8.32221 11.7806 7.89221 12.3993 7.79786 13.0887C7.64545 14.2082 8.44196 15.1462 8.44922 15.1553C8.44922 15.1571 8.45285 15.1589 8.45466 15.1607C8.52542 15.2587 8.64154 15.3621 8.75948 15.4492C8.60707 15.1644 8.55264 14.8632 8.598 14.5493C8.67057 14.0522 8.98809 13.5387 9.54328 13.0234C9.74831 12.8329 9.94607 12.6787 10.0949 12.5734L9.31467 12.588C9.26931 12.588 9.2294 12.5553 9.22396 12.5099L9.07155 11.2453H9.07518Z" fill="#704254"/>
<path d="M22.6992 12.6968C22.6992 12.6968 30.7804 12.9599 23.0367 18.5772L23.0821 19.1179C23.0821 19.1179 28.5433 17.318 27.8339 13.9034C27.8339 13.9034 27.598 11.356 22.6992 12.6968Z" fill="#F4791F"/>
<path d="M23.0856 19.2054C23.0674 19.2054 23.0493 19.1999 23.0348 19.1909C23.0112 19.1764 22.9967 19.151 22.9949 19.1237L22.9495 18.5831C22.9477 18.5522 22.9604 18.5214 22.9858 18.5032C25.4624 16.707 26.5619 15.2918 26.2571 14.2957C25.8307 12.9023 22.73 12.7861 22.6973 12.7843C22.6537 12.7843 22.6175 12.7498 22.612 12.7063C22.6066 12.6628 22.6338 12.621 22.6773 12.6101C24.7294 12.0477 26.2353 12.084 27.1498 12.719C27.8283 13.1889 27.9172 13.8185 27.9245 13.8893C28.2202 15.3208 27.4782 16.6961 25.7763 17.8628C24.5044 18.7373 23.1255 19.1963 23.111 19.1999C23.1019 19.2036 23.0928 19.2036 23.0838 19.2036L23.0856 19.2054ZM23.1309 18.6193L23.1636 18.9949C23.5083 18.8697 24.6314 18.4361 25.6801 17.714C26.4113 17.2114 26.9629 16.6707 27.3203 16.1083C27.763 15.4115 27.9064 14.6749 27.7503 13.9201C27.7503 13.9165 27.7503 13.9129 27.7503 13.911C27.7503 13.9056 27.6832 13.3014 27.0463 12.8623C26.0956 12.2074 24.5461 12.3507 23.2543 12.6501C24.2032 12.7535 26.0793 13.1 26.4313 14.2449C26.7597 15.3154 25.6511 16.7868 23.1346 18.6193H23.1309Z" fill="#704254"/>
<path d="M22.5777 18.0771C22.5777 18.0771 19.0868 11.0627 26.2282 12.4199C26.2282 12.4199 22.565 12.6812 23.0658 18.2839L22.5777 18.0771Z" fill="#F99B1D"/>
<path d="M23.0679 18.3749C23.0552 18.3749 23.0425 18.3731 23.0316 18.3676L22.5435 18.1608C22.5235 18.1517 22.5072 18.1372 22.4981 18.1191C22.4945 18.11 22.0827 17.2808 21.8323 16.2593C21.4966 14.8931 21.5964 13.8045 22.1226 13.1114C22.8084 12.206 24.1946 11.9447 26.2466 12.3348C26.2902 12.3439 26.321 12.382 26.3192 12.4274C26.3174 12.4727 26.2811 12.5072 26.2358 12.5108C26.2249 12.5108 25.0836 12.607 24.191 13.6575C23.3201 14.6826 22.9717 16.2375 23.1549 18.2787C23.1586 18.3096 23.1441 18.3404 23.1187 18.3585C23.1041 18.3694 23.086 18.3749 23.0679 18.3749ZM22.6433 18.0102L22.9644 18.1463C22.8066 16.1251 23.1749 14.5738 24.0567 13.5378C24.6355 12.8574 25.3032 12.5598 25.7422 12.431C24.0204 12.177 22.8519 12.4419 22.2623 13.2184C21.1265 14.7171 22.4854 17.6836 22.6415 18.012L22.6433 18.0102Z" fill="#704254"/>
<path d="M15.2858 14.8267C15.2858 14.8267 19.2157 12.8327 21.8103 18.1996L21.1988 18.6696C21.1988 18.6696 18.2214 14.6417 14.4766 15.4146L15.2858 14.8285V14.8267Z" fill="#F4791F"/>
<path d="M21.2007 18.7571C21.2007 18.7571 21.1916 18.7571 21.1862 18.7571C21.1626 18.7534 21.1408 18.7407 21.1263 18.7226C21.1191 18.7117 20.3734 17.712 19.1831 16.8211C18.0927 16.0028 16.3926 15.1102 14.493 15.5021C14.4513 15.5111 14.4095 15.4894 14.3932 15.4513C14.3769 15.4132 14.3877 15.3678 14.4222 15.3424L15.2314 14.7564C15.2314 14.7564 15.2387 14.7509 15.2441 14.7491C15.3022 14.7201 16.6956 14.0288 18.3903 14.6003C19.8 15.0757 20.9775 16.2732 21.8902 18.1619C21.9083 18.2 21.8974 18.2454 21.8648 18.2708L21.2533 18.7407C21.2388 18.7516 21.2189 18.7589 21.2007 18.7589V18.7571ZM15.3421 15.2281C16.6376 15.2045 17.9893 15.698 19.2956 16.6796C20.3189 17.4489 21.0193 18.2962 21.2152 18.543L21.6997 18.1728C20.8143 16.3693 19.6839 15.2245 18.3376 14.7691C16.7682 14.2393 15.431 14.8562 15.3312 14.9033L14.8341 15.2644C15.0028 15.2444 15.1716 15.2317 15.3403 15.2281H15.3421Z" fill="#704254"/>
<path d="M21.2947 19.3208C21.2947 19.3208 19.865 17.8039 21.9316 17.911C21.9316 17.911 23.7024 16.8042 23.2452 19.1103L21.2947 19.3208Z" fill="#F99B1D"/>
<path d="M21.2967 19.4097C21.2713 19.4097 21.2477 19.4006 21.2296 19.3825C21.2024 19.3535 20.551 18.6549 20.7669 18.1886C20.8958 17.9129 21.2677 17.7913 21.9064 17.8203C22.0442 17.7405 22.7011 17.3813 23.1075 17.6625C23.4068 17.8693 23.483 18.3628 23.3306 19.1285C23.3234 19.1666 23.2907 19.1956 23.2526 19.1993L21.3022 19.4097C21.3022 19.4097 21.2967 19.4097 21.2949 19.4097H21.2967ZM21.6777 17.9945C21.2659 18.0018 21.0101 18.0925 20.9302 18.263C20.7996 18.5443 21.1516 19.0269 21.3312 19.2283L23.171 19.0305C23.2907 18.3864 23.2345 17.9655 23.0095 17.8113C22.7192 17.6099 22.1676 17.8711 21.9807 17.9891C21.9644 17.9981 21.9481 18.0036 21.9281 18.0018C21.8392 17.9963 21.7558 17.9963 21.6796 17.9963L21.6777 17.9945Z" fill="#704254"/>
<path d="M21.73 17.9065C21.73 17.9065 22.0765 17.8666 22.2979 18.2367L21.73 17.9065Z" fill="white"/>
<path d="M22.3016 18.3271C22.2708 18.3271 22.2399 18.3126 22.2236 18.2835C22.0331 17.966 21.7446 17.995 21.741 17.995C21.692 18.0005 21.6484 17.966 21.6412 17.917C21.6357 17.868 21.6702 17.8245 21.7192 17.8172C21.7355 17.8154 22.1256 17.7755 22.3742 18.191C22.3996 18.2327 22.3851 18.2872 22.3434 18.3126C22.3288 18.3216 22.3143 18.3253 22.2998 18.3253L22.3016 18.3271Z" fill="#704254"/>
<path d="M29.4673 18.2093L13.25 20.353L14.8116 32.1671L31.029 30.0234L29.4673 18.2093Z" fill="#F0C388"/>
<path d="M14.8125 32.2549C14.7926 32.2549 14.7726 32.2494 14.7563 32.2367C14.7382 32.2222 14.7255 32.2004 14.7218 32.1768L13.1597 20.3635C13.1524 20.3145 13.1869 20.2691 13.2359 20.2637L29.4527 18.1191C29.4763 18.1155 29.4999 18.1227 29.518 18.1372C29.5362 18.1517 29.5489 18.1735 29.5525 18.1971L31.1147 30.0105C31.1219 30.0595 31.0875 30.1048 31.0385 30.1103L14.8216 32.2549C14.8216 32.2549 14.8144 32.2549 14.8107 32.2549H14.8125ZM13.3484 20.4288L14.8869 32.0662L30.9278 29.9452L29.3892 18.3078L13.3484 20.4288Z" fill="#704254"/>
<path d="M16.2766 19.9519L13.2476 20.3523L14.8092 32.1663L17.8383 31.7659L16.2766 19.9519Z" fill="#9A743F"/>
<path d="M14.8125 32.2539C14.7926 32.2539 14.7726 32.2485 14.7563 32.2358C14.7382 32.2213 14.7255 32.1995 14.7218 32.1759L13.1597 20.3625C13.1524 20.3135 13.1869 20.2682 13.2359 20.2627L16.2659 19.8618C16.2894 19.8581 16.313 19.8654 16.3312 19.8799C16.3493 19.8944 16.362 19.9162 16.3657 19.9398L17.9278 31.7532C17.9351 31.8021 17.9006 31.8475 17.8516 31.853L14.8216 32.2539C14.8216 32.2539 14.8144 32.2539 14.8107 32.2539H14.8125ZM13.3484 20.4278L14.8869 32.0652L17.7391 31.6878L16.2005 20.0505L13.3484 20.4278Z" fill="#704254"/>
<path d="M22.0609 22.9066L22.2478 23.2024L22.3512 22.8685L22.5363 23.1643L22.6397 22.8286L22.8266 23.1262L22.93 22.7905L23.1169 23.0881L23.2203 22.7524L23.4072 23.0499L23.5106 22.7143L23.6975 23.01L23.8009 22.6762L23.9859 22.9719L24.0894 22.6381L24.3252 23.0118L24.3325 23.01L23.7936 18.9368L21.4077 19.2525L21.9411 23.2913L22.0609 22.9066Z" fill="#F3D6B4"/>
<path d="M14.8145 32.2739C14.7945 32.2739 14.7746 32.2685 14.7583 32.2558C14.7401 32.2412 14.7274 32.2195 14.7238 32.1959L13.1616 20.3825C13.1544 20.3335 13.1888 20.2882 13.2378 20.2827L29.4547 18.1381C29.4783 18.1345 29.5018 18.1418 29.52 18.1563C29.5381 18.1708 29.5508 18.1926 29.5545 18.2161L31.1166 30.0295C31.1239 30.0785 31.0894 30.1239 31.0404 30.1293L14.8236 32.2739C14.8236 32.2739 14.8163 32.2739 14.8127 32.2739H14.8145ZM13.3503 20.4478L14.8889 32.0852L30.9298 29.9642L29.3912 18.3268L13.3503 20.4478Z" fill="#704254"/>
<g opacity="0.3">
<path d="M18.5983 20.5372L16.7852 20.7769L16.8156 21.0071L18.6287 20.7674L18.5983 20.5372Z" fill="#A38E7A"/>
<path d="M18.6432 20.8841L16.8301 21.1238L16.8605 21.354L18.6736 21.1144L18.6432 20.8841Z" fill="#A38E7A"/>
<path d="M18.6901 21.231L16.877 21.4707L16.9074 21.7009L18.7205 21.4613L18.6901 21.231Z" fill="#A38E7A"/>
<path d="M19.3968 20.0778L16.7383 20.4292L16.7687 20.6594L19.4272 20.308L19.3968 20.0778Z" fill="#A38E7A"/>
</g>
<g opacity="0.3">
<path d="M28.8293 18.807L27.5684 18.9736L27.5914 19.1481L28.8523 18.9814L28.8293 18.807Z" fill="#A38E7A"/>
<path d="M28.9045 19.3568L27.6436 19.5234L27.6666 19.6979L28.9275 19.5312L28.9045 19.3568Z" fill="#A38E7A"/>
<path d="M29.0133 20.1824L27.7524 20.3491L27.7755 20.5236L29.0364 20.3569L29.0133 20.1824Z" fill="#A38E7A"/>
<path d="M28.8669 19.0826L27.606 19.2493L27.629 19.4237L28.8899 19.2571L28.8669 19.0826Z" fill="#A38E7A"/>
<path d="M28.9401 19.6324L27.6792 19.7991L27.7023 19.9735L28.9632 19.8069L28.9401 19.6324Z" fill="#A38E7A"/>
<path d="M28.9758 19.9066L27.7148 20.0732L27.7379 20.2477L28.9988 20.081L28.9758 19.9066Z" fill="#A38E7A"/>
</g>
<path d="M39.9107 25.6406C39.8653 25.6406 39.8272 25.6097 39.8218 25.5644C39.8145 25.5154 39.849 25.47 39.898 25.4646L40.2881 25.4101C40.337 25.4029 40.3824 25.4374 40.3878 25.4863C40.3933 25.5353 40.3606 25.5807 40.3116 25.5861L39.9216 25.6406C39.9216 25.6406 39.9143 25.6406 39.9107 25.6406Z" fill="#704254"/>
<path d="M40.5093 25.5577C40.4658 25.5577 40.4258 25.5269 40.4204 25.4815C40.4131 25.4325 40.4476 25.3871 40.4966 25.3817L40.7833 25.3418C40.8323 25.3345 40.8776 25.369 40.8831 25.418C40.8903 25.467 40.8558 25.5123 40.8069 25.5178L40.5202 25.5577C40.5202 25.5577 40.5129 25.5577 40.5093 25.5577Z" fill="#704254"/>
<path d="M40.8086 26.0283C40.7633 26.0283 40.7252 25.9974 40.7197 25.9521C40.7125 25.9031 40.7469 25.8577 40.7959 25.8523L41.4654 25.7598C41.5144 25.7525 41.5598 25.787 41.5652 25.836C41.5725 25.8849 41.538 25.9303 41.489 25.9357L40.8195 26.0283C40.8195 26.0283 40.8122 26.0283 40.8086 26.0283Z" fill="#704254"/>
<path d="M41.8047 25.889C41.7612 25.889 41.7213 25.8581 41.7158 25.8128C41.7086 25.7638 41.743 25.7184 41.792 25.713L42.017 25.6821C42.066 25.6749 42.1113 25.7093 42.1168 25.7583C42.124 25.8073 42.0896 25.8527 42.0406 25.8581L41.8156 25.889C41.8156 25.889 41.8083 25.889 41.8047 25.889Z" fill="#704254"/>
<path d="M13.3009 29.2827C13.3045 29.3045 13.2882 29.3245 13.2683 29.3281C13.2465 29.3317 13.2265 29.3172 13.2229 29.2954L13.2066 29.1811C13.2029 29.1593 13.2193 29.1394 13.2392 29.1358C13.261 29.1321 13.281 29.1485 13.2846 29.1684L13.3009 29.2827Z" fill="#704254"/>
<path d="M13.3683 29.7522C13.3719 29.774 13.3556 29.7939 13.3356 29.7976C13.3139 29.8012 13.2939 29.7849 13.2903 29.7649L13.2739 29.6506C13.2703 29.6288 13.2866 29.6089 13.3066 29.6052C13.3284 29.6016 13.3483 29.6179 13.352 29.6379L13.3683 29.7522Z" fill="#704254"/>
<path d="M13.103 29.4534C13.1248 29.4498 13.1448 29.4661 13.1484 29.486C13.152 29.5078 13.1357 29.5278 13.1157 29.5314L13.0014 29.5477C12.9797 29.5514 12.9597 29.535 12.9561 29.5151C12.9524 29.4933 12.9688 29.4733 12.9887 29.4697L13.103 29.4534Z" fill="#704254"/>
<path d="M13.5733 29.3865C13.595 29.3829 13.615 29.3992 13.6186 29.4192C13.6222 29.4409 13.6059 29.4609 13.586 29.4645L13.4716 29.4808C13.4499 29.4845 13.4299 29.4681 13.4263 29.4482C13.4227 29.4264 13.439 29.4065 13.4589 29.4028L13.5733 29.3865Z" fill="#704254"/>
<path d="M13.1667 29.3274C13.1848 29.3401 13.1884 29.3655 13.1739 29.3818C13.1612 29.4 13.1358 29.4036 13.1195 29.3891L13.027 29.3202C13.0088 29.3075 13.0052 29.2821 13.0197 29.2657C13.0324 29.2476 13.0578 29.244 13.0741 29.2585L13.1667 29.3274Z" fill="#704254"/>
<path d="M13.5461 29.6109C13.5642 29.6236 13.5678 29.649 13.5533 29.6653C13.5406 29.6834 13.5152 29.6871 13.4989 29.6726L13.4064 29.6036C13.3882 29.5909 13.3846 29.5655 13.3991 29.5492C13.4118 29.531 13.4372 29.5274 13.4535 29.5419L13.5461 29.6109Z" fill="#704254"/>
<path d="M13.1487 29.5868C13.1614 29.5686 13.1868 29.565 13.2031 29.5795C13.2213 29.5922 13.2249 29.6176 13.2104 29.6339L13.1414 29.7265C13.1287 29.7446 13.1033 29.7482 13.087 29.7337C13.0689 29.721 13.0652 29.6956 13.0798 29.6793L13.1487 29.5868Z" fill="#704254"/>
<path d="M13.4319 29.2071C13.4446 29.189 13.47 29.1854 13.4863 29.1999C13.5045 29.2126 13.5081 29.238 13.4936 29.2543L13.4246 29.3468C13.4119 29.365 13.3865 29.3686 13.3702 29.3541C13.3521 29.3414 13.3484 29.316 13.363 29.2997L13.4319 29.2071Z" fill="#704254"/>
<path d="M39.1592 24.1396C39.1392 24.1396 39.1192 24.1341 39.1029 24.1214L38.8943 23.9618C38.8562 23.9309 38.8471 23.8765 38.8779 23.8366L39.0376 23.6279C39.0521 23.6098 39.0739 23.5971 39.0975 23.5935C39.1211 23.5898 39.1446 23.5971 39.1628 23.6116L39.3714 23.7713C39.4095 23.8021 39.4186 23.8565 39.3878 23.8965L39.2281 24.1051C39.2136 24.1233 39.1918 24.136 39.1682 24.1396C39.1646 24.1396 39.161 24.1396 39.1592 24.1396ZM39.0739 23.8747L39.141 23.9255L39.1918 23.8584L39.1247 23.8075L39.0739 23.8747Z" fill="#704254"/>
<path d="M39.1141 23.7894C39.0687 23.7894 39.0306 23.7567 39.0234 23.7114L39.0034 23.5553C38.9961 23.5064 39.0306 23.461 39.0796 23.4556C39.1286 23.4483 39.174 23.4828 39.1794 23.5318L39.1994 23.6878C39.2066 23.7368 39.1721 23.7821 39.1232 23.7876C39.1195 23.7876 39.1159 23.7876 39.1123 23.7876L39.1141 23.7894Z" fill="#704254"/>
<path d="M39.3026 23.9342C39.2573 23.9342 39.2192 23.9015 39.2119 23.8562C39.2046 23.8072 39.2391 23.7618 39.2881 23.7564L39.4532 23.7346C39.5022 23.7274 39.5476 23.7618 39.553 23.8108C39.5603 23.8598 39.5258 23.9052 39.4768 23.9106L39.3117 23.9324C39.3117 23.9324 39.3044 23.9324 39.3008 23.9324L39.3026 23.9342Z" fill="#704254"/>
<path d="M39.1774 24.2763C39.1321 24.2763 39.094 24.2436 39.0867 24.1983L39.0649 24.0368C39.0577 23.9878 39.0921 23.9424 39.1411 23.937C39.1901 23.9297 39.2355 23.9642 39.2409 24.0132L39.2627 24.1747C39.27 24.2237 39.2355 24.269 39.1865 24.2745C39.1829 24.2745 39.1792 24.2745 39.1756 24.2745L39.1774 24.2763Z" fill="#704254"/>
<path d="M38.8129 23.9985C38.7675 23.9985 38.7294 23.9659 38.7222 23.9205C38.7149 23.8715 38.7494 23.8262 38.7984 23.8207L38.9544 23.8008C39.0034 23.7935 39.0487 23.828 39.0542 23.877C39.0614 23.926 39.027 23.9713 38.978 23.9768L38.8219 23.9967C38.8219 23.9967 38.8147 23.9967 38.8111 23.9967L38.8129 23.9985Z" fill="#704254"/>
<path d="M10.9131 31.0515C10.8696 31.0515 10.8297 31.0206 10.8242 30.9752C10.817 30.9263 10.8514 30.8809 10.9004 30.8736L11.1744 30.8337C11.2234 30.8265 11.2687 30.8609 11.276 30.9099C11.2832 30.9589 11.2488 31.0043 11.1998 31.0115L10.9258 31.0515C10.9258 31.0515 10.9186 31.0515 10.9149 31.0515H10.9131Z" fill="#704254"/>
<path d="M11.334 30.9915C11.2905 30.9915 11.2505 30.9606 11.2451 30.9153C11.2378 30.8663 11.2723 30.8209 11.3213 30.8137L11.5227 30.7847C11.5717 30.7774 11.6171 30.8119 11.6243 30.8609C11.6316 30.9098 11.5971 30.9552 11.5481 30.9625L11.3467 30.9915C11.3467 30.9915 11.3395 30.9915 11.3358 30.9915H11.334Z" fill="#704254"/>
<path d="M11.5684 31.4693C11.5248 31.4693 11.4849 31.4384 11.4795 31.3931C11.4722 31.3441 11.5067 31.2987 11.5557 31.2915L12.0256 31.2244C12.0746 31.2171 12.12 31.2516 12.1272 31.3006C12.1345 31.3495 12.1 31.3949 12.051 31.4022L11.5811 31.4693C11.5811 31.4693 11.5738 31.4693 11.5702 31.4693H11.5684Z" fill="#704254"/>
<path d="M12.2671 31.37C12.2236 31.37 12.1837 31.3391 12.1782 31.2938C12.171 31.2448 12.2054 31.1994 12.2544 31.1922L12.4123 31.1704C12.4613 31.1631 12.5066 31.1976 12.5139 31.2466C12.5211 31.2956 12.4867 31.341 12.4377 31.3482L12.2798 31.37C12.2798 31.37 12.2726 31.37 12.2689 31.37H12.2671Z" fill="#704254"/>
<path d="M32.7675 34.2614C32.7221 34.2614 32.684 34.2288 32.6767 34.1834C32.6695 34.1344 32.704 34.0891 32.7529 34.0836L33.0287 34.0474C33.0777 34.0401 33.1231 34.0746 33.1285 34.1236C33.1358 34.1725 33.1013 34.2179 33.0523 34.2233L32.7765 34.2596C32.7765 34.2596 32.7693 34.2596 32.7657 34.2596L32.7675 34.2614Z" fill="#704254"/>
<path d="M33.1903 34.2075C33.145 34.2075 33.1069 34.1748 33.0996 34.1294C33.0923 34.0805 33.1268 34.0351 33.1758 34.0296L33.3772 34.0024C33.4262 33.9952 33.4715 34.0296 33.477 34.0786C33.4842 34.1276 33.4498 34.173 33.4008 34.1784L33.1994 34.2056C33.1994 34.2056 33.1921 34.2056 33.1885 34.2056L33.1903 34.2075Z" fill="#704254"/>
<path d="M32.1596 34.8889C32.1142 34.8889 32.0761 34.8563 32.0688 34.8109C32.0616 34.7619 32.0961 34.7166 32.145 34.7111L32.7819 34.6277C32.8309 34.6204 32.8762 34.6549 32.8817 34.7039C32.8889 34.7529 32.8545 34.7982 32.8055 34.8037L32.1686 34.8871C32.1686 34.8871 32.1614 34.8871 32.1577 34.8871L32.1596 34.8889Z" fill="#704254"/>
<path d="M31.6351 34.9576C31.5898 34.9576 31.5517 34.9249 31.5444 34.8795C31.5372 34.8306 31.5716 34.7852 31.6206 34.7798L31.8347 34.7525C31.8837 34.7471 31.9291 34.7798 31.9345 34.8287C31.9418 34.8777 31.9073 34.9231 31.8583 34.9285L31.6442 34.9558C31.6442 34.9558 31.637 34.9558 31.6333 34.9558L31.6351 34.9576Z" fill="#704254"/>
<path d="M30.7024 34.6312C30.706 34.653 30.6897 34.673 30.6679 34.6748C30.6462 34.6784 30.6262 34.6621 30.6244 34.6403L30.6099 34.526C30.6063 34.5042 30.6226 34.4843 30.6444 34.4824C30.6661 34.4788 30.6861 34.4951 30.6879 34.5169L30.7024 34.6312Z" fill="#704254"/>
<path d="M30.7639 35.1014C30.7676 35.1232 30.7512 35.1432 30.7295 35.145C30.7077 35.1486 30.6877 35.1323 30.6859 35.1105L30.6714 34.9962C30.6678 34.9744 30.6841 34.9545 30.7059 34.9527C30.7277 34.949 30.7476 34.9654 30.7494 34.9871L30.7639 35.1014Z" fill="#704254"/>
<path d="M30.5048 34.7984C30.5265 34.7947 30.5465 34.8111 30.5483 34.8328C30.5519 34.8546 30.5356 34.8746 30.5138 34.8764L30.3995 34.8909C30.3777 34.8945 30.3578 34.8782 30.356 34.8564C30.3523 34.8346 30.3687 34.8147 30.3904 34.8129L30.5048 34.7984Z" fill="#704254"/>
<path d="M30.9745 34.7366C30.9963 34.733 31.0162 34.7493 31.018 34.7711C31.0217 34.7928 31.0053 34.8128 30.9836 34.8146L30.8692 34.8291C30.8475 34.8328 30.8275 34.8164 30.8257 34.7946C30.8221 34.7729 30.8384 34.7529 30.8602 34.7511L30.9745 34.7366Z" fill="#704254"/>
<path d="M30.5701 34.6731C30.5865 34.6858 30.5901 34.7112 30.5774 34.7276C30.5647 34.7439 30.5393 34.7475 30.523 34.7348L30.4304 34.6641C30.4141 34.6514 30.4105 34.626 30.4232 34.6096C30.4359 34.5933 30.4613 34.5897 30.4776 34.6024L30.5701 34.6731Z" fill="#704254"/>
<path d="M30.9456 34.9637C30.9638 34.9764 30.9656 35.0018 30.9529 35.0181C30.9402 35.0363 30.9148 35.0381 30.8984 35.0254L30.8059 34.9546C30.7896 34.9419 30.786 34.9165 30.7987 34.9002C30.8114 34.8821 30.8368 34.8803 30.8531 34.893L30.9456 34.9637Z" fill="#704254"/>
<path d="M30.5467 34.9314C30.5594 34.9151 30.5848 34.9114 30.6011 34.9241C30.6174 34.9368 30.6211 34.9622 30.6083 34.9786L30.5376 35.0711C30.5249 35.0892 30.4995 35.0911 30.4832 35.0784C30.4668 35.0657 30.4632 35.0403 30.4759 35.0239L30.5467 34.9314Z" fill="#704254"/>
<path d="M30.8368 34.5557C30.8495 34.5393 30.8749 34.5357 30.8912 34.5484C30.9093 34.5611 30.9112 34.5865 30.8985 34.6047L30.8277 34.6972C30.815 34.7135 30.7896 34.7171 30.7733 34.7044C30.7551 34.6917 30.7533 34.6663 30.766 34.65L30.8368 34.5575V34.5557Z" fill="#704254"/>
<path d="M16.4728 36.2512C16.4528 36.2512 16.4328 36.2439 16.4165 36.2312L16.2115 36.0679C16.1734 36.0371 16.1661 35.9808 16.197 35.9427L16.3603 35.7377C16.3748 35.7195 16.3966 35.7068 16.4201 35.705C16.4437 35.7014 16.4673 35.7087 16.4855 35.7232L16.6905 35.8865C16.7286 35.9173 16.7358 35.9736 16.705 36.0117L16.5417 36.2167C16.5272 36.2348 16.5054 36.2475 16.4818 36.2493C16.4782 36.2493 16.4764 36.2493 16.4728 36.2493V36.2512ZM16.3911 35.9844L16.4564 36.0371L16.509 35.9717L16.4437 35.9191L16.3911 35.9844Z" fill="#704254"/>
<path d="M16.4327 35.8989C16.3873 35.8989 16.3474 35.8662 16.342 35.819L16.3238 35.663C16.3184 35.614 16.3528 35.5705 16.4018 35.565C16.4508 35.5596 16.4944 35.594 16.4998 35.643L16.5179 35.7991C16.5234 35.8481 16.4889 35.8916 16.4399 35.897C16.4363 35.897 16.4345 35.897 16.4309 35.897L16.4327 35.8989Z" fill="#704254"/>
<path d="M16.6196 36.0461C16.5742 36.0461 16.5343 36.0135 16.5289 35.9663C16.5234 35.9173 16.5579 35.8738 16.6069 35.8683L16.772 35.8502C16.821 35.8447 16.8645 35.8792 16.87 35.9282C16.8754 35.9772 16.841 36.0207 16.792 36.0262L16.6269 36.0443C16.6269 36.0443 16.6214 36.0443 16.6178 36.0443L16.6196 36.0461Z" fill="#704254"/>
<path d="M16.4874 36.3855C16.442 36.3855 16.4021 36.3528 16.3966 36.3057L16.3785 36.1442C16.3731 36.0952 16.4075 36.0517 16.4565 36.0462C16.5055 36.0408 16.549 36.0752 16.5545 36.1242L16.5726 36.2857C16.5781 36.3347 16.5436 36.3782 16.4946 36.3837C16.491 36.3837 16.4892 36.3837 16.4855 36.3837L16.4874 36.3855Z" fill="#704254"/>
<path d="M16.1279 36.1018C16.0825 36.1018 16.0426 36.0691 16.0372 36.022C16.0317 35.973 16.0662 35.9294 16.1152 35.924L16.2712 35.9058C16.3202 35.9004 16.3638 35.9349 16.3692 35.9839C16.3747 36.0328 16.3402 36.0764 16.2912 36.0818L16.1352 36.1C16.1352 36.1 16.1297 36.1 16.1261 36.1L16.1279 36.1018Z" fill="#704254"/>
<path d="M14.8305 35.6666C14.7852 35.6666 14.7453 35.6339 14.7398 35.5868C14.7344 35.5378 14.7689 35.4942 14.8178 35.4888L15.2097 35.4434C15.2587 35.438 15.3023 35.4725 15.3077 35.5215C15.3132 35.5704 15.2787 35.614 15.2297 35.6194L14.8378 35.6648C14.8378 35.6648 14.8324 35.6648 14.8287 35.6648L14.8305 35.6666Z" fill="#704254"/>
<path d="M14.3335 35.7249C14.2881 35.7249 14.2482 35.6923 14.2428 35.6451C14.2373 35.5961 14.2718 35.5526 14.3208 35.5471L14.6093 35.5145C14.6582 35.509 14.7018 35.5435 14.7072 35.5925C14.7127 35.6415 14.6782 35.685 14.6292 35.6905L14.3407 35.7231C14.3407 35.7231 14.3353 35.7231 14.3317 35.7231L14.3335 35.7249Z" fill="#704254"/>
<path d="M13.7778 36.298C13.7324 36.298 13.6925 36.2654 13.6871 36.2182C13.6816 36.1692 13.7161 36.1257 13.7651 36.1202L14.4364 36.044C14.4854 36.0386 14.529 36.0731 14.5344 36.122C14.5398 36.171 14.5054 36.2146 14.4564 36.22L13.7851 36.2962C13.7851 36.2962 13.7796 36.2962 13.776 36.2962L13.7778 36.298Z" fill="#704254"/>
<path d="M13.2246 36.3615C13.1792 36.3615 13.1393 36.3288 13.1339 36.2817C13.1284 36.2327 13.1629 36.1891 13.2119 36.1837L13.4369 36.1583C13.4859 36.1528 13.5294 36.1873 13.5348 36.2363C13.5403 36.2853 13.5058 36.3288 13.4568 36.3343L13.2318 36.3597C13.2318 36.3597 13.2264 36.3597 13.2228 36.3597L13.2246 36.3615Z" fill="#704254"/>
<path d="M9.80471 33.0144C9.76117 33.0144 9.72125 32.9836 9.71581 32.9382C9.70855 32.8892 9.74302 32.8439 9.79201 32.8384L10.7083 32.7114C10.7573 32.7042 10.8026 32.7386 10.8081 32.7876C10.8153 32.8366 10.7808 32.882 10.7319 32.8874L9.8156 33.0144C9.8156 33.0144 9.80834 33.0144 9.80471 33.0144Z" fill="#704254"/>
<path d="M11.169 32.826C11.1236 32.826 11.0855 32.7951 11.0801 32.7498C11.0728 32.7008 11.1073 32.6554 11.1563 32.65L11.4629 32.6064C11.5119 32.5992 11.5572 32.6336 11.5627 32.6826C11.5699 32.7316 11.5355 32.777 11.4865 32.7824L11.1799 32.826C11.1799 32.826 11.1726 32.826 11.169 32.826Z" fill="#704254"/>
<path d="M11.4012 28.3476C11.3812 28.3476 11.3613 28.3421 11.345 28.3276L11.1399 28.1643C11.1218 28.1498 11.1091 28.128 11.1073 28.1045C11.1055 28.0809 11.1109 28.0573 11.1254 28.0391L11.2887 27.8341C11.3032 27.816 11.325 27.8033 11.3486 27.8015C11.3722 27.7978 11.3958 27.8051 11.4139 27.8196L11.6189 27.9829C11.657 28.0137 11.6643 28.07 11.6334 28.1081L11.4701 28.3131C11.452 28.3349 11.4284 28.3458 11.4012 28.3476ZM11.3196 28.0809L11.3849 28.1335L11.4375 28.0682L11.3722 28.0156L11.3196 28.0809Z" fill="#704254"/>
<path d="M11.3614 27.9955C11.316 27.9955 11.2761 27.9629 11.2707 27.9157L11.2525 27.7597C11.2471 27.7107 11.2815 27.6671 11.3305 27.6617C11.3795 27.6563 11.4231 27.6907 11.4285 27.7397L11.4467 27.8958C11.4521 27.9447 11.4176 27.9883 11.3686 27.9937C11.365 27.9937 11.3632 27.9937 11.3596 27.9937L11.3614 27.9955Z" fill="#704254"/>
<path d="M11.5483 28.1443C11.503 28.1443 11.463 28.1116 11.4576 28.0644C11.4522 28.0155 11.4866 27.9719 11.5356 27.9665L11.7007 27.9483C11.7497 27.9429 11.7933 27.9773 11.7987 28.0263C11.8041 28.0753 11.7697 28.1189 11.7207 28.1243L11.5556 28.1425C11.5556 28.1425 11.5501 28.1425 11.5465 28.1425L11.5483 28.1443Z" fill="#704254"/>
<path d="M11.4175 28.4822C11.3722 28.4822 11.3323 28.4495 11.3268 28.4024L11.3087 28.2409C11.3032 28.1919 11.3377 28.1483 11.3867 28.1429C11.4357 28.1375 11.4792 28.1719 11.4847 28.2209L11.5028 28.3824C11.5083 28.4314 11.4738 28.4749 11.4248 28.4804C11.4212 28.4804 11.4193 28.4804 11.4157 28.4804L11.4175 28.4822Z" fill="#704254"/>
<path d="M11.0586 28.2002C11.0132 28.2002 10.9733 28.1675 10.9679 28.1203C10.9624 28.0714 10.9969 28.0278 11.0459 28.0224L11.2019 28.0042C11.2509 27.9988 11.2944 28.0333 11.2999 28.0822C11.3053 28.1312 11.2709 28.1748 11.2219 28.1802L11.0658 28.1984C11.0658 28.1984 11.0604 28.1984 11.0568 28.1984L11.0586 28.2002Z" fill="#704254"/>
<path d="M20.8925 18.1393C19.1326 17.702 14.5676 17.2357 12.795 23.4173C12.795 23.4173 12.3486 24.8343 10.9951 25.3568C10.9951 25.3568 12.0602 25.7669 13.5461 24.0269C13.9979 23.4499 14.437 22.5046 14.437 22.5046C15.023 21.2618 16.5798 18.8723 19.8819 18.8215L20.8998 18.7489C20.7002 18.4423 20.7927 18.2445 20.8925 18.1411V18.1393Z" fill="#F4791F"/>
<path d="M11.3308 25.4895C11.1076 25.4931 10.977 25.4459 10.9625 25.4405C10.928 25.4278 10.9062 25.3933 10.9062 25.357C10.9062 25.3207 10.928 25.2863 10.9625 25.2736C12.258 24.7728 12.7061 23.4048 12.7097 23.3903C13.4827 20.6977 14.8652 18.9559 16.8175 18.2138C18.4468 17.5951 20.0833 17.8473 20.9143 18.0542C20.9452 18.0614 20.9688 18.085 20.9778 18.1159C20.9869 18.1467 20.9778 18.1794 20.9561 18.203C20.8345 18.33 20.8418 18.4969 20.9724 18.7019C20.9887 18.7291 20.9923 18.7618 20.9778 18.7908C20.9633 18.8198 20.9361 18.838 20.9053 18.8398L19.8874 18.9124H19.8656C18.454 18.9378 17.2203 19.4004 16.1988 20.2859C15.3369 21.0334 14.809 21.9261 14.5168 22.5448C14.4697 22.6445 14.0524 23.5263 13.6151 24.0833C12.6045 25.2663 11.7808 25.4822 11.3308 25.4913V25.4895ZM18.9149 17.9998C16.8411 18.036 14.1467 19.0249 12.8803 23.4429C12.8621 23.4991 12.4702 24.7075 11.3199 25.308C11.7227 25.3008 12.5065 25.1066 13.4772 23.969C13.9163 23.4102 14.3499 22.4758 14.3554 22.4667C14.6547 21.8317 15.1972 20.9154 16.0827 20.148C17.1368 19.2335 18.4087 18.7582 19.8638 18.7309H19.8801L20.7565 18.6674C20.6621 18.4606 20.6893 18.3028 20.7456 18.1939C20.263 18.0832 19.6261 17.9834 18.9167 17.9961L18.9149 17.9998Z" fill="#704254"/>
<path d="M13.7727 23.7045C13.7727 23.7045 10.2837 27.199 6.70031 23.1003L6.89989 24.6462L6.08887 25.1415C6.08887 25.1415 11.1419 28.3058 13.7727 23.7045Z" fill="#F99B1D"/>
<path d="M9.8247 26.2895C7.83614 26.324 6.06169 25.2299 6.04173 25.2172C6.01633 25.2009 6 25.1718 6 25.141C6 25.1101 6.01633 25.0811 6.04354 25.0648L6.80558 24.5985L6.61326 23.1089C6.60781 23.0708 6.62959 23.0327 6.66587 23.0164C6.70216 23 6.74389 23.0091 6.76929 23.0381C7.8688 24.2973 9.06992 24.9559 10.3363 24.9995C12.2632 25.0648 13.6984 23.6532 13.7129 23.6387C13.7437 23.6078 13.7945 23.6042 13.8308 23.6314C13.8671 23.6587 13.8762 23.7076 13.8544 23.7457C13.1178 25.0321 12.1235 25.8413 10.8988 26.148C10.5414 26.2369 10.1821 26.2786 9.82833 26.2859L9.8247 26.2895ZM6.26308 25.1392C6.78744 25.4331 8.85582 26.4782 10.8534 25.9774C11.8695 25.7216 12.7222 25.1047 13.3936 24.1413C12.8112 24.5749 11.7044 25.2263 10.3309 25.1791C9.08625 25.1374 7.90872 24.5296 6.82554 23.3702L6.98883 24.633C6.99246 24.6674 6.97613 24.7019 6.9471 24.7201L6.26308 25.1374V25.1392Z" fill="#704254"/>
<path d="M20.8996 18.7206C19.381 18.9637 15.4057 19.2957 15.4021 16.106C15.4021 16.106 15.4565 14.8487 16.8354 14.4822C16.8354 14.4822 13.1758 14.4731 14.1447 17.8986C14.1447 17.8986 15.4837 22.6051 21.5455 19.2395C21.1972 19.1923 20.9867 18.882 20.8996 18.7206Z" fill="#F99B1D"/>
<path d="M17.7624 20.5422C17.1836 20.5531 16.6501 20.4569 16.1639 20.2555C14.5473 19.5842 14.0774 17.9912 14.0574 17.9241C13.7689 16.9008 13.856 16.0752 14.3169 15.4656C14.6525 15.0247 15.195 14.6981 15.8845 14.5239C16.4016 14.3933 16.8153 14.3933 16.8334 14.3933C16.8788 14.3933 16.915 14.426 16.9223 14.4713C16.9296 14.5167 16.9005 14.5566 16.857 14.5693C15.5615 14.914 15.4926 16.0607 15.4908 16.1097C15.4908 16.9098 15.7557 17.5431 16.2746 17.9858C17.5102 19.0381 19.9106 18.7895 20.8831 18.6335C20.9212 18.6281 20.9575 18.6462 20.9756 18.6789C21.0609 18.8385 21.2514 19.1107 21.5544 19.1524C21.5925 19.1579 21.6233 19.1869 21.6306 19.225C21.6379 19.2631 21.6197 19.3012 21.5871 19.3193C20.1537 20.1158 18.8728 20.5241 17.7624 20.544V20.5422ZM16.2383 14.6328C15.6976 14.7272 14.9192 14.9667 14.4584 15.5727C14.032 16.1351 13.9558 16.908 14.228 17.8733C14.2316 17.8896 14.6961 19.4536 16.2328 20.0904C17.5573 20.6384 19.2647 20.3608 21.3131 19.2631C21.0899 19.1597 20.9375 18.9637 20.8504 18.8168C20.2861 18.9038 19.4588 18.9909 18.6115 18.9365C17.541 18.8676 16.7173 18.5936 16.1585 18.1182C15.5978 17.641 15.313 16.9625 15.3111 16.1043C15.3111 16.0897 15.3638 15.1517 16.2383 14.631V14.6328Z" fill="#704254"/>
<path d="M37.147 32.025L21.9707 34.1228L22.1155 35.1706L37.2918 33.0728L37.147 32.025Z" fill="#30302F"/>
<path d="M37.3071 33.1612L22.1299 35.2605C22.0791 35.2677 22.0337 35.2314 22.0264 35.1825L21.8813 34.1337C21.874 34.0829 21.9103 34.0376 21.9593 34.0303L37.1365 31.9311C37.1873 31.9238 37.2327 31.9601 37.24 32.0091L37.3851 33.0578C37.3924 33.1086 37.3561 33.154 37.3071 33.1612ZM22.197 35.0645L37.191 32.9907L37.0712 32.1252L22.0772 34.1991L22.197 35.0645Z" fill="#6D4052"/>
<path d="M32.0544 32.7269L15.6761 34.9912L14.914 34.2582L14.6201 32.13L31.6462 29.7749L32.0544 32.7269Z" fill="white"/>
<path d="M32.067 32.8179L15.6886 35.0841C15.6614 35.0877 15.6324 35.0786 15.6124 35.0587L14.8504 34.3257C14.8359 34.3112 14.825 34.293 14.8232 34.2713L14.5292 32.143C14.522 32.0922 14.5583 32.0468 14.6073 32.0396L31.6333 29.6845C31.6841 29.6773 31.7295 29.7135 31.7368 29.7625L32.145 32.7145C32.1522 32.7653 32.116 32.8107 32.067 32.8179ZM15.7068 34.8954L31.949 32.6492L31.5662 29.8805L14.7234 32.2101L15.001 34.215L15.7068 34.8954Z" fill="#6D4052"/>
<path d="M23.7682 34.718C23.9968 35.6125 23.458 36.5233 22.5635 36.7519C21.669 36.9805 20.7582 36.4416 20.5296 35.5471C20.301 34.6526 20.8398 33.7418 21.7343 33.5132C22.6288 33.2846 23.5396 33.8235 23.7682 34.7162V34.718Z" fill="#959495"/>
<path d="M22.3875 36.8819C21.9937 36.9363 21.5982 36.8565 21.2517 36.6515C20.8471 36.412 20.5586 36.0273 20.4406 35.5719C20.1993 34.6302 20.769 33.6668 21.7107 33.4255C22.6524 33.1842 23.6158 33.7539 23.8571 34.6956C24.0984 35.6372 23.5287 36.6007 22.587 36.842C22.5199 36.8583 22.4546 36.8728 22.3875 36.8819ZM21.9339 33.5688C21.874 33.5761 21.8159 33.5888 21.7561 33.6033C20.9124 33.8192 20.4025 34.6829 20.6185 35.5265C20.7237 35.9348 20.9813 36.2777 21.3442 36.4936C21.7071 36.7077 22.1316 36.7694 22.5417 36.6642C23.3854 36.4483 23.8952 35.5846 23.6793 34.7409C23.4779 33.9571 22.7177 33.46 21.9339 33.5688Z" fill="#6D4052"/>
<path d="M22.8702 34.9475C22.9718 35.3448 22.7323 35.7513 22.335 35.8529C21.9358 35.9545 21.5312 35.715 21.4296 35.3176C21.328 34.9203 21.5675 34.5139 21.9666 34.4123C22.364 34.3107 22.7704 34.5502 22.872 34.9475H22.8702Z" fill="#CCCBCB"/>
<path d="M22.2624 35.9622C22.0756 35.9876 21.8887 35.9495 21.7236 35.8533C21.5313 35.739 21.3952 35.5576 21.3389 35.3417C21.2827 35.1258 21.3153 34.9008 21.4297 34.7085C21.544 34.5161 21.7254 34.3801 21.9413 34.3238C22.3876 34.2095 22.8449 34.4798 22.9592 34.9262C23.0154 35.1421 22.9828 35.3671 22.8684 35.5594C22.7541 35.7517 22.5727 35.8878 22.3568 35.944C22.326 35.9513 22.2933 35.9586 22.2624 35.9622ZM22.0611 34.4871C22.0375 34.4907 22.0121 34.4944 21.9885 34.5016C21.8197 34.5452 21.6782 34.6522 21.5893 34.801C21.5004 34.9516 21.475 35.1258 21.5186 35.2945C21.5621 35.4632 21.6691 35.6048 21.8179 35.6937C21.9685 35.7826 22.1427 35.808 22.3114 35.7644C22.4802 35.7209 22.6217 35.6138 22.7106 35.4651C22.7995 35.3163 22.8249 35.1403 22.7814 34.9715C22.6979 34.6468 22.384 34.4436 22.0611 34.4871Z" fill="#6D4052"/>
<path d="M22.3695 35.0757C22.4004 35.1972 22.3278 35.3206 22.2062 35.3514C22.0847 35.3823 21.9613 35.3097 21.9304 35.1882C21.8996 35.0666 21.9722 34.9432 22.0937 34.9124C22.2153 34.8815 22.3387 34.9541 22.3695 35.0757Z" fill="#757575"/>
<path d="M22.1915 35.4473C22.1208 35.4564 22.0482 35.4437 21.9865 35.4056C21.9139 35.3621 21.8613 35.2931 21.8395 35.2115C21.796 35.0409 21.8994 34.8667 22.0682 34.8232C22.2387 34.7796 22.4129 34.8831 22.4564 35.0518C22.4782 35.1335 22.4655 35.2205 22.422 35.2931C22.3784 35.3657 22.3095 35.4183 22.2278 35.4401C22.2151 35.4437 22.2042 35.4455 22.1915 35.4473ZM22.1298 34.9992C22.1298 34.9992 22.119 34.9992 22.1153 35.0028C22.0446 35.021 22.001 35.0935 22.0192 35.1661C22.0282 35.2006 22.05 35.2296 22.0809 35.2478C22.1117 35.2659 22.148 35.2713 22.1825 35.2623C22.2169 35.2532 22.246 35.2314 22.2641 35.2006C22.2823 35.1697 22.2877 35.1335 22.2786 35.099C22.2623 35.0318 22.197 34.9901 22.1298 34.9992Z" fill="#6D4052"/>
<path d="M19.8706 34.4115L19.6475 35.8412L20.0611 35.785L20.6218 34.3081L19.8706 34.4115Z" fill="#757575"/>
<path d="M20.074 35.8756L19.6604 35.9337C19.6313 35.9373 19.6023 35.9283 19.5823 35.9065C19.5624 35.8865 19.5533 35.8557 19.5569 35.8285L19.7801 34.3987C19.7855 34.3588 19.8182 34.328 19.8581 34.3225L20.6093 34.2191C20.6419 34.2155 20.6746 34.2282 20.6945 34.2536C20.7145 34.279 20.7199 34.3135 20.7091 34.3443L20.1466 35.8212C20.1339 35.8521 20.1067 35.8756 20.0722 35.8793L20.074 35.8756ZM19.7583 35.7341L19.9942 35.7015L20.4804 34.4205L19.9507 34.4931L19.7565 35.7323L19.7583 35.7341Z" fill="#6D4052"/>
<path d="M24.1457 33.8218L24.7499 35.1354L24.3362 35.1934L23.3945 33.9252L24.1457 33.8218Z" fill="#757575"/>
<path d="M24.7625 35.2282L24.3488 35.2862C24.3161 35.2917 24.2817 35.2771 24.2617 35.2499L23.3201 33.9817C23.3001 33.9563 23.2965 33.9218 23.3092 33.891C23.3219 33.8601 23.3491 33.8402 23.3817 33.8347L24.1329 33.7313C24.1728 33.7259 24.2127 33.7476 24.2291 33.7839L24.8314 35.0993C24.8441 35.1266 24.8423 35.1574 24.8278 35.1828C24.8133 35.2082 24.7879 35.2263 24.7588 35.23L24.7625 35.2282ZM24.3778 35.0957L24.6137 35.063L24.0912 33.9218L23.5614 33.9944L24.3778 35.0939V35.0957Z" fill="#6D4052"/>
<path d="M34.4149 32.4009L34.1899 33.8306L34.6036 33.7726L35.1661 32.2957L34.4149 32.4009Z" fill="#757575"/>
<path d="M34.616 33.8649L34.2023 33.923C34.1733 33.9266 34.1443 33.9175 34.1243 33.8957C34.1044 33.8758 34.0953 33.8449 34.0989 33.8177L34.3221 32.388C34.3275 32.3481 34.3602 32.3172 34.4001 32.3118L35.1513 32.2084C35.1839 32.2047 35.2166 32.2174 35.2365 32.2428C35.2565 32.2682 35.2619 32.3027 35.2511 32.3336L34.6886 33.8105C34.6759 33.8413 34.6487 33.8649 34.616 33.8685V33.8649ZM34.3003 33.7234L34.5362 33.6907L35.0224 32.4098L34.4926 32.4823L34.2985 33.7216L34.3003 33.7234Z" fill="#6D4052"/>
<path d="M30.8536 24.0462L30.2515 24.1294L31.4514 32.8103L32.0535 32.727L30.8536 24.0462Z" fill="white"/>
<path d="M32.0671 32.8174L31.4666 32.9009C31.4158 32.9081 31.3704 32.8718 31.3632 32.8228L30.1621 24.1429C30.1548 24.0921 30.1911 24.0467 30.2401 24.0395L30.8406 23.956C30.8914 23.9487 30.9368 23.985 30.9441 24.034L32.1452 32.714C32.1524 32.7648 32.1161 32.8101 32.0671 32.8174ZM31.5319 32.7049L31.951 32.6468L30.7753 24.1483L30.3562 24.2064L31.5319 32.7049Z" fill="#6D4052"/>
<path d="M31.1417 30.5588L14.7162 32.8304C14.6654 32.8377 14.62 32.8014 14.6127 32.7524C14.6055 32.7016 14.6418 32.6562 14.6908 32.649L31.1163 30.3774C31.1671 30.3701 31.2124 30.4064 31.2197 30.4554C31.2269 30.5062 31.1907 30.5516 31.1417 30.5588Z" fill="#6D4052"/>
<path d="M31.3378 31.9873L14.9141 34.2589L15.6761 34.9919L31.4521 32.811L31.3378 31.9873Z" fill="#B2B1B2"/>
<path d="M31.4644 32.9018L15.6867 35.0845C15.6595 35.0882 15.6304 35.0791 15.6105 35.0591L14.8484 34.3261C14.823 34.3025 14.814 34.2644 14.8248 34.2318C14.8357 34.1991 14.8648 34.1737 14.8992 34.1683L31.3247 31.8967C31.3755 31.8894 31.4209 31.9257 31.4282 31.9747L31.5425 32.7984C31.5497 32.8492 31.5134 32.8946 31.4644 32.9018ZM15.7066 34.8958L31.3483 32.7331L31.2594 32.0926L15.1133 34.3261L15.7066 34.8976V34.8958Z" fill="#6D4052"/>
<path d="M31.5771 24.3662L31.1416 25.424C31.1162 25.4857 31.1072 25.5546 31.1162 25.6218L32.0452 32.344C32.0742 32.5527 32.2665 32.6978 32.4752 32.6688L41.9589 31.357C42.1676 31.328 42.3127 31.1356 42.2837 30.927L42.1676 30.0906C42.1549 29.9962 42.1059 29.9091 42.0315 29.8474C41.9571 29.7857 41.9081 29.7005 41.8954 29.6043L41.7394 28.474C41.7303 28.4105 41.7067 28.3506 41.6686 28.2998L41.2168 27.6865C41.1787 27.6357 41.1551 27.5758 41.1461 27.5123L41.1279 27.3799C41.1152 27.2855 41.0662 27.1985 40.9937 27.1386L36.6972 23.5897C36.6156 23.5225 36.5085 23.4917 36.4015 23.5062L31.8746 24.1322C31.7404 24.1503 31.6261 24.2392 31.5753 24.3644L31.5771 24.3662Z" fill="white"/>
<path d="M41.9737 31.4478L32.4899 32.7596C32.2323 32.7959 31.9928 32.6144 31.9565 32.355L31.0275 25.6327C31.0167 25.5493 31.0275 25.4658 31.0584 25.3878L31.4938 24.33C31.5573 24.1758 31.7007 24.0651 31.8658 24.0415L36.3926 23.4156C36.5233 23.3974 36.6575 23.4355 36.7592 23.519L41.0556 27.0679C41.1481 27.1441 41.2062 27.2493 41.2225 27.3673L41.2406 27.4997C41.2479 27.5469 41.2661 27.5923 41.2933 27.6322L41.745 28.2454C41.7922 28.3089 41.8212 28.3833 41.8321 28.4613L41.9882 29.5917C41.9991 29.6643 42.0353 29.7296 42.0916 29.7749C42.1841 29.8511 42.244 29.9582 42.2603 30.0761L42.3764 30.9126C42.4127 31.1702 42.2313 31.4097 41.9718 31.446L41.9737 31.4478ZM31.8912 24.2248C31.7896 24.2393 31.7025 24.3064 31.6644 24.4008L31.2289 25.4586C31.209 25.5057 31.2035 25.5583 31.209 25.6073L32.1379 32.3296C32.1597 32.4874 32.3067 32.5981 32.4645 32.5763L41.9483 31.2645C42.1061 31.2428 42.2168 31.0958 42.195 30.938L42.0789 30.1015C42.068 30.029 42.0317 29.9636 41.9755 29.9183C41.8829 29.8421 41.8231 29.735 41.8067 29.6171L41.6507 28.4867C41.6434 28.4396 41.6253 28.3942 41.5981 28.3543L41.1463 27.741C41.0991 27.6775 41.0701 27.6031 41.0592 27.5251L41.0411 27.3927C41.032 27.3201 40.9957 27.2548 40.9395 27.2094L36.643 23.6605C36.5813 23.6097 36.4997 23.5861 36.4199 23.597L31.893 24.223L31.8912 24.2248Z" fill="#6D4052"/>
<path d="M32.2268 24.6198L36.1912 24.0718C36.2674 24.0609 36.3454 24.0827 36.4053 24.1335L39.7057 26.8623L39.0362 27.3939C38.9781 27.4393 38.9055 27.4611 38.8311 27.452C38.8311 27.452 32.8419 27.0166 32.7838 26.9748L32.3067 26.621C32.2468 26.5775 32.2069 26.5103 32.1978 26.436L31.9891 24.9337C31.9674 24.7831 32.0744 24.6434 32.225 24.6216L32.2268 24.6198Z" fill="#C0E1E9"/>
<path d="M38.9164 27.5412C38.8856 27.5448 38.8547 27.5467 38.822 27.5412C38.8112 27.5412 37.3107 27.4324 35.8229 27.318C32.7874 27.0876 32.762 27.0695 32.7294 27.0459L32.2522 26.6921C32.1724 26.634 32.1198 26.5433 32.1071 26.4453L31.8984 24.943C31.8712 24.7416 32.0109 24.5548 32.2123 24.5275L36.1767 23.9796C36.2783 23.9651 36.3835 23.9959 36.4616 24.0612L39.7619 26.7901C39.7837 26.8082 39.7964 26.8336 39.7946 26.8626C39.7946 26.8899 39.7819 26.9171 39.7601 26.9334L39.0906 27.465C39.038 27.5067 38.9763 27.5321 38.9128 27.5412H38.9164ZM32.8256 26.888C33.105 26.9334 36.5505 27.1929 38.8402 27.3598C38.8928 27.3652 38.9418 27.3525 38.9799 27.3217L39.5605 26.8608L36.3472 24.2046C36.3073 24.1719 36.2547 24.1574 36.2039 24.1647L32.2395 24.7126C32.1379 24.7271 32.069 24.8197 32.0817 24.9213L32.2903 26.4236C32.2976 26.4725 32.323 26.5179 32.3629 26.5469L32.8256 26.8899V26.888Z" fill="#6D4052"/>
<path d="M40.9937 29.8441L41.2223 30.2542L42.1167 30.1308L41.7811 29.6863L40.9937 29.8441Z" fill="#525252"/>
<path d="M38.9089 27.4696L34.5 27.1539L33.718 24.416L33.0122 24.514L34.041 29.7466L36.1384 32.1616L40.7469 31.5247L40.1554 27.2446L39.4877 26.6749L38.9089 27.4696Z" fill="white"/>
<path d="M40.7596 31.6156L36.1493 32.2525C36.1184 32.2561 36.0876 32.2452 36.0676 32.2216L33.972 29.8049C33.9611 29.7922 33.9539 29.7777 33.9521 29.7632L32.9215 24.5305C32.9161 24.5051 32.9215 24.4797 32.936 24.4598C32.9505 24.4398 32.9741 24.4253 32.9977 24.4217L33.7053 24.3237C33.7507 24.3182 33.7942 24.3455 33.8069 24.389L34.5708 27.067L38.8654 27.3736L39.4133 26.6207C39.4278 26.6007 39.4496 26.5862 39.475 26.5844C39.5004 26.5808 39.5258 26.588 39.5458 26.6062L40.2135 27.1759C40.2298 27.1904 40.2425 27.2104 40.2443 27.2339L40.8358 31.514C40.8431 31.5648 40.8068 31.6102 40.7578 31.6175L40.7596 31.6156ZM36.1747 32.0638L40.6435 31.4451L40.0683 27.292L39.5022 26.8094L38.9833 27.5242C38.9652 27.5496 38.9343 27.5642 38.9017 27.5623L34.4927 27.2466C34.4546 27.243 34.422 27.2176 34.4111 27.1795L33.6527 24.5178L33.1211 24.5904L34.1281 29.7033L36.1747 32.0638Z" fill="#6D4052"/>
<path d="M34.3278 28.37C34.3695 28.6694 34.1608 28.9452 33.8615 28.9869C33.5621 29.0287 33.2863 28.82 33.2446 28.5206C33.2028 28.2213 33.4115 27.9455 33.7109 27.9038C34.0102 27.862 34.286 28.0707 34.3278 28.37Z" fill="#B2B1B2"/>
<path d="M33.874 29.0782C33.5256 29.1272 33.2027 28.8823 33.1537 28.5339C33.1047 28.1856 33.3497 27.8626 33.698 27.8136C34.0464 27.7646 34.3693 28.0096 34.4183 28.3579C34.4673 28.7063 34.2224 29.0292 33.874 29.0782ZM33.7234 27.995C33.4748 28.0295 33.3007 28.2599 33.3351 28.5067C33.3696 28.7535 33.6 28.9295 33.8468 28.895C34.0954 28.8605 34.2695 28.6301 34.2351 28.3833C34.2006 28.1348 33.9702 27.9606 33.7234 27.995Z" fill="#6D4052"/>
<path d="M35.1497 31.2483L31.9564 31.6892C31.9056 31.6964 31.8602 31.6601 31.853 31.6112C31.8457 31.5622 31.882 31.515 31.931 31.5077L35.1243 31.0668C35.1751 31.0596 35.2204 31.0959 35.2277 31.1449C35.235 31.1957 35.1987 31.241 35.1497 31.2483Z" fill="#6D4052"/>
<path d="M39.6094 28.3916L38.8833 28.4919L38.9221 28.7723L39.6482 28.672L39.6094 28.3916Z" fill="#F5B21E"/>
<path d="M39.6092 28.3881L39.6473 28.6694L38.9216 28.7691L38.8835 28.4879L39.6092 28.3881ZM39.5838 28.2049L38.8581 28.3047C38.7565 28.3192 38.6875 28.4117 38.7002 28.5133L38.7383 28.7945C38.7529 28.8962 38.8454 28.9651 38.947 28.9524L39.6727 28.8526C39.7743 28.8381 39.8433 28.7456 39.8306 28.644L39.7925 28.3627C39.778 28.2611 39.6854 28.1922 39.5838 28.2049Z" fill="#6D4052"/>
<path d="M40.9355 27.459L41.088 28.5658L41.7429 28.4768L40.9355 27.459Z" fill="#EA8228"/>
<path d="M41.9155 29.7187L40.5257 29.9111C40.4749 29.9183 40.4296 29.882 40.4223 29.833C40.4151 29.7822 40.4513 29.7369 40.5003 29.7296L41.1045 29.6462L40.9576 28.5847L40.7979 27.4326C40.7924 27.3945 40.8106 27.3582 40.8432 27.3401C40.8759 27.3219 40.9176 27.3256 40.9467 27.3492L41.2787 27.6195C41.2787 27.6195 41.2914 27.6322 41.2968 27.6395L41.8194 28.4269C41.8375 28.4541 41.8393 28.4868 41.8266 28.5158C41.8139 28.5448 41.7867 28.5648 41.7559 28.5684L41.1517 28.6519L41.2841 29.6117L41.8901 29.5373C41.9409 29.5318 41.9863 29.5663 41.9936 29.6171C42.0008 29.6679 41.9645 29.7133 41.9155 29.7205V29.7187ZM41.1263 28.4668L41.5853 28.4033L41.1517 27.7501L41.012 27.6358L41.1263 28.4668Z" fill="#6D4052"/>
<path d="M42.1787 30.1561L41.2824 30.2795C41.2497 30.2831 41.2189 30.2704 41.1989 30.2469L40.8814 29.855C40.8487 29.815 40.856 29.757 40.8959 29.7261C40.9358 29.6935 40.9939 29.7007 41.0247 29.7406L41.3096 30.0926L42.1533 29.9765C42.2041 29.9693 42.2494 30.0055 42.2567 30.0545C42.264 30.1053 42.2277 30.1507 42.1787 30.158V30.1561Z" fill="#6D4052"/>
<path d="M41.9826 30.7136C42.0098 30.9059 41.9572 31.0728 41.8664 31.0855C41.7757 31.0982 41.6814 30.9513 41.6542 30.7589C41.6269 30.5666 41.6796 30.3997 41.7703 30.387C41.861 30.3743 41.9553 30.5213 41.9826 30.7136Z" fill="#B2B1B2"/>
<path d="M41.8792 31.1765C41.7323 31.1964 41.598 31.0259 41.5635 30.7719C41.529 30.5179 41.6107 30.3165 41.7577 30.2965C41.9046 30.2765 42.0371 30.4471 42.0734 30.7011C42.1096 30.9551 42.0262 31.1565 41.8792 31.1765ZM41.7831 30.4798C41.7613 30.4997 41.725 30.5941 41.7468 30.7465C41.7685 30.8971 41.8284 30.9787 41.8538 30.9932C41.8756 30.9733 41.9119 30.8789 41.8901 30.7265C41.8683 30.5759 41.8085 30.4943 41.7831 30.4798Z" fill="#6D4052"/>
<path d="M38.7588 26.0774L39.4882 26.6743L38.9094 27.469L38.7588 26.0774Z" fill="#30302F"/>
<path d="M38.9219 27.5615C38.9092 27.5615 38.8984 27.5615 38.8857 27.5597C38.8494 27.5507 38.8222 27.518 38.8185 27.4799L38.6679 26.0883C38.6643 26.0502 38.6825 26.0157 38.7151 25.9976C38.7478 25.9794 38.7877 25.983 38.8167 26.0066L39.5461 26.6036C39.5842 26.6344 39.5915 26.6888 39.5624 26.7288L38.9855 27.5234C38.9709 27.5434 38.9474 27.5579 38.9238 27.5597L38.9219 27.5615ZM38.8748 26.2915L38.9764 27.2223L39.3628 26.6906L38.8766 26.2915H38.8748Z" fill="#6D4052"/>
<path d="M39.3242 31.7208C38.994 30.7538 37.8473 29.9954 36.6136 30.1659C35.3798 30.3365 34.4817 31.3779 34.4272 32.3976L39.3242 31.7208Z" fill="#757575"/>
<path d="M34.44 32.4902C34.4128 32.4938 34.3856 32.4848 34.3657 32.4666C34.3457 32.4485 34.3348 32.4213 34.3366 32.394C34.3911 31.4016 35.2529 30.2621 36.6028 30.0753C37.9527 29.8884 39.0921 30.7502 39.4132 31.6919C39.4223 31.7173 39.4187 31.7463 39.4042 31.7699C39.3896 31.7935 39.3661 31.8098 39.3388 31.8134L34.4419 32.4902H34.44ZM36.6264 30.2585C35.4216 30.4254 34.6342 31.4016 34.5289 32.2924L39.1973 31.6465C38.8544 30.8192 37.8311 30.0916 36.6264 30.2585Z" fill="#6D4052"/>
<path d="M38.9797 32.4355C39.1339 33.5477 38.3574 34.5728 37.2452 34.727C36.1329 34.8812 35.1078 34.1047 34.9536 32.9925C34.7994 31.8803 35.5759 30.8551 36.6881 30.7009C37.8003 30.5467 38.8255 31.3232 38.9797 32.4355Z" fill="#959495"/>
<path d="M37.2578 34.8195C36.0966 34.9791 35.0225 34.1663 34.8628 33.0051C34.7031 31.8439 35.516 30.7698 36.6772 30.6101C37.8384 30.4504 38.9125 31.2633 39.0721 32.4227C39.2318 33.5839 38.419 34.658 37.2578 34.8176V34.8195ZM36.7008 30.7934C35.6412 30.9403 34.8973 31.9219 35.0442 32.9815C35.1912 34.0411 36.1728 34.785 37.2324 34.638C38.292 34.4911 39.0359 33.5095 38.8889 32.4499C38.7419 31.3903 37.7603 30.6464 36.7008 30.7934Z" fill="#6D4052"/>
<path d="M37.8637 32.5905C37.9326 33.0858 37.5861 33.543 37.0908 33.6102C36.5955 33.6791 36.1382 33.3326 36.0693 32.8373C36.0003 32.3419 36.3469 31.8847 36.8422 31.8176C37.3375 31.7486 37.7948 32.0952 37.8619 32.5905H37.8637Z" fill="#CCCBCB"/>
<path d="M37.1036 33.7011C36.8405 33.7374 36.5774 33.6685 36.3652 33.5088C36.1529 33.3473 36.015 33.1133 35.9787 32.8502C35.9424 32.5871 36.0114 32.324 36.171 32.1117C36.3325 31.8995 36.5666 31.7616 36.8296 31.7253C37.0927 31.689 37.3558 31.7579 37.5681 31.9176C37.7804 32.0791 37.9183 32.3113 37.9545 32.5762C38.0289 33.1205 37.6479 33.6249 37.1036 33.7011ZM37.0782 33.5179C37.2941 33.4888 37.4846 33.3764 37.6153 33.204C37.7459 33.0316 37.8021 32.8175 37.7731 32.6016C37.7441 32.3857 37.6316 32.1952 37.4592 32.0646C37.2869 31.9339 37.0728 31.8777 36.8569 31.9067C36.6409 31.9357 36.4504 32.0482 36.3198 32.2206C36.1892 32.393 36.1329 32.6071 36.162 32.823C36.191 33.0389 36.3035 33.2294 36.4758 33.36C36.6482 33.4907 36.8623 33.5469 37.0782 33.5179Z" fill="#6D4052"/>
<path d="M37.2396 32.6757C37.2596 32.8263 37.1543 32.966 37.0056 32.986C36.855 33.0059 36.7153 32.9025 36.6953 32.7519C36.6753 32.6013 36.7806 32.4616 36.9312 32.4417C37.0818 32.4217 37.2197 32.5251 37.2414 32.6757H37.2396Z" fill="#757575"/>
<path d="M37.0167 33.0788C36.8153 33.1061 36.6302 32.9664 36.603 32.765C36.5758 32.5636 36.7155 32.3785 36.9169 32.3513C37.1183 32.3241 37.3033 32.4638 37.3306 32.6652C37.3578 32.8666 37.2181 33.0516 37.0167 33.0788ZM36.9405 32.5345C36.8407 32.5491 36.7699 32.6416 36.7844 32.7414C36.7989 32.8412 36.8915 32.9119 36.9913 32.8974C37.0911 32.8829 37.1618 32.7904 37.1473 32.6906C37.1328 32.5908 37.0403 32.52 36.9405 32.5345Z" fill="#6D4052"/>
<path d="M37.231 24.8335L38.3922 27.4553L38.7877 27.4662L38.7278 26.0636L37.231 24.8335Z" fill="#F7F7F6"/>
<path d="M35.3494 22.9916C35.3494 22.9916 35.1262 23.0279 34.9829 23.3273C34.8377 23.6321 35.1534 23.9986 35.1716 24.0167C35.2278 24.0675 36.3146 23.7028 36.3146 23.7028C36.3146 23.7028 36.3727 23.124 35.9898 22.9408C35.5798 22.7467 35.3457 22.9916 35.3457 22.9916H35.3494Z" fill="#45240E"/>
<path d="M35.2496 24.0423C35.1988 24.0495 35.1662 24.0495 35.1535 24.0386C35.1408 24.0278 35.1408 24.0096 35.1516 23.9969C35.1607 23.986 35.1771 23.9842 35.1898 23.9915C35.2587 24.006 35.8012 23.8427 36.2911 23.6794C36.2965 23.5814 36.3038 23.1188 35.9826 22.9663C35.5962 22.7831 35.3748 23.0081 35.373 23.0099C35.3676 23.0153 35.3621 23.0171 35.3549 23.019C35.3458 23.019 35.1244 23.048 35.0138 23.3365C35.0083 23.351 34.992 23.3582 34.9757 23.3528C34.9611 23.3474 34.9539 23.3292 34.9593 23.3147C35.0718 23.0244 35.2895 22.97 35.3385 22.9609C35.3839 22.9192 35.6252 22.7305 36.008 22.9119C36.4054 23.1006 36.351 23.6776 36.3491 23.703C36.3491 23.7139 36.3401 23.7248 36.3292 23.7284C35.9264 23.8645 35.4547 24.0132 35.2514 24.0405L35.2496 24.0423Z" fill="#6D4052"/>
<path d="M36.4596 24.6081L35.9153 24.512L35.4418 24.6607L35.4019 24.8603L35.9226 24.9728L36.427 24.7696" fill="#F5DBD6"/>
<path d="M36.4814 24.5393C36.3743 24.5339 36.26 24.4939 36.2219 24.3306L36.0859 23.8353L35.7937 23.8081L35.5488 23.8752L35.293 23.9768L35.4526 24.5538C35.4798 24.65 35.449 24.7734 35.3039 24.8278" fill="#F5DBD6"/>
<path d="M36.6539 24.5597C36.6539 24.5597 36.6485 24.5597 36.6448 24.5597C36.6104 24.5543 36.5705 24.5561 36.5305 24.5561C36.4598 24.5561 36.3872 24.5579 36.3346 24.5234C36.262 24.4744 36.2076 24.4001 36.184 24.313L36.0606 23.863L35.7939 23.8376L35.5544 23.9029L35.3004 24.0045C35.2859 24.01 35.2677 24.0045 35.2623 23.9882C35.2569 23.9737 35.2623 23.9555 35.2786 23.9501L35.5363 23.8485L35.783 23.7795C35.783 23.7795 35.7903 23.7795 35.7939 23.7795L36.086 23.8068C36.0987 23.8068 36.1078 23.8158 36.1114 23.8285L36.2402 24.2985C36.2602 24.3728 36.3056 24.4345 36.3672 24.4763C36.4035 24.5017 36.4652 24.4998 36.5287 24.498C36.5686 24.498 36.6122 24.498 36.6521 24.5017C36.6684 24.5035 36.6793 24.518 36.6775 24.5343C36.6757 24.547 36.6648 24.5579 36.6521 24.5597H36.6539Z" fill="#6D4052"/>
<path d="M35.1897 24.8148C35.177 24.8166 35.1625 24.8093 35.1588 24.7948C35.1534 24.7803 35.1625 24.7622 35.177 24.7585C35.4237 24.6733 35.4128 24.5517 35.4128 24.5517L35.2768 24.06C35.2731 24.0491 35.2768 24.0364 35.2876 24.0292L35.5253 23.8568C35.5253 23.8568 35.5308 23.8532 35.5344 23.8514L35.7793 23.7842L36.0551 23.7407C36.0715 23.7389 36.086 23.7497 36.0878 23.7643C36.0896 23.7806 36.0787 23.7951 36.0642 23.7969L35.792 23.8405L35.5562 23.9058L35.3403 24.0636L35.4709 24.5408C35.4709 24.5517 35.4945 24.7132 35.1969 24.8148C35.1969 24.8148 35.1933 24.8148 35.1915 24.8148H35.1897Z" fill="#6D4052"/>
<path d="M36.2674 23.4976C36.2674 23.4976 36.3399 23.7879 36.3145 24.0038C36.2891 24.2197 36.1349 24.4121 35.9226 24.4737C35.694 24.5409 35.4273 24.4937 35.2749 24.2161C35.1515 23.9911 35.1279 23.924 35.1279 23.924L35.186 23.3688L35.9244 23.2109L36.2674 23.4976Z" fill="#F5DBD6"/>
<path d="M35.9937 24.0239L35.5981 24.1437C35.5981 24.1437 35.6508 24.2979 35.8086 24.2689C35.9429 24.2435 36.0173 24.1382 35.9937 24.0239Z" fill="#E49A9C"/>
<path d="M35.9972 24.082L35.6198 24.189C35.6198 24.189 35.6053 24.1727 35.5962 24.1437L35.9917 24.0239C35.9917 24.0239 35.9972 24.0693 35.9954 24.082H35.9972Z" fill="white"/>
<path d="M35.803 24.2999C35.6651 24.3199 35.5889 24.2074 35.5671 24.1439C35.5653 24.1366 35.5653 24.1276 35.5689 24.1203C35.5726 24.1131 35.5798 24.1076 35.5871 24.1058L35.9862 23.9951C35.9862 23.9951 36.0026 23.9951 36.0098 23.9987C36.0171 24.0024 36.0207 24.0096 36.0225 24.0169C36.0352 24.0768 36.0225 24.1366 35.9917 24.1874C35.9536 24.2437 35.8919 24.2818 35.8157 24.2963C35.812 24.2963 35.8084 24.2963 35.8048 24.2963L35.803 24.2999ZM35.6361 24.1548C35.6578 24.1947 35.7086 24.2582 35.803 24.2419C35.8629 24.231 35.9137 24.2001 35.9427 24.1584C35.9608 24.1294 35.9717 24.0985 35.9699 24.0641L35.6361 24.1566V24.1548Z" fill="#6D4052"/>
<path d="M35.8486 23.7142C35.8486 23.7142 35.8305 23.7142 35.8251 23.707C35.8142 23.6961 35.8142 23.6779 35.8251 23.6652C35.8867 23.6017 35.9575 23.6235 35.9865 23.6435C35.9992 23.6525 36.0029 23.6707 35.9938 23.6834C35.9847 23.6961 35.9666 23.6997 35.9539 23.6906C35.9466 23.6852 35.9085 23.6634 35.8686 23.7051C35.8632 23.7106 35.8577 23.7124 35.8523 23.7142H35.8486Z" fill="#6D4052"/>
<path d="M35.4492 23.8387C35.4492 23.8387 35.4383 23.8387 35.4329 23.8369C35.4184 23.8296 35.4111 23.8133 35.4184 23.7988C35.4329 23.7661 35.4819 23.7117 35.569 23.7352C35.5853 23.7389 35.5944 23.7552 35.5889 23.7715C35.5853 23.7879 35.569 23.7969 35.5526 23.7915C35.4964 23.777 35.4746 23.8151 35.471 23.8223C35.4674 23.8314 35.4583 23.8387 35.4474 23.8387H35.4492Z" fill="#6D4052"/>
<path d="M35.7904 23.9844C35.7904 23.9844 35.7813 23.9844 35.7777 23.9844C35.7215 23.9662 35.7051 23.881 35.7033 23.8646C35.7015 23.8483 35.7124 23.8338 35.7269 23.832C35.7432 23.8302 35.7578 23.8411 35.7596 23.8556C35.7632 23.8828 35.7795 23.9227 35.7959 23.9281C35.8104 23.9336 35.8194 23.9499 35.814 23.9644C35.8104 23.9753 35.8013 23.9826 35.7904 23.9844Z" fill="#6D4052"/>
<path d="M36.3022 23.6682C36.3022 23.6682 36.3893 23.6265 36.4547 23.6827C36.5508 23.7644 36.5109 23.9676 36.3295 23.9712" fill="#F5DBD6"/>
<path d="M36.3581 24.0001C36.349 24.0001 36.3399 24.0019 36.329 24.0019C36.3127 24.0019 36.3 23.9892 36.3 23.9729C36.3 23.9565 36.3127 23.9438 36.329 23.9438C36.3944 23.9438 36.4434 23.9094 36.4633 23.8549C36.4815 23.8023 36.4669 23.7406 36.4288 23.708C36.3762 23.6626 36.3109 23.6862 36.3109 23.688C36.2964 23.6934 36.2782 23.6862 36.2728 23.6717C36.2674 23.6572 36.2746 23.639 36.2891 23.6336C36.2928 23.6336 36.3871 23.5973 36.4651 23.6644C36.5232 23.7134 36.5431 23.7987 36.5177 23.8749C36.4942 23.9438 36.4343 23.9892 36.3581 24.0001Z" fill="#6D4052"/>
<path d="M36.3654 23.8658C36.3654 23.8658 36.3617 23.8658 36.3599 23.8658C36.3436 23.8658 36.3309 23.8513 36.3327 23.835C36.3363 23.7697 36.3871 23.7425 36.4125 23.737C36.4289 23.7334 36.4434 23.7443 36.447 23.7606C36.4506 23.7769 36.4397 23.7915 36.4252 23.7951C36.4198 23.7951 36.3926 23.8042 36.3908 23.8386C36.3908 23.8531 36.3799 23.864 36.3654 23.8658Z" fill="#6D4052"/>
<path d="M35.1479 23.9858C35.1479 23.9858 35.0518 23.9949 35.0246 24.0766C34.9828 24.1963 35.1225 24.3505 35.2804 24.2598" fill="#F5DBD6"/>
<path d="M35.1861 24.1894C35.1752 24.1894 35.1643 24.1858 35.157 24.1767C35.1389 24.1477 35.1117 24.1549 35.1062 24.1567C35.0917 24.1622 35.0754 24.1531 35.07 24.1386C35.0645 24.1241 35.0736 24.1077 35.0881 24.1023C35.1135 24.0932 35.1716 24.0914 35.206 24.1458C35.2151 24.1585 35.2115 24.1767 35.197 24.1858C35.1933 24.1876 35.1897 24.1894 35.1843 24.1912L35.1861 24.1894Z" fill="#6D4052"/>
<path d="M35.8193 24.5305C35.5943 24.5613 35.3965 24.4633 35.2568 24.2474C35.1661 24.1077 35.0971 23.8809 35.0953 23.8718C35.0899 23.8555 35.099 23.841 35.1153 23.8356C35.1298 23.8301 35.1461 23.8392 35.1516 23.8555C35.1516 23.8573 35.2223 24.0859 35.3076 24.2166C35.4546 24.4452 35.6705 24.5268 35.9154 24.4506C36.1078 24.3908 36.2529 24.2057 36.2801 23.9916C36.2946 23.8682 36.2656 23.6632 36.2511 23.5815C36.2493 23.5652 36.2583 23.5507 36.2747 23.5471C36.291 23.5453 36.3055 23.5561 36.3073 23.5707C36.3255 23.6759 36.3509 23.8718 36.3364 23.997C36.3073 24.2329 36.144 24.4379 35.9318 24.5051C35.8937 24.5178 35.8556 24.525 35.8193 24.5305Z" fill="#6D4052"/>
<path d="M35.8935 23.8242C35.8935 23.8242 35.8772 23.7753 35.8935 23.7607C35.9098 23.748 35.9316 23.7644 35.9407 23.8115C35.9497 23.8605 35.9171 23.8859 35.8935 23.8242Z" fill="#211D1D"/>
<path d="M35.9298 23.8918C35.9135 23.8936 35.8863 23.8899 35.8663 23.8355C35.8591 23.8137 35.8482 23.7648 35.8754 23.7394C35.8899 23.7285 35.9062 23.7248 35.9226 23.7303C35.9389 23.7357 35.9607 23.7539 35.9697 23.8065C35.977 23.8464 35.9625 23.8809 35.9353 23.8881C35.9353 23.8881 35.9316 23.8881 35.9298 23.8881V23.8918Z" fill="#6D4052"/>
<path d="M35.5366 23.9224C35.5366 23.9224 35.5202 23.8734 35.5366 23.8589C35.5529 23.8462 35.5747 23.8625 35.5837 23.9097C35.5928 23.9587 35.5601 23.9841 35.5366 23.9224Z" fill="#211D1D"/>
<path d="M35.5724 23.9875C35.5561 23.9893 35.5288 23.9857 35.5089 23.9312C35.5016 23.9094 35.4907 23.8605 35.518 23.8351C35.5325 23.8242 35.5488 23.8205 35.5651 23.826C35.5815 23.8314 35.6032 23.8496 35.6123 23.9022C35.6196 23.9421 35.6051 23.9766 35.5778 23.9838C35.5778 23.9838 35.5742 23.9838 35.5724 23.9838V23.9875Z" fill="#6D4052"/>
<path d="M35.2134 24.3161C35.1608 24.3233 35.11 24.3088 35.0683 24.2744C35.0066 24.2236 34.9812 24.1383 35.0048 24.0675C35.0375 23.9695 35.1372 23.9514 35.1409 23.9514C35.1572 23.9496 35.1717 23.9587 35.1753 23.975C35.179 23.9913 35.1681 24.0058 35.1518 24.0095C35.1481 24.0095 35.0828 24.024 35.061 24.0875C35.0447 24.1365 35.0629 24.1945 35.1064 24.2308C35.1499 24.2671 35.2098 24.2707 35.2661 24.2381C35.2806 24.2308 35.2987 24.2344 35.306 24.249C35.3132 24.2635 35.3096 24.2816 35.2951 24.2889C35.2679 24.3034 35.2407 24.3125 35.2134 24.3161Z" fill="#6D4052"/>
<path d="M35.1065 23.9494C35.3024 23.768 35.404 23.4414 35.404 23.4414C35.5891 23.6555 35.8068 23.5648 35.8068 23.5648C35.6635 23.4777 35.7179 23.3561 35.7179 23.3561C35.8739 23.514 36.2967 23.5757 36.2967 23.5757C36.2967 23.5757 36.2332 23.1638 35.8032 23.1148C35.3732 23.0658 35.4675 23.2073 35.4675 23.2073L35.1591 23.26C35.1591 23.26 35.0321 23.4613 35.0284 23.6011C35.0248 23.7408 35.1083 23.9476 35.1083 23.9476L35.1065 23.9494Z" fill="#45240E"/>
<path d="M35.1317 23.9533C35.1226 23.9533 35.1136 23.9515 35.1063 23.9442C35.0954 23.9315 35.0954 23.9134 35.1063 23.9025C35.2932 23.7301 35.3748 23.438 35.3748 23.4362C35.3785 23.4253 35.3857 23.4181 35.3966 23.4163C35.4075 23.4144 35.4184 23.4163 35.4256 23.4253C35.5418 23.5596 35.6706 23.565 35.7413 23.5541C35.6633 23.4798 35.6724 23.389 35.6905 23.3473C35.6942 23.3382 35.7032 23.3328 35.7123 23.331C35.7214 23.3292 35.7323 23.331 35.7377 23.3382C35.8865 23.487 36.2947 23.5505 36.3002 23.5505C36.3165 23.5523 36.3274 23.5668 36.3256 23.5832C36.3238 23.5995 36.3092 23.6104 36.2929 23.6086C36.2766 23.6068 35.9191 23.5523 35.7377 23.4144C35.7377 23.4489 35.7522 23.4997 35.823 23.5433C35.8321 23.5487 35.8375 23.5596 35.8375 23.5705C35.8375 23.5814 35.8302 23.5904 35.8194 23.5959C35.8175 23.5959 35.6053 23.683 35.4184 23.5033C35.3857 23.5977 35.3023 23.8082 35.148 23.9497C35.1426 23.9533 35.1372 23.9569 35.1317 23.9569V23.9533Z" fill="#6D4052"/>
<path d="M35.0698 24.6591L35.3692 24.6046L35.6631 24.8786L36.1312 24.7353L36.436 24.4341L36.6665 24.4395L37.013 25.1762L37.0366 26.1813L35.5016 26.0235L35.0698 24.6591Z" fill="#F7F7F6"/>
<path d="M36.2783 24.374C36.2783 24.374 36.2965 24.6117 36.1313 24.7369C36.1313 24.7369 36.2838 24.9437 36.4507 24.8294C36.6176 24.7151 36.487 24.4012 36.487 24.4012L36.2783 24.3758V24.374Z" fill="#5060A4"/>
<path d="M36.1315 24.7352C36.1315 24.7352 35.7305 24.9366 35.3931 24.5229L35.2588 24.601C35.2588 24.601 35.5346 25.0727 35.8122 25.0636C36.1841 25.0509 36.1315 24.7334 36.1315 24.7334V24.7352Z" fill="#5060A4"/>
<path d="M36.3726 24.8893C36.2565 24.9056 36.1531 24.8149 36.1077 24.7532C36.0986 24.7405 36.1005 24.7223 36.1132 24.7133C36.2638 24.599 36.2492 24.3794 36.2492 24.3758C36.2492 24.3667 36.2511 24.3577 36.2583 24.3522C36.2638 24.3468 36.2728 24.3431 36.2819 24.345L36.4906 24.3704C36.5014 24.3704 36.5105 24.3776 36.5141 24.3885C36.5196 24.403 36.6502 24.726 36.467 24.8512C36.4361 24.8729 36.4035 24.8856 36.3726 24.8893ZM36.173 24.7387C36.2148 24.784 36.3218 24.8802 36.4343 24.8022C36.5595 24.7151 36.4887 24.4865 36.467 24.4248L36.3091 24.4048C36.3091 24.4756 36.291 24.6316 36.173 24.7387Z" fill="#6D4052"/>
<path d="M35.8758 25.091C35.8558 25.0946 35.834 25.0946 35.8123 25.0964C35.5201 25.1055 35.2444 24.6392 35.2317 24.6193C35.2244 24.6048 35.228 24.5884 35.2425 24.5794L35.3768 24.5013C35.3895 24.4941 35.4058 24.4977 35.4149 24.5086C35.7342 24.8987 36.1134 24.7136 36.1189 24.7118C36.128 24.7082 36.137 24.7082 36.1461 24.7118C36.1552 24.7154 36.1606 24.7245 36.1624 24.7336C36.1624 24.739 36.1842 24.8751 36.0971 24.9821C36.0481 25.042 35.9737 25.0801 35.8776 25.0928L35.8758 25.091ZM35.2988 24.6138C35.3587 24.7082 35.5891 25.0438 35.8104 25.0366C35.9211 25.0329 36.0009 25.0021 36.0499 24.9422C36.0953 24.8878 36.1044 24.8189 36.1044 24.7771C35.9937 24.8152 35.6689 24.8896 35.3859 24.5612L35.2988 24.612V24.6138Z" fill="#6D4052"/>
<path d="M34.248 24.7587L34.3406 24.7007L34.7797 24.7206L35.4637 26.1359L35.2695 26.6675L35.0718 26.7382L34.903 26.5241L34.6454 25.6714" fill="#F7F7F6"/>
<path d="M34.8633 26.3341C34.8633 26.3341 35.1609 26.9419 35.1899 26.2126C35.2189 25.4832 34.6401 24.7048 34.6401 24.7048C34.9921 24.6268 35.1772 24.6359 35.1772 24.6359C35.8485 25.661 36.6359 25.9495 36.6359 25.9495C36.7884 25.4396 36.6178 24.4417 36.6178 24.4417C36.6178 24.4417 36.8954 24.3764 37.0877 24.4635C37.0877 24.4635 37.4379 25.2128 37.7082 25.8388C37.9786 26.4648 38.6209 28.0287 38.6209 28.0287C38.6209 28.0287 37.6248 28.5731 36.87 28.8361C36.1152 29.0974 35.8957 28.9958 35.8957 28.9958L34.8615 26.3341H34.8633Z" fill="#5060A4"/>
<path d="M37.2617 24.8479L36.6992 24.9695L36.7228 25.1672L37.3488 25.0348L37.2617 24.8479Z" fill="#F7F7F6"/>
<path d="M35.5692 25.082L34.9541 25.2145L35.0303 25.4014L35.727 25.2544L35.5692 25.082Z" fill="#F7F7F6"/>
<path d="M36.0516 25.978L36.2168 26.4352C36.2367 26.4915 36.2077 26.5532 36.1514 26.575L35.7867 26.7074C35.7305 26.7274 35.6688 26.6983 35.647 26.6421L35.4819 26.1849" fill="#5060A4"/>
<path d="M35.6925 26.3173C35.6362 26.3245 35.58 26.3082 35.5364 26.2701L35.4639 26.2048C35.4639 26.2048 35.453 26.1885 35.4548 26.1776C35.4566 26.1667 35.4639 26.1594 35.4729 26.1558L36.0427 25.949C36.0517 25.9453 36.0626 25.949 36.0717 25.9544C36.0789 25.9617 36.0844 25.9707 36.0826 25.9816L36.0699 26.076C36.0608 26.1486 36.0118 26.2084 35.9429 26.232L35.7324 26.3082C35.7197 26.3137 35.7052 26.3155 35.6925 26.3173ZM35.5383 26.1939L35.5745 26.2266C35.6126 26.261 35.6653 26.2701 35.7124 26.2538L35.9229 26.1776C35.9701 26.1613 36.0045 26.1177 36.0118 26.0687L36.0191 26.0215L35.5419 26.1939H35.5383Z" fill="#6D4052"/>
<path d="M35.7704 26.7404C35.745 26.744 35.7178 26.7404 35.6942 26.7277C35.6615 26.7113 35.6361 26.6841 35.6234 26.6496L35.4583 26.1924C35.4529 26.1779 35.4601 26.1598 35.4765 26.1543C35.491 26.1489 35.5091 26.1561 35.5146 26.1725L35.6797 26.6297C35.6869 26.6496 35.7015 26.666 35.7214 26.675C35.7414 26.6841 35.7631 26.6841 35.7813 26.6787L36.146 26.5462C36.1877 26.5317 36.2077 26.4864 36.1932 26.4446L36.028 25.9874C36.0226 25.9729 36.0299 25.9547 36.0462 25.9493C36.0607 25.9439 36.0788 25.9511 36.0843 25.9674L36.2494 26.4247C36.2748 26.4954 36.2385 26.5753 36.1678 26.6007L35.8031 26.7331C35.794 26.7367 35.7849 26.7385 35.774 26.7404H35.7704Z" fill="#6D4052"/>
<path d="M37.3797 25.4612L37.5448 25.9184C37.5648 25.9746 37.5448 26.0345 37.4995 26.0509L37.2074 26.1561C37.162 26.1724 37.1094 26.1398 37.0894 26.0835L36.9243 25.6263" fill="#5060A4"/>
<path d="M37.1094 25.769C37.0604 25.7763 37.0078 25.7563 36.966 25.7128L36.9025 25.6439C36.9025 25.6439 36.8934 25.6275 36.8953 25.6166C36.8971 25.6076 36.9043 25.5985 36.9134 25.5967L37.3688 25.4316C37.3779 25.4279 37.3888 25.4298 37.396 25.4352C37.4033 25.4406 37.4087 25.4497 37.4087 25.4606L37.4033 25.5531C37.3997 25.6239 37.3616 25.682 37.3035 25.7019L37.1348 25.7636C37.1257 25.7672 37.1166 25.769 37.1075 25.7709L37.1094 25.769ZM36.9751 25.6366L37.0077 25.6729C37.0404 25.7074 37.0803 25.7201 37.1166 25.7074L37.2853 25.6457C37.3198 25.633 37.3434 25.5967 37.347 25.5495V25.5023L36.9769 25.6366H36.9751Z" fill="#6D4052"/>
<path d="M37.1985 26.1863C37.144 26.1935 37.086 26.1554 37.0624 26.0919L36.8973 25.6347C36.8919 25.6202 36.8991 25.602 36.9154 25.5966C36.93 25.5911 36.9481 25.5984 36.9535 25.6147L37.1186 26.0719C37.1332 26.1119 37.1695 26.1373 37.2003 26.1264L37.4924 26.0211C37.5051 26.0157 37.516 26.0048 37.5214 25.9885C37.5269 25.9703 37.5269 25.9486 37.5196 25.9268L37.3545 25.4696C37.3491 25.4551 37.3563 25.4369 37.3727 25.4315C37.3872 25.426 37.4053 25.4333 37.4108 25.4496L37.5759 25.9068C37.5886 25.9395 37.5886 25.9758 37.5777 26.0066C37.5668 26.0393 37.5432 26.0647 37.5124 26.0756L37.2203 26.1808C37.2203 26.1808 37.2076 26.1844 37.2003 26.1863H37.1985Z" fill="#6D4052"/>
<path d="M37.458 27.9833C37.4453 27.9833 37.4326 27.9778 37.4271 27.9651L36.5943 25.9657C36.5889 25.9512 36.5943 25.933 36.6107 25.9276C36.6252 25.9221 36.6433 25.9276 36.6488 25.9439L37.4816 27.9433C37.487 27.9579 37.4816 27.976 37.4652 27.9814C37.4634 27.9814 37.4598 27.9814 37.458 27.9833Z" fill="#6D4052"/>
<path d="M36.1769 29.0481C35.9773 29.0753 35.9065 29.0518 35.9011 29.0481C35.8938 29.0445 35.8866 29.0391 35.8847 29.0318L34.8596 26.401C34.8542 26.3864 34.8596 26.3701 34.8741 26.3629C34.8887 26.3556 34.905 26.3629 34.9122 26.3756C34.9522 26.4536 35.0302 26.5643 35.0755 26.557H35.0773C35.0937 26.5534 35.1499 26.5171 35.1626 26.2068C35.1916 25.4956 34.6238 24.7245 34.6183 24.7172C34.6129 24.71 34.6111 24.6991 34.6147 24.69C34.6183 24.6809 34.6256 24.6737 34.6365 24.6719C34.9884 24.5939 35.1735 24.6029 35.1808 24.6029C35.1898 24.6029 35.1989 24.6084 35.2044 24.6174C35.7668 25.5228 36.469 25.8476 36.6177 25.9075C36.7502 25.4012 36.5923 24.4541 36.5905 24.4451C36.5887 24.4287 36.5978 24.4142 36.6141 24.4106C36.6304 24.4088 36.645 24.4197 36.6468 24.4342C36.654 24.4759 36.8155 25.443 36.6649 25.9546C36.6631 25.9619 36.6577 25.9691 36.6504 25.9728C36.6431 25.9764 36.6359 25.9764 36.6268 25.9728C36.6177 25.9691 35.8031 25.6807 35.1626 24.6592C35.1154 24.6592 34.954 24.6628 34.6909 24.7172C34.8052 24.8823 35.2461 25.5573 35.2207 26.2068C35.2098 26.4663 35.1681 26.5951 35.09 26.6114C35.0574 26.6187 35.0247 26.6042 34.9939 26.5806L35.9337 28.9919C35.9863 29.001 36.2295 29.0227 36.8627 28.8014C37.5431 28.5655 38.4321 28.092 38.5863 28.0085C38.5047 27.8071 37.9332 26.4191 37.6846 25.844C37.4161 25.2253 37.0677 24.4777 37.0641 24.4687C37.0568 24.4541 37.0641 24.436 37.0786 24.4306C37.0931 24.4233 37.1113 24.4306 37.1167 24.4451C37.1203 24.4523 37.4705 25.2017 37.739 25.8204C38.0076 26.4391 38.6444 27.994 38.6517 28.0103C38.6571 28.0248 38.6517 28.0393 38.639 28.0466C38.6281 28.052 37.632 28.5964 36.8845 28.8558C36.5579 28.9701 36.3311 29.0209 36.1805 29.0409L36.1769 29.0481Z" fill="#6D4052"/>
<path d="M36.6232 24.4724C36.6232 24.4724 36.6196 24.4724 36.6178 24.4724L36.5035 24.4669C36.4871 24.4669 36.4744 24.4524 36.4762 24.4361C36.4762 24.4197 36.4908 24.407 36.5071 24.4089L36.6214 24.4143C36.6377 24.4143 36.6504 24.4288 36.6486 24.4452C36.6486 24.4597 36.6377 24.4706 36.6232 24.4724Z" fill="#6D4052"/>
<path d="M35.2752 24.6572L35.1827 24.6644C35.1664 24.6644 35.1519 24.6536 35.1519 24.6372C35.1519 24.6209 35.1627 24.6064 35.1791 24.6064L35.2716 24.5991C35.2879 24.5991 35.3024 24.61 35.3024 24.6263C35.3024 24.6427 35.2934 24.6554 35.277 24.6572H35.2752Z" fill="#6D4052"/>
<path d="M36.3383 25.2592C36.3238 25.261 36.3093 25.2592 36.2966 25.2537C36.2766 25.2447 36.2603 25.2301 36.253 25.2102C36.2367 25.1685 36.2548 25.1213 36.2966 25.1049C36.3165 25.0959 36.3383 25.0959 36.3583 25.1049C36.3782 25.114 36.3945 25.1285 36.4018 25.1485C36.4109 25.1685 36.4109 25.1902 36.4018 25.2102C36.3927 25.2301 36.3782 25.2465 36.3583 25.2537C36.351 25.2555 36.3456 25.2592 36.3383 25.2592ZM36.3056 25.1884C36.3056 25.1884 36.3129 25.1975 36.3183 25.2011C36.3238 25.2029 36.3292 25.2029 36.3365 25.2011C36.3419 25.1993 36.3456 25.1939 36.3492 25.1884C36.351 25.183 36.351 25.1775 36.3492 25.1703C36.3474 25.1648 36.3419 25.1612 36.3365 25.1576C36.331 25.1558 36.3256 25.1558 36.3183 25.1576C36.3075 25.163 36.302 25.1757 36.3056 25.1866V25.1884Z" fill="#6D4052"/>
<path d="M30.8876 24.1205L30.6754 24.0407C30.6754 24.0407 30.6191 23.9409 30.4867 23.7885C30.3542 23.6361 30.2889 23.5998 30.1909 23.5018C30.0929 23.402 30.004 23.5036 30.1238 23.6615L30.1964 23.7885C30.1964 23.7885 29.9188 23.6252 29.7283 23.5345C29.565 23.4565 29.5196 23.4728 29.525 23.529C29.5305 23.5835 29.9224 23.8266 29.9224 23.8266C29.9224 23.8266 29.6049 23.7105 29.4688 23.6633C29.3527 23.6216 29.3255 23.6506 29.3218 23.696C29.3182 23.7413 29.3581 23.7776 29.4634 23.8157C29.5886 23.8611 29.8226 23.9735 29.8226 23.9735C29.8226 23.9735 29.8589 24.0062 29.7809 23.9917C29.7029 23.9772 29.4797 23.9227 29.398 23.91C29.3164 23.8973 29.2602 23.91 29.2837 23.9772C29.2964 24.0171 29.4978 24.0679 29.574 24.0879C29.6502 24.1078 29.7736 24.1387 29.7845 24.1731C29.7899 24.1931 29.7664 24.1985 29.6756 24.1895C29.5849 24.1804 29.4216 24.1441 29.3817 24.1677C29.3418 24.1931 29.3527 24.2457 29.4761 24.2802C29.5994 24.3146 29.848 24.3945 29.848 24.3945C29.848 24.3945 30.122 24.556 30.4159 24.4925L30.7788 24.6503L30.8895 24.1223L30.8876 24.1205Z" fill="#F5DBD6"/>
<path d="M30.7809 24.6773C30.7809 24.6773 30.77 24.6773 30.7645 24.6755L30.4089 24.5212C30.1259 24.5793 29.8646 24.4378 29.8319 24.4196C29.8029 24.4106 29.5779 24.338 29.4636 24.3053C29.3584 24.2763 29.3312 24.2346 29.3275 24.2055C29.3239 24.1801 29.3366 24.1566 29.362 24.1402C29.3965 24.1185 29.4691 24.1275 29.5834 24.1457C29.616 24.1511 29.6487 24.1566 29.6759 24.1584C29.6977 24.1602 29.7122 24.162 29.7249 24.162C29.6813 24.1439 29.6033 24.1239 29.5689 24.1148H29.5634C29.3203 24.0513 29.2659 24.0205 29.255 23.9842C29.2405 23.9425 29.2513 23.9171 29.264 23.9044C29.2876 23.8771 29.333 23.8681 29.4019 23.8808C29.4491 23.888 29.5416 23.9098 29.6324 23.9298C29.6487 23.9334 29.665 23.937 29.6813 23.9406C29.607 23.9062 29.5162 23.8681 29.4546 23.8445C29.3711 23.8136 29.2858 23.7719 29.2931 23.6957C29.2967 23.6649 29.3076 23.6431 29.3275 23.6304C29.3584 23.6104 29.4056 23.6122 29.4781 23.6395C29.5308 23.6576 29.6124 23.6866 29.6922 23.7157C29.5834 23.6395 29.4981 23.5705 29.4945 23.5342C29.4908 23.4961 29.5072 23.478 29.5199 23.4671C29.5562 23.4417 29.6233 23.4544 29.7394 23.5106C29.7539 23.5179 29.7594 23.5342 29.7539 23.5487C29.7467 23.5633 29.7303 23.5687 29.7158 23.5633C29.5779 23.4979 29.5543 23.5161 29.5543 23.5161C29.5543 23.5161 29.5525 23.5197 29.5543 23.5288C29.5689 23.5596 29.7648 23.6975 29.939 23.8046C29.9517 23.8118 29.9571 23.8282 29.9499 23.8427C29.9426 23.8554 29.9281 23.8626 29.9136 23.8572C29.91 23.8572 29.5943 23.7411 29.4618 23.6939C29.3874 23.6685 29.3675 23.6757 29.362 23.6794C29.362 23.6794 29.3548 23.683 29.3529 23.7011C29.3529 23.712 29.3493 23.7447 29.4763 23.7901C29.6015 23.8354 29.8283 23.9443 29.8374 23.9479C29.8392 23.9479 29.8428 23.9515 29.8446 23.9533C29.861 23.9679 29.8664 23.9878 29.8592 24.0041C29.8446 24.0332 29.8011 24.0259 29.7775 24.0205C29.7449 24.015 29.685 24.0005 29.6215 23.986C29.538 23.9679 29.4419 23.9461 29.3947 23.9388C29.3384 23.9298 29.3148 23.9388 29.3094 23.9425C29.3058 23.9461 29.3076 23.9552 29.3094 23.966C29.3167 23.9751 29.362 24.0023 29.5779 24.0568V24.0858L29.5834 24.0568C29.7285 24.0931 29.7993 24.1185 29.8102 24.1602C29.8156 24.1801 29.8084 24.1928 29.8029 24.1983C29.7866 24.2182 29.7576 24.2219 29.6705 24.2128C29.6432 24.211 29.6106 24.2055 29.5761 24.2001C29.5199 24.191 29.4146 24.1765 29.3947 24.1874C29.3892 24.191 29.3874 24.1928 29.3874 24.1947C29.3874 24.2019 29.4074 24.2255 29.4818 24.2473C29.6051 24.2817 29.8537 24.3616 29.8555 24.3616C29.8573 24.3616 29.8592 24.3616 29.861 24.3634C29.8628 24.3634 30.1295 24.5176 30.4071 24.4577C30.4125 24.4577 30.4198 24.4577 30.4252 24.4577L30.7555 24.6011L30.8534 24.133L30.6647 24.0622C30.6647 24.0622 30.652 24.0549 30.6502 24.0495C30.6502 24.0495 30.5922 23.9497 30.4633 23.8028C30.3817 23.7102 30.3254 23.6612 30.2728 23.6141C30.2384 23.5832 30.2057 23.556 30.1694 23.5179C30.1404 23.4889 30.115 23.4816 30.1041 23.4907C30.0878 23.5052 30.0896 23.5633 30.1458 23.6395L30.2202 23.7701C30.2275 23.7846 30.2238 23.8028 30.2093 23.81C30.1948 23.8173 30.1767 23.8136 30.1694 23.7991L30.0968 23.6721C30.017 23.5687 30.0225 23.4834 30.0642 23.4471C30.0932 23.4217 30.1476 23.4145 30.2093 23.4762C30.2456 23.5125 30.2765 23.5415 30.3109 23.5705C30.3672 23.6195 30.4234 23.6703 30.5069 23.7646C30.6176 23.8917 30.6774 23.9824 30.6938 24.0114L30.897 24.0876C30.9097 24.0931 30.9188 24.1076 30.9151 24.1203L30.8044 24.6482C30.8044 24.6482 30.7972 24.6646 30.7899 24.6682C30.7863 24.6682 30.7845 24.67 30.7809 24.6718V24.6773Z" fill="#6D4052"/>
<path d="M30.3491 24.1582C30.3491 24.1582 30.3382 24.1582 30.3328 24.1563C30.3274 24.1545 30.2203 24.1001 30.1985 23.9477C30.1804 23.8225 30.1604 23.788 30.1604 23.788C30.1532 23.7735 30.1568 23.7572 30.1695 23.7481C30.1822 23.739 30.2004 23.7427 30.2094 23.7572C30.2131 23.7626 30.2348 23.8025 30.2566 23.9404C30.2747 24.062 30.3582 24.1037 30.3582 24.1037C30.3727 24.111 30.3782 24.1273 30.3709 24.1418C30.3673 24.1509 30.3582 24.1563 30.3491 24.1582Z" fill="#6D4052"/>
<path d="M34.4914 24.7099C34.4914 24.7099 34.6166 24.7153 34.4206 24.7099C34.2247 24.7044 32.9056 24.4395 32.5881 24.3525C32.2688 24.2654 31.4668 23.8753 30.9806 23.9987L30.761 23.9587C30.761 23.9587 30.7229 24.2926 30.5669 24.621L30.7302 24.6845C30.7302 24.6845 30.7374 24.846 30.9933 24.9947C31.3416 25.198 32.4012 25.5118 32.9873 25.7096C33.5733 25.9074 34.7164 26.1559 34.7164 26.1559L34.9758 26.2194L35.0756 26.0126" fill="#F7F7F6"/>
<path d="M34.6328 24.7347C34.5965 24.7401 34.5239 24.7401 34.4187 24.7365C34.4023 24.7365 34.3896 24.722 34.3896 24.7057C34.3896 24.6893 34.4042 24.6766 34.4205 24.6766C34.5965 24.6821 34.6291 24.673 34.631 24.673C34.6455 24.6658 34.6618 24.673 34.6691 24.6875C34.6763 24.702 34.6691 24.7202 34.6527 24.7274C34.6491 24.7293 34.6418 24.7311 34.6328 24.7329V24.7347Z" fill="#6D4052"/>
<path d="M34.9392 26.5386C34.9265 26.5386 34.9138 26.5332 34.9084 26.5205L34.7813 26.2175C34.6398 26.1848 33.5204 25.9217 32.976 25.7366C32.8617 25.6985 32.7347 25.655 32.5987 25.6096C32.0453 25.4246 31.3576 25.1942 31.0619 25.0617C30.7607 24.9256 30.7099 24.7623 30.7026 24.7043L30.5557 24.648C30.5557 24.648 30.543 24.639 30.5393 24.6317C30.5357 24.6244 30.5357 24.6154 30.5393 24.6081C30.6428 24.3886 30.7317 23.9567 30.7317 23.9513C30.7353 23.935 30.7498 23.9259 30.7661 23.9277L30.9784 23.9658C31.3576 23.8733 31.9001 24.0729 32.2975 24.218C32.4172 24.2616 32.5206 24.2997 32.595 24.3196C32.6114 24.3233 32.6204 24.3396 32.615 24.3559C32.6114 24.3722 32.595 24.3813 32.5787 24.3759C32.5007 24.3541 32.3973 24.316 32.2775 24.2725C31.9074 24.1364 31.3486 23.9313 30.9857 24.0239C30.9821 24.0239 30.9766 24.0239 30.973 24.0239L30.7825 23.9894C30.7625 24.0856 30.6899 24.4031 30.6047 24.6027L30.7389 24.6553C30.7498 24.6589 30.7589 24.6716 30.7571 24.6843C30.7571 24.6843 30.7571 24.8603 31.0837 25.0073C31.3776 25.1397 32.0634 25.3701 32.615 25.5534C32.7511 25.5988 32.8781 25.6423 32.9924 25.6804C33.5693 25.8764 34.794 26.1594 34.8067 26.163C34.8158 26.1648 34.8231 26.1721 34.8267 26.1812L34.9592 26.4987C34.9646 26.5132 34.9592 26.5313 34.9428 26.5368C34.941 26.5368 34.9374 26.5368 34.9356 26.5386H34.9392Z" fill="#6D4052"/>
<path d="M30.7393 24.6333C30.7393 24.6333 30.7248 24.6333 30.7193 24.6279C30.7066 24.6188 30.703 24.6007 30.7121 24.588C30.8862 24.3322 30.908 24.0709 30.908 24.0673C30.908 24.0509 30.9225 24.04 30.9389 24.04C30.9552 24.04 30.9661 24.0546 30.9661 24.0709C30.9661 24.0818 30.9425 24.3503 30.7611 24.6188C30.7556 24.6261 30.7484 24.6297 30.7411 24.6315L30.7393 24.6333Z" fill="#6D4052"/>
<path d="M34.9956 26.2953C34.9956 26.2953 34.9865 26.2953 34.9811 26.2953L34.7906 26.2227C34.7761 26.2173 34.7688 26.1992 34.7743 26.1846C34.7797 26.1701 34.796 26.1629 34.8124 26.1683L35.0029 26.2409C35.0174 26.2463 35.0247 26.2645 35.0192 26.279C35.0156 26.2899 35.0065 26.2953 34.9956 26.2971V26.2953Z" fill="#6D4052"/>
<path d="M35.0285 23.7771C35.0321 23.797 35.1355 23.8751 35.2208 23.7807C35.2879 23.7063 35.4077 23.4414 35.678 23.3743C35.9484 23.309 36.0591 23.4541 36.1933 23.5285C36.3258 23.6047 36.3566 23.4832 36.3566 23.4832C36.3566 23.4832 36.3548 23.2437 36.235 23.0441C36.1171 22.8445 35.8649 22.7647 35.5728 22.7864C35.2571 22.81 34.9741 23.0495 34.9305 23.2491C34.8616 23.5702 35.0085 23.7898 35.0085 23.7898" fill="#5060A4"/>
<path d="M35.137 24.0021C35.137 24.0021 35.1189 24.0021 35.108 23.9894C35.1062 23.9876 35.1043 23.984 35.1025 23.9822C35.0299 23.8951 34.8394 23.6392 34.8775 23.3417C34.9156 23.0459 35.2259 22.7847 35.5688 22.7593C35.5851 22.7593 35.5997 22.7702 35.5997 22.7865C35.5997 22.8028 35.5888 22.8173 35.5724 22.8173C35.2567 22.8409 34.9701 23.0786 34.9356 23.3489C34.8993 23.632 35.0916 23.8806 35.1515 23.9495C35.1715 23.9731 35.157 23.9894 35.1515 23.9931C35.1479 23.9967 35.1424 24.0003 35.1352 24.0003L35.137 24.0021Z" fill="#6D4052"/>
<path d="M35.1534 23.8499C35.1334 23.8535 35.1135 23.8499 35.0917 23.8444C35.0445 23.8299 34.9956 23.7918 34.9919 23.7646C34.9901 23.7483 34.9992 23.7337 35.0155 23.7301C35.0318 23.7283 35.0445 23.7355 35.0482 23.7501C35.0554 23.7591 35.0881 23.7882 35.1262 23.7918C35.1534 23.7954 35.177 23.7845 35.1988 23.761C35.2115 23.7464 35.2278 23.7228 35.2478 23.6938C35.3221 23.585 35.4473 23.4017 35.6705 23.3473C35.8973 23.291 36.0189 23.3781 36.1277 23.4525C36.1549 23.4707 36.1803 23.4888 36.2076 23.5051C36.2311 23.5196 36.2656 23.5323 36.2928 23.5215C36.3146 23.5124 36.3237 23.4888 36.3273 23.4815C36.3273 23.4489 36.3146 23.2366 36.2112 23.0624C36.2021 23.0479 36.2076 23.0298 36.2221 23.0225C36.2366 23.0134 36.2529 23.0189 36.262 23.0334C36.3836 23.2366 36.3872 23.4761 36.3872 23.487C36.3872 23.4888 36.3872 23.4924 36.3872 23.4942C36.3872 23.4961 36.3709 23.5541 36.3182 23.5777C36.2801 23.594 36.233 23.5868 36.1822 23.5577C36.1531 23.5414 36.1259 23.5233 36.0987 23.5033C35.9971 23.4307 35.89 23.3582 35.6886 23.4071C35.4873 23.4561 35.3748 23.6212 35.3004 23.7301C35.2804 23.761 35.2623 23.7864 35.2459 23.8027C35.2205 23.8299 35.1897 23.848 35.157 23.8517L35.1534 23.8499Z" fill="#6D4052"/>
<path d="M35.0177 23.8048C35.0177 23.8048 35.0086 23.8048 35.0031 23.8048C34.9886 23.7993 34.9796 23.783 34.985 23.7667C35.1156 23.402 35.3606 23.2205 35.7779 23.177C36.1426 23.1389 36.3675 23.4564 36.3766 23.4691C36.3857 23.4818 36.3821 23.5 36.3694 23.509C36.3567 23.5181 36.3385 23.5145 36.3294 23.5018C36.3276 23.4981 36.1153 23.1988 35.7833 23.2332C35.386 23.275 35.1628 23.4401 35.0394 23.7848C35.0358 23.7957 35.0267 23.803 35.0158 23.8048H35.0177Z" fill="#6D4052"/>
<path d="M38.6948 27.1192C38.5515 27.1392 38.4172 27.0394 38.3973 26.8942L38.2721 25.9925C38.2521 25.8491 38.3519 25.7149 38.4971 25.6949C38.6404 25.675 38.7747 25.7748 38.7946 25.9199L38.9198 26.8216C38.9398 26.965 38.84 27.0992 38.6948 27.1192Z" fill="#B2B1B2"/>
<path d="M38.7583 27.2032L38.6567 27.2177C38.4897 27.2413 38.3355 27.1234 38.3138 26.9583L38.1759 25.9549C38.1523 25.788 38.2702 25.6338 38.4353 25.612L38.5369 25.5975C38.7038 25.5739 38.8581 25.6918 38.8798 25.8569L39.0177 26.8603C39.0413 27.0272 38.9234 27.1814 38.7583 27.2032ZM38.4589 25.7934C38.3936 25.8025 38.3464 25.8642 38.3555 25.9295L38.4934 26.9329C38.5024 26.9982 38.5641 27.0454 38.6294 27.0363L38.7311 27.0218C38.7964 27.0127 38.8435 26.951 38.8345 26.8857L38.6966 25.8823C38.6875 25.817 38.6258 25.7699 38.5605 25.7789L38.4589 25.7934Z" fill="#6D4052"/>
</svg>
